<?xml version="1.0" standalone="no"?>
<!DOCTYPE svg PUBLIC "-//W3C//DTD SVG 20010904//EN"
 "http://www.w3.org/TR/2001/REC-SVG-20010904/DTD/svg10.dtd">
<svg version="1.0" xmlns="http://www.w3.org/2000/svg"
 width="2066.000000pt" height="2066.000000pt" viewBox="0 0 2066.000000 2066.000000"
 preserveAspectRatio="xMidYMid meet">
<metadata>
Created by potrace 1.11, written by Peter Selinger 2001-2013
</metadata>
<g transform="translate(0.000000,2066.000000) scale(0.100000,-0.100000)"
fill="#000000" stroke="none">
<path d="M15060 16744 c-472 -53 -895 -353 -1113 -789 -119 -239 -172 -577
-132 -850 15 -105 22 -132 60 -257 55 -177 153 -356 283 -516 46 -58 437 -479
571 -615 257 -263 487 -390 846 -470 142 -31 403 -30 555 2 216 47 380 115
540 224 106 73 294 263 367 372 232 346 305 757 208 1170 -49 209 -133 388
-262 560 -90 120 -121 151 -137 140 -21 -15 -611 -566 -614 -574 -1 -3 18 -33
43 -66 94 -124 137 -254 136 -410 -1 -109 -17 -186 -58 -273 -34 -74 -159
-198 -236 -235 -198 -94 -448 -74 -635 50 -56 38 -124 105 -393 393 -84 91
-175 188 -201 215 -81 87 -110 128 -149 212 -172 363 4 761 371 839 192 41
407 -17 566 -152 l66 -56 36 34 c21 19 125 116 232 215 107 99 233 216 279
259 l83 79 -43 48 c-78 87 -246 213 -380 285 -261 142 -578 201 -889 166z"/>
<path d="M9962 16665 c-12 -14 -65 -20 -147 -18 -228 6 -414 4 -430 -5 -11 -5
-46 -15 -78 -20 -58 -11 -140 -45 -165 -69 -7 -7 -18 -13 -24 -13 -6 0 -21
-11 -34 -25 -13 -14 -27 -25 -31 -25 -5 0 -17 -13 -26 -30 -10 -16 -22 -30
-26 -30 -5 0 -11 -10 -15 -23 -7 -30 -62 -60 -101 -55 l-30 4 29 9 c42 12 66
36 66 65 0 36 -12 49 -50 60 -27 8 -42 6 -75 -10 -23 -11 -58 -20 -78 -20 -20
0 -37 -4 -37 -10 0 -5 -12 -13 -27 -16 -16 -4 -37 -13 -48 -20 -11 -8 -29 -14
-40 -15 -11 0 -33 -9 -50 -20 -16 -10 -40 -23 -52 -28 -11 -5 -24 -15 -28 -20
-3 -6 -17 -11 -30 -11 -12 0 -26 -7 -29 -16 -4 -11 -15 -15 -35 -12 -20 3 -27
0 -24 -8 2 -7 -6 -15 -19 -19 -13 -4 -25 -10 -28 -14 -3 -3 -23 -15 -45 -26
-22 -11 -44 -25 -50 -31 -5 -7 -23 -15 -39 -18 -17 -4 -42 -16 -57 -27 -15
-10 -38 -19 -51 -19 -12 -1 -34 -7 -48 -15 -14 -8 -37 -14 -52 -15 -15 0 -34
-7 -43 -16 -11 -12 -26 -15 -51 -11 -28 5 -35 3 -30 -8 3 -9 -6 -16 -27 -20
-18 -4 -36 -11 -42 -15 -5 -4 -26 -10 -46 -14 -21 -4 -51 -13 -68 -22 -46 -23
-74 -15 -77 21 -13 133 -44 224 -76 225 -10 0 -34 -18 -55 -40 -20 -23 -53
-51 -72 -63 -40 -24 -42 -25 -91 -67 -19 -16 -43 -30 -52 -30 -10 0 -18 -4
-18 -9 0 -5 -17 -20 -37 -32 -70 -43 -193 -161 -193 -185 0 -8 -4 -14 -10 -14
-5 0 -10 -7 -10 -15 0 -9 -7 -18 -15 -21 -8 -4 -15 -14 -15 -24 0 -10 -7 -23
-15 -30 -8 -7 -15 -22 -15 -34 0 -35 -57 -106 -85 -106 -9 0 -18 -7 -21 -15
-4 -8 -10 -15 -15 -15 -12 0 -99 -62 -99 -71 0 -4 -11 -10 -25 -13 -14 -4 -25
-11 -25 -16 0 -6 -6 -10 -14 -10 -8 0 -16 -7 -20 -15 -3 -8 -11 -15 -18 -15
-7 0 -26 -12 -43 -27 -41 -39 -118 -93 -131 -93 -7 0 -14 -6 -17 -13 -3 -7
-24 -26 -48 -42 -24 -17 -60 -47 -80 -67 -20 -21 -39 -38 -43 -38 -8 0 -43
-31 -112 -97 -24 -24 -46 -43 -49 -43 -8 0 -385 -378 -385 -387 0 -4 -25 -35
-55 -68 -30 -33 -55 -63 -55 -67 0 -5 -6 -8 -14 -8 -8 0 -17 -8 -21 -19 -3
-10 -20 -34 -38 -54 -43 -47 -54 -61 -106 -132 -24 -33 -47 -62 -51 -65 -3 -3
-16 -22 -29 -42 -12 -21 -26 -38 -31 -38 -5 0 -12 -9 -15 -20 -4 -11 -17 -32
-31 -47 -13 -14 -24 -32 -24 -39 0 -8 -4 -14 -10 -14 -5 0 -10 -7 -10 -15 0
-8 -6 -15 -14 -15 -8 0 -16 -10 -20 -22 -3 -13 -17 -36 -32 -53 -15 -16 -32
-44 -40 -61 -7 -17 -20 -36 -28 -44 -9 -7 -16 -18 -16 -25 0 -7 -7 -15 -15
-19 -8 -3 -15 -15 -15 -26 0 -11 -4 -20 -8 -20 -5 0 -23 -29 -42 -65 -19 -36
-40 -65 -47 -65 -7 0 -13 -7 -13 -15 0 -9 -11 -33 -25 -55 -14 -22 -25 -42
-25 -46 0 -3 -7 -12 -15 -20 -8 -9 -15 -24 -15 -35 0 -10 -3 -19 -8 -19 -4 0
-18 -22 -31 -50 -13 -27 -28 -50 -32 -50 -5 0 -9 -8 -9 -19 0 -10 -7 -24 -15
-31 -8 -7 -15 -19 -15 -26 0 -8 -4 -14 -10 -14 -5 0 -10 -11 -10 -24 0 -14 -4
-27 -9 -30 -15 -10 -51 -90 -51 -114 0 -12 -4 -22 -10 -22 -15 0 -12 47 5 64
8 8 15 26 15 40 0 15 4 34 9 44 4 9 15 33 24 52 44 100 90 191 98 196 5 3 9
15 9 27 0 12 11 34 25 49 14 15 25 30 25 34 0 15 35 80 47 87 7 4 13 16 13 26
0 11 7 21 15 25 8 3 15 17 15 31 0 14 3 25 8 25 4 0 20 23 35 51 16 28 35 53
42 55 11 4 10 10 -1 32 -8 15 -14 37 -14 50 0 12 -5 22 -11 22 -7 0 -9 -9 -6
-21 8 -32 -19 -34 -47 -4 -22 23 -27 25 -48 13 -30 -17 -58 -48 -58 -65 0 -7
-3 -13 -8 -13 -4 0 -18 -24 -31 -52 -13 -29 -34 -76 -47 -103 -13 -28 -24 -58
-24 -66 0 -9 -7 -22 -15 -29 -8 -7 -15 -20 -15 -29 0 -10 -7 -26 -15 -37 -8
-10 -15 -29 -15 -41 0 -13 -4 -23 -10 -23 -5 0 -10 -11 -10 -24 0 -13 -7 -29
-15 -36 -8 -7 -15 -23 -15 -35 0 -12 -7 -28 -15 -35 -8 -7 -15 -25 -15 -40 0
-15 -7 -33 -15 -40 -8 -7 -15 -20 -15 -30 0 -10 -7 -31 -15 -46 -8 -16 -15
-37 -15 -46 0 -10 -4 -18 -10 -18 -5 0 -10 -13 -10 -29 0 -16 -7 -34 -15 -41
-8 -7 -15 -28 -15 -46 0 -19 -4 -34 -9 -34 -5 0 -12 -15 -16 -32 -11 -53 -28
-102 -42 -119 -7 -8 -13 -27 -13 -41 0 -28 -35 -114 -50 -123 -6 -3 -10 -15
-10 -26 0 -10 -4 -19 -10 -19 -5 0 -10 -6 -10 -14 0 -7 -6 -19 -14 -25 -7 -6
-16 -24 -19 -39 -3 -15 -17 -44 -31 -65 -14 -21 -26 -49 -26 -62 0 -13 -7 -30
-15 -39 -8 -8 -15 -19 -15 -25 0 -11 -31 -82 -40 -91 -11 -11 -40 -73 -40 -85
0 -7 -8 -28 -17 -47 -9 -18 -22 -45 -30 -60 -7 -14 -13 -33 -13 -42 0 -9 -4
-16 -8 -16 -16 0 -30 -81 -20 -116 16 -59 68 -36 68 30 0 14 4 26 10 26 5 0
13 12 16 28 4 15 17 45 29 68 13 22 26 55 30 72 3 18 11 34 16 37 5 4 9 17 9
30 0 13 5 27 10 30 16 10 11 -58 -5 -79 -8 -11 -15 -36 -15 -56 0 -20 -7 -45
-15 -56 -8 -10 -15 -39 -15 -64 0 -26 -4 -50 -9 -55 -5 -6 -12 -39 -14 -74 -3
-35 -10 -68 -16 -74 -6 -6 -11 -35 -11 -65 0 -29 -5 -63 -11 -74 -7 -12 -15
-47 -20 -77 -10 -72 -29 -161 -39 -186 -5 -11 -11 -45 -13 -76 -3 -31 -10 -65
-15 -75 -14 -27 -38 -203 -66 -484 -29 -289 -33 -370 -29 -616 3 -143 1 -244
-5 -248 -5 -3 -12 51 -15 131 -3 75 -10 139 -15 142 -5 3 -11 14 -15 24 -8 22
-37 22 -37 0 0 -9 -7 -24 -15 -33 -13 -14 -13 -23 -1 -66 8 -27 17 -103 20
-169 3 -66 12 -176 21 -245 8 -69 19 -165 25 -215 5 -49 14 -99 19 -110 5 -11
12 -55 14 -98 2 -43 9 -83 16 -90 6 -6 11 -39 11 -73 0 -35 5 -75 11 -91 6
-15 14 -55 19 -88 19 -124 33 -191 46 -222 8 -17 14 -47 14 -66 0 -20 5 -39
10 -42 6 -3 10 -22 10 -41 0 -19 7 -49 16 -66 9 -16 13 -40 10 -52 -3 -13 3
-38 14 -59 11 -20 20 -53 20 -73 0 -19 5 -45 12 -57 7 -12 14 -33 16 -47 2
-13 7 -29 12 -35 4 -5 11 -29 15 -52 4 -24 11 -45 16 -49 5 -3 9 -19 9 -36 0
-16 6 -42 14 -56 29 -56 46 -104 46 -127 0 -13 5 -25 11 -27 5 -2 13 -24 16
-48 3 -25 17 -62 30 -82 12 -21 23 -49 23 -62 0 -14 7 -31 15 -40 8 -8 15 -22
15 -31 0 -15 18 -58 61 -149 11 -22 19 -48 19 -58 0 -10 7 -21 15 -24 8 -4 15
-17 15 -30 0 -14 7 -27 15 -30 8 -4 15 -15 15 -26 0 -10 14 -43 30 -73 17 -30
30 -61 30 -69 0 -8 11 -28 25 -44 14 -17 25 -35 25 -42 0 -7 8 -24 19 -38 10
-15 30 -52 45 -82 31 -62 163 -264 213 -326 18 -23 33 -48 33 -57 0 -9 6 -20
13 -24 8 -4 22 -21 33 -38 20 -32 33 -48 70 -89 13 -15 24 -30 24 -33 0 -3 25
-34 55 -68 30 -35 55 -68 55 -74 0 -6 8 -15 19 -20 10 -6 21 -22 25 -35 3 -14
15 -27 25 -31 10 -3 21 -15 24 -26 3 -11 14 -23 24 -26 10 -2 32 -22 48 -43
17 -22 36 -39 43 -40 6 0 12 -5 12 -11 0 -10 65 -79 75 -79 8 0 95 -92 95
-100 0 -6 5 -10 10 -10 6 0 32 -20 58 -45 26 -25 51 -45 55 -45 5 0 31 -22 58
-49 51 -51 122 -111 133 -111 3 0 15 -8 25 -17 36 -33 50 -43 59 -43 5 0 18
-11 28 -25 10 -14 24 -25 31 -25 7 0 13 -4 13 -9 0 -5 8 -12 18 -15 11 -4 44
-31 75 -61 31 -30 59 -55 62 -55 3 0 20 -15 38 -33 17 -17 35 -31 39 -29 5 1
11 -5 14 -13 4 -8 11 -15 16 -15 6 0 28 -18 49 -40 22 -22 46 -40 54 -40 9 0
18 -7 21 -15 4 -8 12 -15 20 -15 8 0 14 -7 14 -15 0 -8 6 -15 14 -15 8 0 16
-3 18 -8 5 -13 85 -72 97 -72 6 0 11 -7 11 -15 0 -9 9 -15 25 -15 16 0 25 -6
25 -15 0 -8 5 -15 11 -15 7 0 22 -11 34 -24 12 -13 32 -27 43 -31 12 -3 22
-11 22 -16 0 -5 5 -9 10 -9 14 0 55 -38 49 -44 -8 -8 -49 5 -49 15 0 5 -7 9
-15 9 -8 0 -23 9 -32 20 -10 11 -24 20 -32 20 -8 0 -29 11 -47 25 -18 14 -38
25 -43 25 -6 0 -25 12 -42 27 -17 16 -35 29 -40 29 -5 1 -13 2 -18 3 -5 0 -11
11 -14 23 -5 18 -8 19 -21 9 -13 -11 -17 -10 -22 3 -3 9 -12 16 -19 16 -7 0
-15 7 -19 15 -3 8 -12 15 -20 15 -8 0 -27 11 -42 25 -14 13 -44 32 -65 42 -21
10 -39 23 -39 29 0 7 -8 14 -17 18 -21 6 -51 25 -71 44 -7 6 -17 12 -20 12 -4
0 -27 18 -52 40 -25 22 -58 51 -73 65 -15 14 -30 25 -33 25 -9 0 -85 61 -110
87 -12 13 -26 23 -32 23 -5 0 -32 21 -60 47 -27 27 -62 59 -79 73 -16 14 -32
33 -36 42 -3 10 -14 18 -22 18 -23 0 -47 26 -43 47 2 12 -3 17 -13 15 -8 -1
-40 20 -70 48 -30 27 -57 50 -61 50 -5 0 -8 5 -8 10 0 6 -52 63 -115 127 -63
64 -115 120 -115 124 0 4 -26 34 -57 66 -70 71 -147 161 -188 217 -16 23 -36
48 -43 56 -42 49 -63 77 -68 93 -3 9 -9 17 -13 17 -5 0 -30 33 -57 73 -26 39
-59 83 -71 97 -13 14 -23 28 -23 33 0 10 -71 111 -82 115 -4 2 -8 12 -8 23 0
10 -4 19 -9 19 -5 0 -18 17 -29 38 -44 84 -58 107 -74 126 -10 11 -21 29 -24
40 -4 11 -12 26 -18 33 -29 32 -34 42 -41 71 -3 18 -10 32 -13 32 -4 0 -17 21
-30 48 -13 26 -31 61 -42 77 -10 17 -28 57 -41 90 -12 33 -32 74 -43 90 -12
17 -27 44 -35 60 -34 76 -41 93 -60 137 -12 26 -21 52 -21 57 0 6 -4 11 -10
11 -5 0 -10 10 -10 23 0 24 -48 145 -67 168 -6 8 -14 33 -18 56 -4 24 -11 45
-16 49 -5 3 -9 15 -9 27 0 12 -7 31 -15 41 -8 11 -15 37 -15 57 0 21 -3 39 -7
41 -10 4 -39 90 -48 141 -4 20 -11 37 -16 37 -5 0 -9 17 -9 39 0 21 -7 52 -15
67 -8 16 -15 45 -15 65 0 19 -4 39 -9 45 -5 5 -11 25 -14 44 -7 46 -37 170
-47 195 -5 11 -11 49 -13 84 -3 35 -10 68 -16 74 -6 6 -11 36 -11 67 0 30 -5
71 -11 90 -6 19 -15 87 -20 150 -4 63 -12 142 -17 175 -12 86 -14 794 -2 900
6 50 14 140 18 200 5 61 12 117 17 125 6 8 13 47 17 85 9 88 31 201 46 238 7
16 12 42 12 59 0 18 4 45 9 62 29 98 41 146 47 183 3 24 10 45 15 49 5 3 9 18
9 33 0 15 5 32 10 37 21 21 29 116 13 154 l-14 35 -25 -28 c-15 -18 -24 -40
-24 -61 0 -19 -7 -39 -15 -46 -8 -7 -15 -27 -15 -46 0 -18 -4 -35 -9 -39 -6
-3 -13 -26 -17 -50 -3 -25 -10 -45 -14 -45 -4 0 -11 -27 -15 -60 -4 -33 -11
-63 -16 -66 -5 -3 -9 -23 -9 -45 0 -22 -7 -56 -15 -76 -8 -19 -15 -54 -15 -77
0 -23 -5 -47 -11 -53 -5 -5 -13 -37 -15 -69 -3 -32 -10 -70 -15 -84 -11 -30
-26 -173 -39 -375 -5 -82 -14 -194 -20 -248 -13 -112 -12 -407 2 -492 5 -32
13 -124 18 -204 13 -201 29 -353 39 -365 5 -6 12 -47 16 -91 4 -44 11 -84 15
-90 4 -5 10 -35 13 -65 5 -55 19 -126 38 -187 6 -18 14 -54 19 -80 4 -27 15
-73 24 -103 10 -30 21 -75 27 -100 5 -25 14 -46 19 -48 6 -2 10 -20 10 -41 0
-20 7 -46 15 -57 8 -10 15 -31 15 -46 0 -15 7 -44 16 -65 24 -56 32 -75 39
-100 4 -13 11 -23 17 -23 6 0 8 -10 4 -25 -4 -17 4 -43 29 -89 19 -36 35 -74
35 -85 0 -10 7 -21 15 -25 9 -3 15 -18 15 -36 0 -17 7 -38 15 -46 8 -9 15 -24
15 -34 0 -11 11 -40 25 -66 14 -26 25 -53 25 -60 0 -14 89 -195 101 -204 3 -3
14 -29 24 -58 11 -28 22 -52 25 -52 3 0 23 -34 45 -75 21 -41 42 -75 47 -75 4
0 8 -10 8 -23 0 -20 23 -65 41 -77 4 -3 18 -25 31 -51 13 -25 39 -66 56 -91
18 -26 36 -57 42 -70 17 -40 58 -96 93 -127 9 -8 17 -23 17 -32 0 -9 7 -22 15
-29 8 -7 15 -21 15 -31 0 -11 4 -19 8 -19 8 0 72 -86 72 -96 0 -7 54 -77 87
-114 13 -14 23 -29 23 -34 0 -5 10 -19 22 -31 28 -27 54 -58 92 -110 29 -39
54 -69 109 -126 15 -17 27 -34 27 -39 0 -6 7 -10 15 -10 8 0 15 -6 15 -14 0
-7 38 -53 85 -101 47 -48 85 -89 85 -91 0 -5 207 -208 239 -234 17 -14 34 -33
37 -42 3 -10 11 -18 17 -18 11 0 75 -55 174 -150 23 -22 45 -40 50 -40 4 0 21
-14 37 -30 16 -17 35 -30 43 -30 7 0 13 -4 13 -8 0 -5 21 -24 46 -42 25 -18
59 -46 75 -61 17 -16 34 -29 39 -29 6 0 10 -4 10 -9 0 -5 10 -13 23 -17 12 -4
31 -17 43 -29 11 -13 31 -26 42 -30 12 -3 22 -11 22 -16 0 -5 7 -9 15 -9 9 0
18 -7 21 -15 4 -8 11 -15 18 -15 6 0 27 -14 46 -30 19 -16 40 -34 46 -39 6 -5
20 -12 32 -15 12 -4 22 -12 22 -17 0 -5 7 -9 15 -9 9 0 18 -7 21 -15 4 -8 14
-15 24 -15 10 0 23 -7 30 -15 7 -8 17 -15 22 -15 10 0 31 -16 55 -42 9 -9 23
-14 31 -10 8 3 20 -1 26 -9 14 -17 45 -37 69 -45 9 -4 17 -10 17 -14 0 -5 10
-12 23 -16 12 -4 35 -17 50 -30 16 -13 39 -24 52 -24 13 0 27 -5 30 -11 4 -5
17 -15 28 -20 12 -5 38 -19 57 -30 67 -41 105 -59 122 -59 10 0 18 -4 18 -10
0 -5 9 -10 19 -10 11 0 26 -6 33 -13 17 -16 116 -64 151 -72 15 -4 27 -11 27
-16 0 -5 10 -9 23 -9 13 0 32 -7 43 -15 10 -8 29 -15 42 -15 12 0 25 -7 28
-15 4 -8 17 -15 29 -15 32 0 56 -10 49 -21 -3 -5 11 -9 30 -9 20 0 36 -4 36
-9 0 -5 16 -12 35 -15 19 -4 35 -11 35 -16 0 -6 14 -10 30 -10 18 0 33 -6 36
-15 4 -9 20 -15 43 -15 20 0 45 -7 55 -15 11 -8 30 -15 43 -15 13 0 23 -4 23
-9 0 -5 19 -12 42 -16 23 -4 49 -11 58 -16 8 -4 49 -17 90 -29 41 -12 83 -25
92 -31 10 -5 38 -9 62 -9 25 0 46 -5 48 -12 2 -6 30 -13 61 -16 31 -2 54 -8
52 -12 -3 -5 18 -11 46 -15 28 -4 63 -13 77 -21 15 -8 44 -14 65 -14 22 0 40
-5 43 -13 4 -10 19 -13 52 -9 36 3 51 0 61 -12 9 -10 29 -16 60 -16 26 0 52
-5 57 -10 6 -6 35 -13 65 -17 30 -3 59 -9 65 -14 9 -8 41 -13 227 -39 39 -6
85 -15 101 -20 16 -6 69 -10 118 -10 49 0 99 -5 111 -12 27 -14 337 -31 577
-32 224 0 559 19 573 33 6 6 49 11 99 11 56 0 102 6 125 15 19 8 62 15 94 15
33 0 59 4 59 10 0 6 19 10 43 10 23 0 60 5 82 11 22 6 65 15 95 20 30 6 59 14
65 20 5 5 27 9 50 9 22 0 49 6 60 14 11 8 43 16 70 19 71 6 177 26 200 36 11
5 42 12 70 14 27 3 51 10 53 16 2 6 23 11 47 11 24 0 56 6 72 14 15 8 55 19
88 26 120 23 185 39 217 54 18 8 50 17 71 21 20 3 37 10 37 15 0 6 15 10 33
10 18 0 42 7 53 15 10 8 33 15 50 15 17 0 37 7 44 15 7 8 25 15 41 15 16 0 29
4 29 9 0 5 20 12 45 15 24 4 47 11 50 17 4 5 16 9 29 9 12 0 31 7 42 15 10 8
30 15 44 15 14 0 38 7 54 15 15 8 33 15 38 15 5 0 16 7 24 15 9 8 27 15 42 15
15 0 36 7 46 15 11 8 30 15 42 15 20 0 72 22 156 66 14 8 31 14 37 14 6 0 48
18 94 39 45 22 94 43 110 46 15 4 27 11 27 16 0 5 9 9 19 9 18 0 141 57 151
71 3 3 17 9 33 13 15 3 27 11 27 16 0 6 6 10 13 10 20 0 107 70 107 86 0 38
-65 58 -94 28 -10 -9 -24 -13 -36 -9 -14 4 -20 2 -20 -9 0 -8 -13 -17 -29 -21
-16 -3 -35 -13 -42 -21 -6 -8 -24 -14 -39 -14 -16 0 -30 -7 -34 -15 -3 -8 -15
-15 -26 -15 -11 0 -28 -4 -38 -10 -9 -5 -35 -16 -57 -25 -22 -9 -53 -23 -68
-31 -16 -8 -37 -14 -47 -14 -9 0 -23 -7 -30 -15 -7 -8 -23 -15 -36 -15 -12 0
-25 -4 -29 -9 -3 -5 -19 -12 -35 -16 -17 -4 -30 -11 -30 -16 0 -5 -10 -9 -23
-9 -13 0 -32 -7 -43 -15 -10 -8 -36 -15 -56 -15 -27 0 -38 -4 -38 -15 0 -19
-56 -21 -63 -2 -2 6 -8 8 -13 4 -5 -4 -2 -12 6 -18 13 -8 13 -10 0 -19 -8 -6
-24 -8 -36 -5 -12 3 -27 -3 -37 -15 -9 -11 -28 -20 -42 -20 -25 0 -31 -2 -93
-33 -19 -9 -44 -17 -57 -17 -12 0 -25 -7 -29 -15 -3 -9 -18 -15 -40 -15 -18 0
-47 -7 -62 -15 -16 -8 -37 -15 -46 -15 -10 0 -18 -4 -18 -10 0 -5 -15 -10 -32
-9 -30 0 -31 1 -10 9 12 5 22 14 22 20 0 5 9 10 21 10 11 0 27 7 35 15 9 8 29
15 45 15 16 0 29 5 29 10 0 6 7 10 15 10 9 0 18 7 21 15 4 8 15 15 26 15 10 0
45 13 78 29 32 16 73 32 91 36 19 4 43 15 54 25 11 9 41 25 67 35 26 10 53 24
59 31 14 17 36 18 41 2 3 -7 12 -9 22 -5 14 6 16 10 7 21 -14 16 -4 26 26 26
12 0 23 4 23 9 0 5 13 12 30 16 16 4 32 11 35 16 4 5 14 9 24 9 10 0 24 7 31
15 7 8 20 15 30 15 10 0 20 7 24 15 3 8 15 15 26 15 12 0 28 7 36 15 9 8 24
15 35 15 10 0 19 5 19 10 0 6 11 10 25 10 14 0 25 4 25 10 0 5 11 12 25 16 13
3 29 12 36 20 6 8 20 14 30 14 11 0 19 4 19 9 0 5 14 12 30 16 17 4 30 10 30
15 0 5 10 12 23 15 33 10 87 39 87 47 0 5 11 8 24 8 13 0 26 7 30 15 3 8 15
15 26 15 11 0 20 4 20 10 0 5 11 12 25 16 13 3 29 12 36 20 6 8 19 14 29 14
10 0 23 7 30 15 7 8 19 15 27 15 7 0 26 11 41 25 15 14 34 25 44 25 9 0 21 6
25 13 4 8 21 22 36 32 33 21 35 67 4 73 -22 4 -79 -21 -124 -54 -17 -13 -36
-24 -41 -24 -5 0 -15 -7 -22 -15 -7 -8 -20 -15 -30 -15 -10 0 -20 -7 -24 -15
-3 -8 -12 -15 -20 -15 -13 0 -74 -28 -86 -40 -3 -3 -25 -15 -50 -28 -25 -13
-58 -32 -75 -42 -16 -10 -38 -19 -48 -19 -10 -1 -20 -7 -23 -15 -3 -8 -16 -17
-30 -20 -13 -4 -24 -11 -24 -16 0 -6 -8 -10 -17 -10 -18 0 -250 -113 -268
-131 -5 -5 -17 -9 -26 -9 -9 0 -22 -7 -29 -15 -7 -8 -20 -15 -30 -15 -10 0
-23 -7 -30 -15 -13 -15 -50 -21 -50 -7 0 16 17 31 43 37 15 4 27 11 27 15 0 4
16 11 35 14 19 4 35 11 35 16 0 6 9 10 19 10 11 0 26 7 35 15 8 8 23 15 34 15
11 0 25 7 32 15 7 8 17 15 22 15 5 0 24 11 42 25 18 14 40 25 50 25 9 0 19 7
22 15 4 8 14 15 24 15 10 0 25 7 34 15 8 8 24 15 35 15 12 0 21 6 21 15 0 8 9
15 19 15 11 0 22 4 25 9 3 5 18 12 33 16 15 3 37 17 50 31 12 13 31 24 41 24
11 0 22 7 26 15 3 8 15 15 26 15 11 0 20 3 20 8 0 4 20 18 45 32 25 14 45 28
45 32 0 5 7 8 15 8 8 0 15 4 15 9 0 5 14 14 30 20 17 5 30 14 30 19 0 6 11 13
25 16 14 4 25 11 25 16 0 6 5 10 11 10 5 0 42 24 82 53 40 29 83 60 97 68 14
9 38 28 53 43 15 14 32 26 38 26 14 0 94 58 135 98 7 6 15 12 18 12 3 0 16 10
29 23 32 31 107 91 117 95 5 2 26 20 48 40 88 84 164 152 170 152 3 0 54 49
112 108 58 60 114 111 123 115 10 4 20 14 24 23 3 9 37 47 75 85 37 37 68 72
68 76 1 18 49 41 100 46 118 14 158 25 245 68 78 38 105 59 198 153 59 59 120
124 135 144 32 42 106 117 153 154 l34 26 -27 10 c-14 6 -29 16 -33 21 -3 6
-15 11 -26 11 -11 0 -27 7 -35 15 -9 8 -30 15 -48 15 -17 0 -37 5 -43 11 -5 5
-35 13 -65 16 l-55 5 34 52 c19 28 39 52 43 54 5 2 6 10 3 18 -3 7 2 16 10 20
9 3 19 19 22 35 4 16 10 29 15 29 4 0 10 8 14 18 6 18 27 54 37 62 3 3 13 19
22 35 15 28 23 45 69 140 10 22 23 47 27 55 5 8 17 32 27 53 10 20 22 37 26
37 5 0 8 15 8 34 0 18 7 39 15 46 8 7 15 19 15 26 0 8 9 23 21 35 13 13 18 27
14 40 -4 11 0 25 9 35 9 8 16 26 16 39 0 13 5 27 10 30 6 3 10 19 10 35 0 15
7 30 15 34 8 3 15 16 15 28 1 13 7 34 15 48 8 14 14 34 15 44 0 11 6 27 13 35
8 9 21 51 30 94 17 82 33 107 66 107 11 0 24 6 28 13 10 16 49 37 68 37 8 0
15 6 15 13 0 8 11 19 25 25 14 7 28 19 32 29 4 9 24 34 45 55 21 21 38 46 38
57 0 10 7 24 15 31 8 7 15 21 15 30 0 10 5 20 11 22 6 2 13 25 16 51 3 25 9
44 14 42 4 -3 10 21 14 52 3 32 10 66 15 75 6 10 10 48 10 85 1 38 6 102 11
143 6 41 13 93 16 115 3 22 12 48 20 57 8 9 13 25 11 35 -3 16 -13 18 -78 15
-41 -1 -79 -7 -84 -12 -6 -6 -20 -10 -33 -10 -27 0 -32 33 -9 66 8 11 16 49
19 84 7 87 25 222 37 289 15 82 12 600 -4 691 -14 78 -8 110 20 110 21 0 104
80 104 100 0 9 5 21 12 28 32 32 42 89 48 292 3 113 10 214 14 225 11 31 -28
64 -54 47 -11 -7 -32 -12 -48 -12 -15 0 -37 -7 -48 -15 -10 -8 -31 -15 -45
-15 -15 0 -32 -7 -39 -15 -7 -8 -19 -15 -26 -15 -8 0 -14 -4 -14 -10 0 -5 -11
-12 -24 -16 -14 -3 -27 -12 -30 -20 -8 -21 -26 -17 -26 5 0 11 -4 23 -10 26
-5 3 -10 14 -10 23 0 9 -7 30 -15 46 -8 15 -15 36 -15 45 0 10 -7 26 -15 37
-8 10 -15 31 -15 45 0 15 -7 32 -15 39 -10 8 -15 30 -15 64 0 30 -6 60 -15 72
-8 10 -15 27 -15 38 0 10 -11 29 -25 42 -14 13 -25 28 -25 35 0 6 -13 28 -30
49 -16 21 -30 45 -30 54 0 9 -4 16 -10 16 -5 0 -12 11 -16 25 -3 14 -10 25
-14 25 -5 0 -12 15 -15 33 -4 17 -17 48 -29 67 -34 56 -44 74 -57 98 -20 36
-53 25 -57 -18 -4 -38 14 -106 35 -131 7 -8 13 -21 13 -27 0 -7 4 -12 9 -12 5
0 14 -13 19 -30 l11 -30 -127 2 c-112 2 -134 0 -190 -21 -55 -21 -62 -26 -56
-45 4 -11 14 -26 23 -32 27 -20 68 -60 72 -71 13 -36 125 -152 184 -191 22
-15 46 -33 53 -39 7 -7 38 -13 68 -13 30 0 54 -4 54 -10 0 -5 11 -10 25 -10
14 0 25 5 25 10 0 6 10 10 23 10 25 -1 57 -58 57 -102 0 -14 7 -28 15 -32 8
-3 15 -18 15 -33 0 -15 7 -37 15 -47 8 -11 15 -30 15 -42 0 -13 5 -34 11 -48
9 -20 7 -33 -15 -79 -23 -49 -26 -69 -26 -157 0 -55 4 -108 10 -118 5 -9 16
-35 25 -57 9 -22 21 -47 26 -55 5 -8 13 -25 19 -37 8 -20 17 -23 60 -23 l50 0
0 -47 c0 -27 7 -61 15 -77 20 -37 20 -195 0 -376 -8 -74 -15 -170 -15 -212 0
-42 -5 -89 -12 -105 -10 -25 -19 -103 -34 -305 -4 -40 -11 -72 -20 -79 -8 -6
-14 -22 -14 -36 0 -13 -8 -27 -17 -31 -42 -18 -93 -55 -93 -68 0 -8 -9 -14
-20 -14 -21 0 -131 -109 -164 -162 -11 -18 -24 -34 -28 -36 -5 -2 -8 -11 -8
-21 0 -9 -7 -26 -15 -37 -8 -10 -15 -30 -15 -45 0 -14 -6 -31 -12 -37 -9 -9
-15 -61 -18 -157 -3 -95 -9 -148 -18 -157 -6 -6 -12 -18 -12 -26 0 -8 -10 -28
-22 -45 -23 -32 -60 -98 -98 -174 -11 -24 -25 -43 -30 -43 -6 0 -10 -9 -10
-19 0 -11 -4 -23 -10 -26 -15 -9 -12 36 5 69 8 15 15 37 15 47 0 11 7 22 15
25 9 4 15 19 15 41 0 19 5 43 11 54 8 16 15 52 18 102 1 5 6 5 11 2 6 -4 10
11 10 37 1 24 7 54 15 68 8 14 14 37 15 51 0 15 7 43 15 62 8 20 15 54 15 75
0 21 3 42 8 46 8 9 29 125 41 240 5 43 14 83 20 89 6 6 11 47 11 91 0 81 17
178 47 269 19 58 15 259 -5 279 -15 15 -17 224 -2 233 7 4 -4 21 -25 41 -37
34 -55 42 -55 24 0 -5 -7 -10 -15 -10 -8 0 -15 -7 -15 -16 0 -22 -23 -12 -35
14 -5 12 -13 22 -17 22 -14 0 -48 34 -48 47 0 7 -7 13 -15 13 -8 0 -15 5 -15
10 0 6 -7 10 -15 10 -8 0 -15 5 -15 10 0 6 -10 15 -22 21 -13 5 -34 16 -47 24
-35 20 -51 9 -51 -35 0 -22 -4 -41 -9 -44 -4 -3 -11 -31 -14 -62 -3 -31 -11
-62 -16 -67 -6 -6 -11 -22 -11 -36 0 -15 -7 -35 -15 -45 -8 -11 -15 -34 -15
-50 0 -17 -7 -49 -15 -71 -20 -57 -20 -312 0 -339 8 -11 15 -34 15 -52 0 -19
6 -34 15 -38 8 -3 15 -15 15 -26 0 -28 40 -77 119 -143 24 -21 30 -32 22 -40
-6 -6 -11 -28 -11 -48 0 -21 -4 -41 -10 -44 -5 -3 -10 -23 -10 -44 0 -20 -7
-46 -15 -57 -8 -10 -15 -34 -15 -52 0 -18 -7 -40 -15 -48 -8 -9 -15 -29 -15
-45 0 -16 -4 -29 -9 -29 -4 0 -11 -18 -14 -41 -3 -22 -12 -48 -21 -58 -9 -10
-13 -26 -10 -38 4 -12 -1 -32 -10 -45 -9 -12 -16 -35 -16 -50 0 -15 -4 -29 -9
-33 -5 -3 -12 -19 -16 -36 -4 -17 -13 -42 -21 -57 -8 -15 -14 -35 -14 -44 0
-10 -4 -18 -10 -18 -5 0 -10 -12 -10 -26 0 -14 -6 -38 -13 -52 -8 -15 -21 -42
-30 -60 -9 -19 -17 -42 -17 -51 0 -24 -28 -47 -67 -56 -18 -3 -35 -11 -38 -16
-4 -5 -17 -9 -31 -9 -14 0 -27 -7 -30 -15 -4 -8 -12 -15 -20 -15 -17 0 -83
-40 -108 -65 -25 -25 -33 -9 -13 24 9 16 17 41 17 55 0 14 3 26 8 26 15 0 72
173 72 219 0 37 28 61 73 61 20 0 37 4 37 9 0 5 12 12 26 15 42 11 114 79 139
133 9 18 20 35 25 38 6 3 10 17 10 30 0 13 5 25 10 27 16 5 52 210 43 246 -3
12 -1 28 5 35 5 6 14 33 19 58 9 41 6 63 -12 87 -1 1 -21 -5 -45 -13 -24 -8
-51 -13 -61 -10 -10 3 -21 0 -26 -8 -4 -8 -21 -16 -38 -19 -16 -3 -37 -7 -45
-9 -22 -6 -25 56 -6 129 23 85 23 707 1 832 -8 47 -15 105 -15 130 0 68 -9 92
-31 85 -12 -4 -21 -1 -25 9 -4 9 -18 16 -33 16 -24 0 -29 -6 -44 -52 -11 -36
-13 -54 -6 -59 7 -4 9 -29 5 -70 -3 -35 -10 -122 -15 -194 -4 -71 -13 -143
-20 -158 -6 -16 -11 -68 -11 -117 0 -49 -4 -91 -9 -95 -5 -3 -18 5 -28 17 -26
33 -142 131 -185 157 -21 12 -48 21 -60 19 -21 -3 -23 -9 -25 -73 -1 -39 -6
-71 -12 -73 -6 -2 -11 -20 -11 -40 0 -20 -7 -50 -15 -66 -8 -15 -15 -40 -15
-55 0 -15 -5 -32 -11 -38 -11 -11 -17 -31 -40 -143 -6 -30 -15 -63 -20 -72
-13 -25 -12 -238 1 -238 6 0 10 -25 10 -55 0 -31 6 -66 14 -78 8 -12 17 -38
21 -57 8 -35 27 -66 78 -121 28 -31 35 -74 17 -107 -11 -21 -34 -76 -49 -117
-9 -26 -10 -23 -7 25 3 30 6 66 8 80 4 29 -13 33 -54 13 -15 -7 -36 -13 -46
-13 -11 0 -25 -7 -32 -15 -7 -8 -19 -15 -27 -15 -15 0 -32 -12 -73 -52 -16
-16 -33 -28 -39 -28 -6 0 -11 -4 -11 -10 0 -5 -6 -7 -14 -4 -8 3 -17 1 -21 -5
-3 -6 -1 -11 4 -11 6 0 11 -7 11 -15 0 -8 -4 -15 -10 -15 -5 0 -10 5 -10 10 0
6 -7 10 -15 10 -18 0 -20 -17 -2 -23 7 -2 8 -8 3 -13 -5 -5 -11 -4 -13 4 -3 6
-11 12 -19 12 -8 0 -14 5 -14 10 0 6 -5 10 -10 10 -10 0 8 -40 23 -51 5 -3 -1
-21 -12 -40 -12 -19 -24 -42 -27 -51 -9 -26 -17 -23 -55 20 -19 20 -56 55 -84
77 -27 22 -51 43 -53 47 -2 5 -15 8 -28 8 -13 0 -24 4 -24 8 0 8 -35 25 -129
62 -86 33 -87 33 -83 -129 3 -97 0 -147 -9 -163 -8 -16 -12 -68 -10 -170 1
-97 -1 -148 -8 -148 -6 0 -2 -15 8 -32 10 -18 20 -53 24 -77 3 -24 10 -47 15
-50 5 -3 11 -22 15 -42 4 -31 1 -38 -24 -55 -16 -10 -29 -22 -29 -25 0 -3 -27
-35 -61 -70 -33 -35 -63 -68 -67 -72 -19 -23 -260 -251 -290 -275 -61 -46
-135 -111 -187 -160 -27 -26 -70 -63 -95 -82 -25 -19 -46 -38 -48 -42 -2 -5
-10 -8 -17 -8 -7 0 -15 -7 -19 -15 -3 -8 -11 -15 -18 -15 -7 0 -35 -21 -61
-45 -27 -25 -53 -45 -58 -45 -9 0 -87 -50 -134 -85 -86 -64 -167 -118 -213
-141 -19 -10 -36 -23 -39 -31 -3 -7 -16 -13 -29 -13 -20 0 1 25 118 144 211
213 260 274 235 295 -13 10 -38 14 -73 12 -22 -1 -174 -142 -174 -161 0 -5 -4
-10 -9 -10 -5 0 -26 -16 -47 -35 -21 -19 -41 -35 -45 -35 -4 0 -10 -9 -14 -19
-3 -11 -14 -22 -23 -25 -10 -3 -40 -27 -67 -52 -28 -26 -67 -58 -87 -71 -21
-14 -38 -30 -38 -34 0 -5 -7 -9 -15 -9 -8 0 -15 -4 -15 -9 0 -5 -10 -13 -22
-16 -11 -4 -31 -17 -42 -29 -12 -12 -46 -34 -78 -49 -31 -15 -69 -40 -85 -56
-16 -15 -39 -31 -51 -35 -12 -4 -22 -12 -22 -17 0 -5 -5 -9 -11 -9 -6 0 -31
-13 -56 -30 -24 -16 -51 -30 -59 -30 -7 0 -14 -4 -14 -9 0 -5 -11 -12 -25 -15
-14 -4 -25 -11 -25 -16 0 -6 -9 -10 -19 -10 -11 0 -26 -7 -35 -15 -8 -8 -24
-15 -36 -15 -11 0 -23 -7 -26 -15 -4 -9 -19 -15 -35 -15 -16 0 -29 -4 -29 -8
0 -9 -81 -52 -99 -52 -6 0 -11 -4 -11 -10 0 -5 -8 -10 -19 -10 -10 0 -32 -7
-47 -15 -16 -8 -36 -15 -44 -15 -8 0 -24 -7 -34 -15 -11 -8 -28 -15 -37 -15
-10 0 -30 -6 -46 -14 -39 -20 -69 -30 -138 -51 -33 -9 -78 -23 -100 -31 -23
-8 -54 -14 -71 -14 -16 0 -34 -4 -40 -10 -5 -5 -32 -12 -59 -16 -28 -3 -59
-10 -70 -14 -23 -10 -126 -28 -230 -40 -38 -5 -90 -13 -115 -19 -25 -6 -70
-11 -100 -11 -30 0 -71 -5 -90 -12 -58 -19 -624 -45 -643 -30 -7 5 -63 11
-126 11 -112 2 -131 6 -201 45 -77 43 -182 63 -334 65 -131 2 -193 9 -202 22
-3 5 -15 9 -27 9 -12 0 -35 7 -51 15 -15 8 -40 15 -55 15 -14 0 -39 7 -55 15
-15 8 -36 15 -46 15 -10 0 -31 7 -46 15 -16 8 -37 15 -46 15 -10 0 -18 5 -18
10 0 6 -9 10 -19 10 -31 0 -51 11 -51 28 0 24 -43 82 -61 82 -9 0 -22 7 -29
15 -7 8 -20 15 -30 15 -10 0 -23 7 -30 15 -7 8 -25 15 -41 15 -15 0 -31 5 -34
10 -3 5 -1 10 4 10 6 0 11 8 11 17 0 13 -3 14 -12 5 -14 -14 -68 -16 -68 -2 0
6 -8 10 -17 10 -10 0 -45 14 -78 30 -33 17 -66 30 -75 30 -8 0 -24 7 -34 15
-11 8 -30 15 -43 15 -13 0 -23 4 -23 8 0 5 -19 17 -42 27 -24 10 -78 38 -122
62 -43 23 -87 43 -97 43 -11 0 -19 4 -19 8 0 4 -25 21 -55 37 -30 15 -62 40
-71 54 -10 14 -23 30 -31 34 -7 4 -13 14 -13 21 0 7 -11 19 -25 26 -14 7 -25
17 -25 22 0 5 -12 22 -27 38 -16 15 -35 37 -43 49 -8 12 -31 39 -50 60 -33 36
-95 106 -160 181 -16 19 -30 38 -30 43 0 4 -7 7 -15 7 -18 0 -20 27 -2 33 7 2
8 8 3 13 -5 5 -11 4 -13 -3 -6 -16 -23 -17 -23 -3 0 6 -11 21 -25 34 -14 13
-25 27 -25 32 0 5 -14 22 -31 38 -19 18 -29 36 -26 47 3 11 0 16 -8 12 -21 -7
-54 31 -43 51 7 12 5 16 -12 16 -11 0 -24 8 -27 17 -4 10 -16 27 -27 38 -12
12 -43 54 -71 95 -27 41 -60 86 -73 100 -12 14 -25 33 -28 43 -3 9 -10 17 -15
17 -5 0 -9 7 -9 15 0 8 -3 15 -8 15 -4 0 -16 17 -27 37 -11 20 -32 50 -47 65
-16 16 -28 35 -28 44 0 8 -6 17 -13 20 -7 2 -22 25 -32 49 -11 25 -23 45 -27
45 -4 0 -12 18 -18 40 -6 24 -17 40 -26 40 -8 0 -17 8 -20 18 -10 31 -39 86
-51 100 -7 7 -13 22 -13 31 0 10 -7 24 -15 31 -8 7 -15 19 -15 26 0 8 -4 14
-10 14 -5 0 -10 9 -10 19 0 11 -4 22 -9 25 -14 9 -71 126 -71 147 0 11 -7 22
-15 25 -8 3 -17 21 -21 40 -3 19 -10 37 -15 40 -5 3 -9 14 -9 25 0 10 -4 19
-9 19 -5 0 -12 13 -16 30 -4 16 -11 32 -16 35 -5 4 -9 14 -9 23 0 9 -6 29 -14
44 -8 15 -17 40 -21 57 -4 17 -11 33 -16 36 -5 4 -9 15 -9 26 0 11 -7 22 -15
25 -8 4 -15 14 -15 23 0 18 -33 50 -72 70 -40 21 -78 2 -78 -38 0 -65 -32 -35
-45 42 -3 20 -10 37 -15 37 -6 0 -10 29 -10 65 0 36 -7 82 -15 102 -10 22 -15
68 -15 127 0 52 -7 112 -15 140 -11 34 -15 95 -15 202 0 91 -4 155 -10 159 -5
3 -10 22 -10 41 0 27 -9 44 -46 81 l-46 48 0 460 c1 396 3 465 16 497 10 24
16 67 16 118 0 45 5 91 11 102 6 11 13 56 16 99 3 44 10 79 14 79 5 0 9 19 9
43 1 23 7 60 15 82 8 22 15 60 15 85 0 25 7 54 15 64 8 11 15 31 15 45 0 14 7
44 15 66 8 22 14 55 15 73 0 17 4 32 9 32 5 0 12 21 16 47 4 26 13 56 21 67 8
11 14 33 14 48 0 15 5 30 10 33 6 3 10 21 10 38 0 18 7 41 15 51 8 11 15 32
15 46 0 14 7 35 15 46 8 10 15 29 15 42 0 12 4 22 9 22 5 0 11 18 15 40 3 22
11 40 16 40 6 0 10 7 10 15 0 8 13 44 30 78 16 35 30 73 30 85 0 11 3 22 8 24
13 6 72 137 72 162 0 13 7 26 15 30 8 3 15 11 15 18 0 8 12 25 28 39 28 26 82
88 82 95 0 2 43 45 95 97 52 51 95 98 95 104 0 6 7 16 16 23 9 8 14 25 12 44
-4 40 -40 47 -74 15 -13 -12 -27 -19 -31 -16 -9 10 36 99 58 115 10 6 20 26
24 42 4 17 11 30 16 30 5 0 9 7 9 15 0 9 7 18 15 21 8 4 15 15 15 25 0 11 7
22 15 25 8 4 15 10 15 16 0 5 11 21 25 36 14 15 25 32 25 39 0 6 6 18 13 25 7
7 21 27 31 43 11 17 25 34 33 38 7 4 13 14 13 21 0 7 13 26 30 42 16 16 30 35
30 42 0 6 3 12 8 12 7 0 25 30 38 63 3 9 13 17 20 17 8 0 14 5 14 10 0 6 11
23 25 38 15 15 42 48 63 75 20 26 41 47 47 47 15 1 47 49 40 60 -3 6 -1 10 4
10 6 0 11 7 11 15 0 8 7 15 15 15 8 0 15 5 15 10 0 6 11 21 25 34 14 13 25 28
25 35 0 6 5 11 10 11 12 0 110 100 110 113 0 4 5 5 10 2 6 -3 10 -1 10 4 0 14
37 51 50 51 6 0 10 5 10 10 0 6 11 15 25 20 15 6 25 17 25 30 0 11 7 20 15 20
8 0 15 7 15 15 0 8 5 15 11 15 11 0 69 60 69 72 0 5 5 8 10 8 6 0 47 36 92 80
44 44 84 80 88 80 3 0 20 -15 36 -32 43 -48 105 -94 137 -102 15 -3 27 -11 27
-16 0 -6 11 -10 25 -10 14 0 25 -4 25 -8 0 -11 98 -39 180 -53 36 -5 152 -13
257 -17 130 -5 197 -12 205 -20 7 -7 29 -12 50 -12 35 0 38 2 38 29 0 17 -4
33 -10 36 -5 3 -10 22 -10 40 0 19 -7 51 -16 72 -44 105 -91 191 -129 238 -42
51 -42 53 -24 69 11 9 32 16 48 16 17 0 31 6 35 16 4 10 13 13 26 9 15 -5 18
-3 14 9 -8 20 23 33 39 17 14 -14 37 -15 37 -1 0 6 -7 10 -15 10 -23 0 -18 15
12 36 43 31 83 74 83 89 0 8 7 15 15 15 8 0 15 5 15 10 0 6 15 35 34 64 25 40
31 57 23 65 -6 6 -46 11 -92 11 -75 0 -105 9 -105 32 0 4 20 8 44 8 24 0 57 7
72 15 43 22 129 20 154 -5 11 -11 20 -24 20 -30 0 -5 4 -10 10 -10 5 0 29 -20
53 -44 48 -47 135 -96 172 -96 13 0 25 -5 27 -12 2 -6 31 -13 66 -16 34 -2 65
-8 68 -13 7 -12 206 -11 238 1 15 5 63 13 109 16 45 4 88 12 96 18 8 6 65 11
142 11 72 0 132 4 138 10 9 9 -6 50 -42 110 -7 11 -27 45 -44 76 -18 31 -48
72 -67 92 -40 43 -46 56 -35 78 6 11 2 24 -11 39 -11 13 -20 29 -20 37 0 9
-16 13 -56 13 -41 0 -70 8 -117 31 -34 16 -66 34 -72 38 -5 5 -21 11 -35 14
-20 4 -83 25 -98 33 -3 2 21 55 76 172 30 64 23 77 -40 68 -23 -4 -119 -7
-213 -7 -149 -1 -174 -3 -203 -20 -18 -10 -39 -19 -46 -19 -21 0 -116 -63
-116 -77 0 -7 -7 -13 -15 -13 -8 0 -15 -7 -15 -15 0 -8 -4 -15 -10 -15 -5 0
-12 -11 -16 -25 -3 -13 -12 -29 -20 -36 -9 -7 -14 -32 -14 -70 l0 -59 -69 0
c-38 0 -82 -4 -96 -10 -14 -5 -59 -13 -98 -16 -40 -3 -81 -9 -92 -14 -30 -13
-105 -19 -105 -9 0 5 3 9 8 9 16 0 132 121 132 138 0 5 7 12 15 16 8 3 15 13
15 22 0 9 11 27 25 40 14 13 25 32 25 42 0 11 6 25 14 32 8 6 16 26 18 43 2
26 8 33 28 35 14 2 39 10 57 18 17 8 38 14 46 14 9 0 19 5 22 10 3 6 19 10 34
10 16 0 45 7 64 15 20 8 50 15 67 15 17 0 38 4 48 9 20 10 109 30 169 38 23 3
47 11 54 19 6 8 28 14 49 14 21 0 61 8 90 17 36 12 57 14 68 7 11 -8 26 -5 53
8 43 20 62 22 88 9 19 -10 96 4 119 22 9 7 12 -4 12 -52 0 -46 4 -63 15 -67 8
-4 15 -12 15 -19 0 -21 93 -112 138 -135 23 -12 45 -26 48 -31 3 -5 15 -9 27
-9 12 0 31 -7 41 -15 11 -9 41 -15 68 -15 27 0 48 -5 48 -11 0 -18 341 8 362
29 15 15 189 17 204 2 12 -12 54 15 54 36 0 15 -21 56 -63 121 -15 24 -27 46
-27 51 0 10 -105 122 -114 122 -6 0 -25 15 -89 73 -17 15 -43 30 -57 34 -14 3
-34 12 -45 19 -11 8 -29 14 -40 14 -12 0 -26 5 -32 11 -7 7 -56 14 -110 17
-83 4 -101 2 -112 -12 -7 -9 -26 -16 -40 -16 -15 0 -36 -7 -47 -15 -10 -8 -29
-15 -41 -15 -12 0 -25 -4 -28 -10 -3 -5 -14 -10 -23 -10 -10 0 -34 -9 -55 -20
-44 -24 -57 -25 -57 -6 0 8 -7 22 -16 30 -13 14 -53 16 -282 16 -151 0 -282
-4 -302 -10 -19 -6 -88 -13 -152 -17 -65 -3 -118 -10 -118 -15 0 -4 -19 -8
-42 -9 -24 0 -65 -5 -93 -10 -27 -5 -81 -14 -120 -20 -38 -5 -71 -14 -73 -19
-2 -6 -27 -10 -55 -10 -29 0 -65 -7 -81 -15 -15 -8 -48 -15 -72 -15 -24 0 -44
-4 -44 -10 0 -5 -9 -10 -19 -10 -23 0 -35 28 -20 46 12 14 16 175 5 193 -11
17 2 48 22 54 26 9 144 76 162 92 9 8 30 15 46 15 16 1 40 7 54 15 14 8 44 14
68 15 23 0 42 4 42 9 0 4 30 11 67 14 37 4 71 11 77 17 5 5 18 10 28 10 15 0
18 -9 18 -54 0 -56 16 -86 46 -86 8 0 14 -4 14 -10 0 -5 11 -12 25 -16 14 -3
25 -10 25 -15 0 -5 8 -9 18 -9 9 0 30 -7 46 -15 15 -8 45 -15 65 -15 20 0 49
-7 65 -15 37 -20 91 -19 206 4 91 17 128 31 158 59 7 6 20 12 28 12 8 0 14 5
14 10 0 6 6 10 13 10 7 0 27 14 45 30 18 17 35 30 38 30 4 0 62 59 100 101 11
13 29 39 39 57 l19 32 104 0 c57 0 111 -4 121 -9 10 -6 40 -11 67 -12 27 -1
59 -8 71 -15 12 -8 37 -14 55 -14 18 0 46 -7 62 -15 15 -8 39 -15 53 -15 14 0
57 -11 96 -24 40 -14 92 -28 117 -31 25 -4 50 -11 55 -16 14 -10 88 -30 140
-36 22 -3 45 -11 50 -18 6 -7 40 -21 75 -30 36 -10 69 -22 75 -26 5 -5 15 -9
23 -9 14 0 67 -21 114 -46 14 -8 34 -14 45 -14 21 -1 53 -23 53 -38 0 -5 -7
-13 -16 -16 -12 -5 -15 -17 -12 -59 5 -54 27 -144 41 -162 4 -5 16 -21 27 -34
11 -13 20 -28 20 -32 0 -5 12 -21 26 -36 14 -15 57 -62 95 -103 38 -41 69 -81
69 -87 0 -7 12 -13 28 -13 23 0 31 7 51 53 13 28 28 62 33 73 6 12 11 70 13
130 2 60 4 112 4 115 1 4 15 9 32 13 26 5 30 10 27 33 -2 21 -12 33 -38 45
-19 9 -40 22 -47 27 -7 6 -15 11 -19 11 -4 0 -21 15 -39 33 -43 42 -62 57 -74
57 -5 0 -11 7 -15 15 -3 8 -14 15 -24 15 -11 0 -25 7 -32 15 -9 11 -32 15 -81
15 -38 0 -77 4 -87 9 -42 20 -89 40 -109 46 -38 11 -19 45 25 45 12 0 22 4 22
9 0 5 12 12 26 15 28 8 88 66 131 129 15 23 30 44 33 47 3 3 14 25 24 50 10
25 25 60 33 77 24 49 6 64 -71 63 -83 -1 -188 10 -204 23 -19 15 -228 15 -243
0 -7 -7 -20 -13 -29 -13 -42 0 -180 -105 -180 -136 0 -7 -5 -14 -10 -16 -6 -2
-13 -33 -16 -69 l-7 -65 -31 4 c-17 3 -37 9 -45 15 -12 11 -43 16 -189 36 -35
5 -69 14 -75 20 -6 6 -40 11 -76 11 -37 1 -84 7 -106 15 -22 8 -76 15 -121 15
-73 0 -82 2 -87 20 -3 11 1 23 7 28 7 4 16 25 19 46 4 22 10 42 15 45 16 11
22 42 12 62 -13 23 -20 23 -38 4z m-2180 -735 c-12 -11 -26 -20 -32 -20 -5 0
-10 -5 -10 -10 0 -6 -11 -15 -25 -20 -14 -5 -25 -14 -25 -20 0 -5 -7 -10 -15
-10 -9 0 -18 -7 -21 -15 -4 -8 -11 -15 -16 -15 -6 0 -24 -12 -41 -26 -22 -19
-32 -22 -38 -13 -4 7 -3 21 2 32 6 10 8 25 5 32 -3 8 3 17 15 20 10 4 19 11
19 16 0 5 14 9 30 9 18 0 33 6 36 15 4 8 16 15 29 15 12 0 36 7 51 15 43 22
63 19 36 -5z m2644 -19 c-3 -5 -15 -7 -26 -4 -28 7 -25 13 6 13 14 0 23 -4 20
-9z m64 -30 c0 -5 -9 -7 -20 -4 -11 3 -20 7 -20 9 0 2 9 4 20 4 11 0 20 -4 20
-9z m27 -27 c-3 -3 -12 -4 -19 -1 -8 3 -5 6 6 6 11 1 17 -2 13 -5z m-3010 -71
c-3 -10 -5 -2 -5 17 0 19 2 27 5 18 2 -10 2 -26 0 -35z m-24 -65 c-8 -46 -13
-48 -13 -5 0 21 4 37 10 37 5 0 7 -14 3 -32z m167 -136 c0 -8 -52 -42 -65 -42
-3 0 6 11 21 25 27 25 44 32 44 17z m-758 -224 c15 -32 34 -53 60 -68 21 -12
38 -26 38 -32 0 -14 -42 -47 -61 -48 -9 0 -24 -9 -34 -20 -10 -11 -24 -20 -32
-20 -7 0 -13 -4 -13 -10 0 -5 -7 -10 -15 -10 -8 0 -15 -4 -15 -9 0 -5 -10 -13
-22 -17 -13 -4 -25 -9 -28 -13 -11 -13 -70 -51 -80 -51 -5 0 -10 -4 -10 -10 0
-5 -5 -10 -11 -10 -6 0 -16 -6 -23 -12 -8 -7 -24 -20 -36 -28 -12 -8 -28 -21
-36 -27 -7 -7 -15 -13 -19 -13 -7 0 -113 -79 -137 -102 -10 -10 -24 -18 -32
-18 -8 0 -23 -10 -33 -22 -10 -13 -42 -41 -70 -63 -29 -21 -53 -43 -53 -47 0
-4 -5 -8 -10 -8 -6 0 -23 -12 -39 -27 -15 -16 -43 -39 -62 -53 -19 -14 -79
-69 -133 -122 -55 -54 -103 -98 -108 -98 -4 0 -8 -7 -8 -15 0 -8 -4 -15 -9
-15 -13 0 -101 -85 -101 -98 0 -7 -4 -12 -8 -12 -13 0 -46 -31 -66 -62 -10
-16 -24 -28 -32 -28 -7 0 -19 -10 -25 -22 -7 -13 -21 -32 -33 -43 -22 -22 -96
-113 -169 -209 -12 -16 -30 -37 -39 -47 -10 -11 -18 -22 -18 -25 0 -4 -10 -16
-23 -28 -20 -18 -81 -103 -112 -154 -5 -9 -16 -21 -22 -25 -7 -4 -13 -15 -13
-22 0 -8 -4 -15 -10 -15 -5 0 -10 -5 -10 -11 0 -6 -20 -37 -45 -69 -25 -32
-45 -63 -45 -69 0 -6 -4 -11 -10 -11 -5 0 -12 -11 -16 -25 -3 -14 -10 -25 -15
-25 -5 0 -9 -7 -9 -15 0 -8 -7 -15 -15 -15 -9 0 -15 -9 -15 -25 0 -14 -7 -28
-15 -31 -8 -4 -15 -16 -15 -29 0 -13 -7 -25 -15 -29 -8 -3 -15 -12 -15 -20 0
-8 -4 -16 -8 -18 -4 -1 -25 -38 -47 -80 -21 -43 -43 -78 -47 -78 -4 0 -8 -11
-8 -25 0 -16 -6 -25 -15 -25 -10 0 -15 -10 -15 -31 0 -16 -4 -28 -9 -25 -9 6
-3 57 8 66 11 9 41 71 41 85 0 7 7 18 15 25 8 7 15 20 15 29 0 9 11 28 24 42
13 14 27 36 31 50 4 13 10 26 14 29 3 3 14 20 24 38 43 81 53 97 65 110 6 7
12 20 12 28 0 8 5 14 10 14 6 0 10 7 10 15 0 9 7 18 15 21 8 4 15 15 15 25 0
11 7 22 15 25 8 4 15 11 15 16 0 6 11 21 25 34 14 13 25 29 25 37 0 8 7 20 15
27 8 7 15 18 15 24 0 7 11 23 25 36 14 13 25 29 25 35 0 7 9 20 20 30 11 10
20 24 20 32 0 7 3 13 8 13 4 0 23 23 42 50 19 27 38 50 42 50 4 0 19 20 33 44
14 23 34 51 45 61 11 10 20 22 20 27 0 5 10 19 23 31 13 12 33 39 46 59 12 21
28 41 35 45 7 5 27 29 45 55 18 25 42 48 52 51 11 3 19 14 19 25 0 11 7 25 15
32 8 7 15 18 15 25 0 7 7 15 15 19 8 3 15 12 15 21 0 8 7 15 15 15 8 0 15 5
15 11 0 7 12 23 28 37 15 14 34 35 42 47 16 24 66 82 154 180 30 33 70 78 90
100 73 82 83 93 104 104 12 7 22 16 22 22 0 6 12 24 28 39 15 15 32 33 37 39
15 17 260 253 292 281 15 14 46 39 68 55 23 17 52 40 65 53 13 12 27 22 32 22
5 0 30 21 56 46 l47 46 3 -48 c1 -27 12 -70 24 -96z m2716 -35 c-10 -2 -28 -2
-40 0 -13 2 -5 4 17 4 22 1 32 -1 23 -4z m-1905 -115 c12 -7 25 -18 29 -24 4
-7 19 -15 33 -18 14 -4 25 -11 25 -16 0 -6 10 -10 23 -10 12 0 31 -7 41 -15
11 -8 39 -15 63 -15 24 0 43 -3 43 -6 0 -14 -31 -34 -53 -34 -14 0 -30 -7 -37
-15 -7 -8 -28 -15 -46 -15 -19 0 -34 -4 -34 -10 0 -5 -17 -12 -37 -16 -21 -4
-40 -10 -43 -14 -7 -11 -97 -50 -114 -50 -8 0 -18 -4 -21 -10 -3 -5 -15 -10
-26 -10 -10 0 -19 5 -19 10 0 6 4 10 9 10 12 0 10 73 -3 82 -5 4 -10 30 -11
59 l0 53 55 28 c30 15 60 32 65 37 14 14 31 13 58 -1z m-407 -223 c16 -8 37
-15 47 -15 30 0 110 -30 137 -50 22 -17 23 -20 6 -20 -11 0 -27 -6 -35 -14
-19 -17 -113 -71 -158 -92 -18 -8 -33 -19 -33 -24 0 -6 -11 -10 -24 -10 -13 0
-26 -7 -30 -15 -3 -8 -14 -15 -24 -15 -16 0 -20 10 -25 60 -3 39 -12 69 -26
86 -23 29 -27 44 -10 44 6 0 25 11 43 25 18 14 38 25 43 25 6 0 16 7 23 15 16
19 30 19 66 0z m-241 -151 c-33 -31 -98 -81 -145 -112 -47 -31 -86 -60 -88
-64 -5 -10 -22 -11 -22 0 0 4 20 29 45 55 25 27 45 52 45 57 0 4 8 10 18 14
16 5 44 22 66 39 37 29 104 66 121 66 15 0 5 -13 -40 -55z m1575 -174 c0 -5
-4 -10 -10 -10 -5 0 -10 5 -10 10 0 6 5 10 10 10 6 0 10 -4 10 -10z m-2120
-384 c0 -7 -7 -19 -15 -26 -8 -7 -15 -19 -15 -27 0 -16 -15 -32 -45 -49 -11
-6 -24 -20 -30 -32 -11 -25 -25 -29 -25 -7 0 9 7 18 15 21 8 4 15 13 15 21 0
8 6 20 13 28 6 7 25 29 41 49 31 38 46 45 46 22z m-150 -176 c-19 -13 -30 -13
-30 0 0 6 10 10 23 10 18 0 19 -2 7 -10z m633 -27 c-7 -2 -13 -11 -13 -19 0
-8 -7 -14 -15 -14 -8 0 -15 -4 -15 -9 0 -6 -29 -39 -65 -74 -36 -36 -65 -70
-65 -76 0 -6 -4 -11 -9 -11 -5 0 -19 -17 -31 -37 -12 -21 -28 -42 -36 -46 -8
-4 -14 -13 -14 -18 0 -6 -12 -24 -27 -39 -43 -45 -53 -58 -53 -70 0 -5 -5 -10
-10 -10 -6 0 -14 -8 -17 -17 -7 -19 -8 -20 -53 -73 -16 -19 -37 -50 -47 -69
-10 -19 -28 -45 -40 -59 -12 -13 -25 -33 -28 -43 -4 -11 -11 -19 -16 -19 -5 0
-9 -8 -9 -18 0 -10 -13 -32 -30 -50 -16 -18 -37 -49 -47 -70 -9 -20 -20 -39
-24 -42 -3 -3 -16 -26 -28 -52 -12 -27 -26 -48 -31 -48 -6 0 -10 -8 -10 -19 0
-10 -7 -24 -15 -31 -8 -7 -15 -21 -15 -31 0 -11 -4 -19 -10 -19 -5 0 -19 -22
-31 -50 -12 -27 -25 -50 -30 -50 -5 0 -9 -9 -9 -19 0 -11 -4 -23 -10 -26 -5
-3 -17 -23 -26 -43 -9 -20 -30 -64 -45 -98 -16 -33 -29 -66 -29 -73 0 -6 -7
-14 -15 -17 -8 -4 -15 -15 -15 -26 0 -11 -6 -32 -14 -46 -23 -43 -46 -99 -46
-111 0 -6 -4 -11 -10 -11 -5 0 -12 -16 -16 -35 -3 -19 -10 -38 -15 -41 -5 -3
-9 -16 -9 -30 0 -14 -7 -27 -15 -30 -8 -4 -15 -18 -15 -32 0 -14 -6 -33 -13
-41 -18 -21 -47 -101 -47 -129 0 -12 -4 -22 -10 -22 -5 0 -10 -8 -10 -17 0
-10 -7 -31 -15 -46 -8 -15 -17 -43 -21 -63 -3 -19 -10 -37 -15 -40 -5 -3 -9
-14 -9 -24 0 -11 -9 -24 -20 -30 -10 -6 -24 -28 -30 -50 -6 -22 -15 -40 -19
-40 -5 0 -14 -15 -21 -32 -21 -55 -83 -183 -91 -188 -4 -3 -10 -22 -14 -43 -4
-20 -11 -37 -16 -37 -5 0 -9 -6 -9 -14 0 -8 -9 -30 -19 -48 -11 -18 -31 -69
-46 -113 -14 -44 -30 -88 -35 -97 -6 -10 -10 -29 -10 -42 0 -13 -5 -26 -11
-28 -5 -2 -13 -24 -16 -48 -3 -25 -12 -54 -19 -65 -8 -11 -14 -37 -14 -59 0
-22 -3 -37 -6 -33 -11 11 -4 231 7 238 7 4 13 49 15 109 2 57 8 108 14 114 5
5 10 42 10 82 0 41 6 87 15 107 8 20 15 57 15 82 0 26 5 56 12 68 6 12 15 53
19 92 11 89 32 191 42 201 4 4 7 23 7 43 0 20 7 49 15 65 8 15 15 38 15 51 0
12 7 39 15 58 8 20 15 52 15 72 0 19 4 43 9 53 5 9 19 41 31 71 12 29 30 63
41 74 10 12 19 27 19 35 0 8 14 37 30 64 17 26 30 52 30 57 0 5 7 14 15 21 8
7 15 21 15 31 0 10 9 23 19 28 10 6 24 23 30 38 15 36 37 74 48 82 11 8 30 40
43 70 6 14 20 31 30 38 11 8 20 20 20 28 0 8 6 18 13 22 6 4 18 19 25 33 7 14
28 42 47 64 19 21 35 44 35 51 0 7 11 21 25 31 14 10 25 24 25 30 0 6 7 18 16
25 9 8 27 30 40 49 12 19 43 57 68 85 25 27 46 56 46 62 0 7 6 13 14 13 7 0
25 15 39 33 14 17 46 53 71 80 25 26 46 51 46 56 0 5 9 11 21 14 11 3 23 15
26 26 3 12 9 21 13 21 5 0 58 50 119 110 61 61 113 110 116 110 3 0 16 10 28
21 23 22 122 89 131 89 7 0 54 40 75 63 8 9 20 17 26 16 5 0 4 -3 -2 -6z
m-2403 -1130 c0 -20 -3 -24 -11 -16 -7 7 -9 19 -6 27 10 24 17 19 17 -11z
m200 -33 c0 -10 -4 -22 -10 -25 -6 -4 -10 7 -10 25 0 18 4 29 10 25 6 -3 10
-15 10 -25z m-233 -32 c-3 -8 -6 -5 -6 6 -1 11 2 17 5 13 3 -3 4 -12 1 -19z
m203 -27 c0 -11 -4 -23 -10 -26 -6 -4 -10 5 -10 19 0 14 5 26 10 26 6 0 10 -9
10 -19z m1750 -41 c0 -11 -4 -20 -9 -20 -5 0 -7 9 -4 20 3 11 7 20 9 20 2 0 4
-9 4 -20z m-1789 -43 c-8 -8 -11 -5 -11 9 0 27 14 41 18 19 2 -9 -1 -22 -7
-28z m-25 -64 c-11 -11 -17 4 -9 23 7 18 8 18 11 1 2 -10 1 -21 -2 -24z m-26
-48 c0 -14 -4 -25 -9 -25 -4 0 -6 11 -3 25 2 14 6 25 8 25 2 0 4 -11 4 -25z
m-33 -82 c-3 -10 -5 -2 -5 17 0 19 2 27 5 18 2 -10 2 -26 0 -35z m-17 -48 c0
-14 -4 -25 -10 -25 -5 0 -10 11 -10 25 0 14 5 25 10 25 6 0 10 -11 10 -25z
m-34 -72 c-10 -10 -19 5 -10 18 6 11 8 11 12 0 2 -7 1 -15 -2 -18z m-59 -150
c-3 -10 -5 -4 -5 12 0 17 2 24 5 18 2 -7 2 -21 0 -30z m-26 -84 c-9 -23 -10
-22 -10 11 -1 23 2 31 9 24 7 -7 7 -19 1 -35z m-280 -26 c-9 -16 -10 -14 -11
12 0 21 3 26 11 18 8 -8 8 -16 0 -30z m866 -1345 c-3 -57 -10 -116 -16 -131
-14 -36 -15 -834 -1 -892 5 -22 12 -101 16 -175 4 -74 11 -140 16 -147 5 -6
13 -54 18 -105 14 -144 32 -262 40 -268 4 -3 9 -34 12 -69 3 -37 10 -67 16
-69 8 -2 12 -28 11 -70 0 -47 -3 -61 -9 -47 -5 11 -9 34 -9 52 -1 17 -5 35
-11 38 -5 3 -10 22 -10 42 0 19 -6 49 -14 66 -8 18 -16 56 -19 86 -2 29 -10
56 -16 60 -6 4 -9 15 -5 24 3 9 -2 42 -11 74 -9 32 -21 90 -25 128 -4 39 -18
126 -31 195 -21 116 -23 152 -23 505 -1 221 3 388 9 400 9 21 31 190 41 328 9
119 28 97 21 -25z m-927 -296 c-14 -5 -14 -502 0 -502 6 0 10 -5 10 -10 0 -6
-12 -3 -26 7 l-27 17 8 241 c4 132 10 242 15 245 4 3 11 64 16 135 l9 130 3
-130 c2 -83 -1 -131 -8 -133z m1319 31 c1 -12 -3 -25 -9 -28 -6 -4 -10 12 -9
42 0 36 3 43 9 28 5 -11 9 -30 9 -42z m-11 -1016 c6 -16 12 -64 12 -107 0 -44
4 -89 10 -102 9 -22 17 -67 41 -248 5 -41 14 -76 19 -78 6 -2 10 -27 10 -55 0
-30 7 -60 15 -71 8 -11 15 -38 15 -60 1 -23 7 -52 15 -66 8 -14 14 -39 15 -57
0 -17 4 -34 9 -37 5 -4 12 -29 16 -56 4 -28 10 -50 15 -50 4 0 11 -20 14 -45
4 -25 11 -45 17 -45 5 0 9 -18 9 -40 0 -27 5 -43 15 -46 9 -4 15 -19 15 -39 0
-18 7 -38 15 -45 8 -7 15 -25 15 -41 0 -15 5 -31 10 -34 6 -3 10 -14 10 -24 0
-10 7 -24 15 -31 8 -7 15 -25 15 -41 0 -15 6 -34 13 -41 8 -7 17 -26 21 -41 3
-15 11 -27 16 -27 6 0 10 -13 10 -29 0 -16 7 -34 15 -41 8 -7 15 -23 15 -36 0
-13 5 -24 10 -24 6 0 10 -6 10 -14 0 -7 6 -19 14 -25 8 -7 17 -27 20 -46 4
-19 11 -35 16 -35 6 0 10 -12 9 -27 0 -27 0 -28 -10 -5 -5 13 -16 30 -24 38
-8 9 -15 22 -15 30 0 8 -11 32 -25 52 -14 20 -25 44 -25 53 0 9 -7 22 -15 29
-8 7 -15 18 -15 25 0 8 -3 15 -7 17 -11 4 -43 67 -43 83 0 7 -7 18 -15 25 -8
7 -15 23 -15 36 0 12 -7 29 -15 38 -8 8 -15 23 -15 33 0 11 -7 28 -15 39 -8
10 -15 31 -15 47 0 15 -4 27 -10 27 -5 0 -10 11 -10 24 0 13 -7 29 -15 36 -8
7 -15 19 -15 27 0 8 -7 30 -16 49 -9 19 -14 43 -11 55 3 12 0 22 -9 26 -7 3
-16 21 -20 41 -4 21 -11 39 -15 43 -8 5 -15 29 -42 161 -7 31 -15 60 -19 64
-5 4 -8 21 -8 38 0 17 -7 44 -15 60 -8 16 -15 54 -15 87 0 32 -7 76 -15 96
-15 41 -27 111 -51 318 -17 148 -21 780 -5 843 5 20 13 84 18 142 6 80 9 -9
13 -370 4 -349 8 -482 18 -503z m-238 -753 c0 -19 -4 -34 -10 -34 -5 0 -10 18
-10 41 0 24 4 38 10 34 6 -3 10 -22 10 -41z m17 -116 c-2 -13 -4 -3 -4 22 0
25 2 35 4 23 2 -13 2 -33 0 -45z m-1110 -270 c-3 -8 -6 -5 -6 6 -1 11 2 17 5
13 3 -3 4 -12 1 -19z m1259 -204 c3 -19 10 -37 15 -40 5 -3 9 -15 9 -28 0 -12
7 -31 15 -42 8 -10 15 -30 15 -44 0 -14 7 -34 15 -44 8 -11 15 -30 15 -42 0
-12 7 -24 15 -28 8 -3 15 -17 15 -31 0 -14 5 -25 10 -25 6 0 10 -11 10 -24 0
-14 7 -31 15 -40 8 -8 15 -23 15 -34 0 -11 7 -25 15 -32 8 -7 15 -23 15 -35 0
-12 7 -28 15 -35 8 -7 15 -21 15 -31 0 -11 4 -19 9 -19 5 0 11 -13 14 -29 3
-16 18 -46 32 -66 14 -21 25 -43 25 -50 0 -7 7 -18 15 -25 8 -7 15 -20 15 -30
0 -10 7 -20 15 -24 8 -3 15 -17 15 -31 0 -14 4 -25 8 -25 5 0 19 -21 32 -47
12 -27 33 -62 46 -80 13 -17 24 -37 24 -44 0 -6 8 -18 18 -25 9 -7 12 -14 6
-14 -6 0 -29 21 -50 46 -22 25 -47 53 -56 62 -10 9 -18 22 -18 29 0 6 -6 16
-13 20 -7 4 -26 26 -42 48 -17 22 -36 44 -42 48 -7 4 -13 22 -13 38 0 17 -7
37 -15 45 -8 9 -15 25 -15 37 0 23 -59 149 -72 155 -5 2 -8 8 -8 14 0 11 -24
68 -46 110 -8 14 -14 35 -14 46 0 11 -7 22 -15 26 -8 3 -15 15 -15 26 0 11 -4
20 -10 20 -5 0 -10 8 -10 18 0 9 -6 29 -14 43 -7 14 -16 37 -20 52 -3 15 -11
27 -16 27 -6 0 -10 9 -10 20 0 12 -6 33 -14 48 -17 33 -22 79 -12 109 10 31
34 18 42 -23z m-1196 -5 c0 -11 -4 -17 -10 -14 -5 3 -10 13 -10 21 0 8 5 14
10 14 6 0 10 -9 10 -21z m12080 -49 c0 -4 9 -10 20 -13 17 -4 19 -11 14 -39
-4 -18 -13 -45 -20 -60 -8 -15 -14 -35 -14 -45 0 -10 -7 -27 -15 -37 -8 -11
-15 -35 -15 -53 0 -18 -4 -33 -10 -33 -5 0 -10 -11 -10 -24 0 -13 -7 -29 -15
-36 -8 -7 -15 -23 -15 -36 0 -12 -4 -25 -9 -29 -5 -3 -15 -22 -21 -43 -7 -20
-21 -57 -31 -81 -20 -43 -20 -43 -62 -37 -23 4 -43 11 -45 16 -2 6 -16 10 -30
10 -15 0 -37 3 -49 6 -22 6 -21 7 17 69 22 34 40 67 40 74 0 6 5 11 10 11 6 0
15 11 20 25 5 14 14 25 19 25 4 0 11 12 14 28 3 15 15 37 26 49 12 12 21 26
21 31 0 4 14 29 30 55 17 26 30 55 30 65 0 9 11 29 25 44 14 15 25 36 25 46 0
10 3 21 6 24 7 8 44 -2 44 -12z m-12050 -40 c0 -11 -4 -20 -10 -20 -5 0 -10 9
-10 20 0 11 5 20 10 20 6 0 10 -9 10 -20z m10520 -40 c0 -5 -2 -10 -4 -10 -3
0 -8 5 -11 10 -3 6 -1 10 4 10 6 0 11 -4 11 -10z m-10491 -57 c1 -7 -3 -13 -9
-13 -5 0 -10 15 -9 33 0 27 2 29 9 12 5 -11 9 -26 9 -32z m158 -5 c-3 -8 -6
-5 -6 6 -1 11 2 17 5 13 3 -3 4 -12 1 -19z m-140 -85 c-3 -10 -5 -2 -5 17 0
19 2 27 5 18 2 -10 2 -26 0 -35z m170 5 c-3 -8 -6 -5 -6 6 -1 11 2 17 5 13 3
-3 4 -12 1 -19z m-137 -56 c0 -9 7 -26 15 -36 17 -22 21 -81 5 -71 -5 3 -10
21 -10 40 0 20 -6 35 -15 39 -8 3 -15 17 -15 31 0 28 20 25 20 -3z m170 9 c0
-14 60 -54 84 -56 12 -1 23 -10 25 -21 2 -10 9 -23 17 -27 8 -4 14 -21 14 -37
0 -16 5 -32 10 -35 6 -3 10 -17 10 -29 0 -13 7 -29 15 -36 8 -7 15 -23 15 -35
0 -13 7 -25 15 -29 8 -3 15 -15 15 -26 0 -12 7 -28 15 -36 8 -9 15 -26 15 -39
0 -13 3 -25 8 -27 10 -4 42 -75 42 -94 0 -8 7 -17 15 -20 8 -4 15 -17 15 -30
0 -14 7 -27 15 -30 8 -4 15 -17 15 -30 0 -13 4 -24 9 -24 5 0 12 -13 16 -30 4
-16 10 -30 13 -30 4 0 18 -25 32 -55 14 -30 28 -55 33 -55 4 0 7 -6 7 -14 0
-18 32 -76 43 -76 4 0 7 -8 7 -19 0 -10 7 -24 15 -31 8 -7 15 -18 15 -26 0 -7
6 -17 13 -21 7 -4 21 -26 31 -48 10 -22 23 -47 28 -55 4 -8 11 -22 15 -30 4
-8 13 -21 20 -28 15 -16 17 -42 3 -42 -5 0 -10 -8 -10 -17 1 -16 2 -16 16 2
13 17 16 18 24 5 5 -8 10 -21 10 -27 0 -7 4 -13 8 -13 5 0 14 -16 22 -35 8
-19 20 -35 27 -35 7 0 13 -8 13 -17 0 -19 69 -123 82 -123 4 0 8 -9 8 -20 0
-11 6 -23 14 -26 8 -3 17 -16 20 -30 4 -13 11 -24 16 -24 6 0 10 -7 10 -15 0
-8 5 -15 10 -15 6 0 10 -6 10 -14 0 -8 7 -16 15 -20 8 -3 15 -16 14 -28 0 -14
-3 -17 -6 -9 -3 8 -30 39 -59 68 -29 30 -56 63 -59 74 -4 10 -11 19 -16 19 -5
0 -9 7 -9 15 0 8 -7 15 -15 15 -8 0 -15 6 -15 13 0 8 -9 25 -21 38 -11 13 -30
37 -42 52 -12 16 -28 35 -34 42 -7 8 -13 21 -13 29 0 9 -7 16 -15 16 -8 0 -15
6 -15 14 0 8 -6 16 -13 19 -7 2 -22 23 -32 46 -11 22 -23 41 -27 41 -5 0 -8 6
-8 14 0 8 -6 21 -13 28 -26 27 -73 94 -92 131 -11 20 -23 37 -27 37 -13 0 -9
38 5 43 9 4 9 7 0 17 -10 11 -14 10 -19 -3 -9 -23 -24 -21 -24 2 0 18 -53 108
-71 121 -3 3 -9 15 -13 28 -4 12 -12 22 -17 22 -5 0 -9 11 -9 24 0 13 -7 26
-15 30 -8 3 -15 15 -15 26 0 11 -7 23 -15 26 -8 4 -15 17 -15 30 0 13 -3 24
-8 24 -12 0 -51 81 -88 185 -10 28 -24 56 -31 63 -7 7 -13 27 -13 43 0 16 -4
29 -10 29 -5 0 -10 8 -10 18 0 9 -7 30 -15 46 -8 15 -15 38 -15 51 0 12 -7 28
-15 35 -8 7 -15 23 -15 35 0 12 -7 28 -15 35 -17 14 -20 50 -5 50 6 0 10 -4
10 -9z m-110 -154 c0 -12 7 -31 15 -41 8 -11 15 -28 15 -38 0 -10 5 -18 10
-18 6 0 10 -9 10 -20 0 -21 39 -103 52 -108 4 -2 8 -14 8 -27 0 -12 7 -28 15
-35 8 -7 15 -23 15 -36 0 -12 4 -25 9 -29 5 -3 13 -20 17 -37 3 -18 17 -49 30
-70 13 -21 24 -47 24 -58 0 -11 7 -20 15 -20 8 0 15 -9 15 -19 0 -21 60 -144
73 -149 4 -2 7 -12 7 -22 0 -18 29 -80 41 -90 4 -3 17 -24 29 -47 12 -24 26
-43 31 -43 5 0 9 -12 9 -27 l0 -28 -20 25 c-11 14 -23 35 -26 48 -3 12 -10 22
-14 22 -5 0 -23 30 -40 68 -18 37 -36 74 -41 82 -5 8 -12 22 -16 30 -4 8 -17
32 -30 52 -13 21 -23 45 -23 53 0 9 -7 18 -15 21 -8 4 -15 16 -15 28 0 11 -7
30 -15 40 -8 11 -15 30 -15 42 0 12 -7 24 -15 28 -8 3 -15 14 -15 25 0 11 -4
23 -10 26 -5 3 -10 15 -10 25 0 10 -7 25 -15 34 -8 8 -15 21 -15 29 0 9 -7 28
-14 44 -8 15 -17 35 -20 43 -3 8 -10 22 -15 30 -5 8 -17 41 -26 73 -9 31 -21
57 -26 57 -5 0 -9 16 -9 36 0 21 4 33 10 29 6 -3 10 -16 10 -28z m11660 -377
c0 -5 -5 -10 -11 -10 -5 0 -7 5 -4 10 3 6 8 10 11 10 2 0 4 -4 4 -10z m-27
-48 c-4 -9 -13 -23 -20 -30 -7 -7 -13 -22 -13 -33 0 -10 -4 -19 -10 -19 -5 0
-10 -5 -10 -12 0 -19 -41 -98 -51 -98 -5 0 -9 -4 -9 -10 0 -11 -59 -95 -89
-126 -12 -12 -21 -25 -21 -30 0 -5 -20 -31 -45 -57 -44 -45 -48 -47 -103 -47
-31 0 -70 -7 -86 -15 -16 -8 -34 -14 -40 -13 -17 3 -56 -12 -56 -23 0 -5 -11
-9 -25 -9 -14 0 -28 -7 -31 -15 -4 -8 -11 -15 -16 -15 -5 0 -23 -14 -40 -30
-17 -18 -35 -27 -41 -23 -8 5 -6 9 6 11 9 2 17 8 17 13 0 6 11 22 25 37 14 15
25 32 25 38 0 7 12 25 28 42 15 16 36 49 47 74 16 38 26 47 66 61 26 10 58 17
72 17 13 0 30 7 37 15 7 8 23 15 35 15 13 0 25 7 29 15 3 8 15 15 26 15 11 0
20 5 20 10 0 6 6 10 13 10 7 0 35 20 62 45 28 25 53 45 58 45 4 0 7 7 7 15 0
8 4 15 10 15 11 0 70 56 70 67 0 4 10 21 22 39 23 33 42 37 31 6z m-943 -25
c0 -12 9 -47 21 -77 11 -30 23 -64 26 -75 4 -11 12 -24 20 -28 15 -9 18 -37 3
-37 -5 0 -20 -18 -32 -40 -13 -22 -30 -42 -39 -45 -9 -3 -31 -19 -49 -35 -33
-29 -56 -32 -85 -10 -5 4 -29 8 -51 8 -35 2 -43 -2 -47 -19 -3 -12 -1 -32 4
-46 11 -30 12 -93 1 -93 -5 0 -37 -26 -71 -57 -106 -99 -127 -113 -160 -113
-38 0 -39 12 -6 38 14 11 25 27 25 36 0 9 7 19 15 22 8 4 15 10 15 16 0 5 10
19 23 31 25 25 67 83 67 93 0 4 11 17 25 30 14 13 25 29 25 36 1 7 19 31 40
53 22 22 40 45 40 51 0 6 13 27 30 45 16 19 30 41 30 50 0 9 8 19 18 22 11 2
21 17 25 34 3 17 12 37 19 44 7 8 22 33 33 56 21 43 35 47 35 10z m-614 -128
c-3 -17 -18 -43 -33 -58 -45 -45 -73 -80 -73 -90 0 -5 -25 -36 -55 -67 -30
-32 -55 -61 -55 -65 0 -4 -20 -28 -45 -53 -25 -26 -45 -50 -45 -55 0 -4 -20
-27 -45 -50 -25 -23 -45 -49 -45 -57 0 -7 -5 -14 -11 -14 -10 0 -53 -40 -142
-127 -92 -93 -157 -153 -165 -153 -3 0 -25 -19 -48 -42 -44 -46 -70 -68 -79
-68 -3 0 -16 -11 -29 -24 -12 -14 -49 -45 -82 -69 -32 -24 -72 -55 -88 -70
-16 -15 -35 -27 -42 -27 -8 0 -27 -13 -42 -30 -16 -16 -34 -30 -41 -30 -6 0
-11 -4 -11 -9 0 -5 -10 -13 -22 -17 -13 -4 -33 -18 -46 -32 -18 -19 -30 -23
-55 -19 -18 3 -26 3 -19 0 17 -7 15 -33 -3 -33 -9 0 -18 -7 -21 -15 -4 -8 -17
-15 -29 -15 -13 0 -25 -4 -27 -8 -1 -4 -20 -18 -40 -31 -21 -12 -38 -27 -38
-32 0 -5 -9 -9 -19 -9 -11 0 -26 -6 -33 -14 -8 -7 -24 -17 -36 -20 -12 -4 -22
-12 -22 -17 0 -5 -9 -9 -20 -9 -19 0 -29 -6 -65 -37 -7 -7 -21 -13 -30 -13 -8
0 -18 -6 -21 -14 -3 -8 -19 -18 -35 -21 -16 -4 -29 -11 -29 -16 0 -5 -7 -9
-15 -9 -8 0 -23 -4 -33 -9 -9 -5 -36 -19 -59 -30 -58 -28 -75 -36 -100 -49
-13 -7 -28 -12 -34 -12 -7 0 -33 -10 -58 -22 -117 -54 -151 -68 -214 -89 -37
-12 -70 -26 -73 -30 -3 -5 -13 -9 -23 -9 -10 0 -32 -7 -47 -15 -16 -8 -36 -15
-45 -15 -9 0 -30 -7 -45 -15 -16 -8 -39 -15 -51 -15 -12 0 -25 -4 -28 -10 -3
-5 -23 -10 -43 -10 -20 0 -46 -7 -56 -15 -11 -8 -31 -15 -45 -15 -14 -1 -37
-7 -51 -15 -14 -8 -39 -14 -55 -15 -17 0 -36 -5 -43 -12 -11 -11 -41 -17 -175
-37 -31 -5 -63 -13 -70 -19 -6 -5 -45 -12 -86 -14 -46 -2 -76 -8 -79 -16 -2
-8 -31 -12 -86 -12 -51 0 -87 -5 -94 -12 -42 -42 -1004 -40 -1047 3 -5 5 -44
9 -86 9 -48 0 -79 4 -81 11 -2 6 -36 14 -76 17 -155 11 -46 16 301 14 203 -1
402 3 452 9 50 5 142 14 205 18 63 5 131 13 150 20 19 6 58 11 86 11 28 0 68
7 87 15 20 8 58 15 85 15 26 0 53 5 59 11 6 6 41 14 77 16 37 3 69 10 72 14 3
5 28 9 55 9 29 0 48 4 44 9 -3 6 9 12 27 15 18 3 50 8 71 11 20 3 37 10 37 15
0 6 13 10 29 10 17 0 32 4 35 9 3 4 25 11 48 15 48 8 135 33 160 47 10 5 28 9
41 9 13 0 32 7 43 15 10 8 26 15 35 15 26 0 119 32 119 41 0 4 18 10 40 14 22
4 40 10 40 15 0 4 16 11 36 15 37 6 44 9 101 39 17 9 36 16 43 16 6 0 18 7 26
15 9 8 26 15 40 15 13 0 24 4 24 10 0 5 12 13 27 16 15 4 38 13 52 20 14 8 34
14 44 14 9 0 17 5 17 10 0 6 8 10 19 10 10 0 24 7 31 15 7 8 17 15 23 15 9 0
108 47 167 79 8 5 29 14 45 21 17 7 37 16 45 21 8 5 25 13 37 18 11 6 24 15
28 20 3 6 13 11 21 11 8 0 28 9 44 20 17 11 43 29 60 40 16 11 33 20 38 20 6
0 37 18 70 40 33 22 67 40 75 40 9 0 20 6 24 13 4 6 15 17 24 22 72 44 165
110 172 121 4 8 14 14 20 14 7 0 27 14 45 30 18 17 40 30 47 30 8 0 27 11 42
25 49 44 100 85 106 85 4 0 19 12 35 28 15 15 43 38 61 52 19 14 42 33 52 43
11 9 24 17 29 17 6 0 10 7 10 15 0 8 6 15 14 15 8 0 23 11 33 24 10 13 28 26
40 30 12 4 25 16 28 27 4 10 11 19 16 19 5 0 9 7 9 15 0 9 10 15 26 15 14 0
23 4 20 9 -3 5 13 24 35 42 22 19 47 41 55 49 9 8 34 34 57 58 22 23 45 42 49
42 4 0 8 5 8 10 0 6 10 21 23 33 13 12 34 38 47 57 13 19 36 47 50 61 38 40
80 92 80 101 0 4 5 8 11 8 7 0 9 -11 5 -31z m-8523 -39 c3 -11 2 -20 -3 -20
-4 0 -10 9 -13 20 -3 11 -2 20 3 20 4 0 10 -9 13 -20z m-773 -262 c0 -5 -4 -8
-10 -8 -5 0 -10 10 -10 23 0 18 2 19 10 7 5 -8 10 -18 10 -22z m17 -50 c-3 -7
-5 -2 -5 12 0 14 2 19 5 13 2 -7 2 -19 0 -25z m10478 -8 c3 -5 -1 -10 -10 -10
-9 0 -13 5 -10 10 3 6 8 10 10 10 2 0 7 -4 10 -10z m172 -6 c-3 -3 -12 -4 -19
-1 -8 3 -5 6 6 6 11 1 17 -2 13 -5z m-10977 -39 c0 -14 4 -25 10 -25 5 0 13
-12 16 -27 4 -16 18 -38 31 -50 12 -12 23 -32 23 -44 l0 -23 -19 20 c-10 11
-22 30 -25 42 -4 12 -11 22 -16 22 -5 0 -11 14 -15 30 -4 17 -11 30 -16 30 -5
0 -9 11 -9 25 0 14 5 25 10 25 6 0 10 -11 10 -25z m10745 15 c-3 -5 -15 -10
-26 -10 -10 0 -19 5 -19 10 0 6 12 10 26 10 14 0 23 -4 19 -10z m-10355 -42
c0 -19 -2 -20 -10 -8 -13 19 -13 30 0 30 6 0 10 -10 10 -22z m10263 15 c-7 -2
-19 -2 -25 0 -7 3 -2 5 12 5 14 0 19 -2 13 -5z m-10233 -59 c0 -8 -4 -12 -10
-9 -5 3 -10 13 -10 21 0 8 5 12 10 9 6 -3 10 -13 10 -21z m30 -40 c0 -8 -4
-14 -9 -14 -11 0 -22 26 -14 34 9 9 23 -3 23 -20z m25 -33 c3 -5 1 -12 -5 -16
-5 -3 -10 1 -10 9 0 18 6 21 15 7z m-351 -62 c13 -23 15 -34 7 -42 -8 -8 -11
-6 -11 6 0 10 -7 20 -15 23 -15 6 -21 44 -7 44 4 0 16 -14 26 -31z m406 -12
c0 -5 6 -15 13 -22 23 -27 34 -41 72 -95 21 -30 53 -70 71 -88 19 -18 34 -35
34 -37 0 -2 14 -19 30 -37 17 -18 30 -36 30 -41 0 -4 32 -40 72 -80 39 -39 66
-73 60 -75 -23 -7 -12 -22 13 -16 15 4 25 2 25 -4 0 -6 29 -40 65 -76 41 -43
62 -71 59 -81 -4 -8 -1 -15 5 -15 6 0 11 5 11 10 0 6 5 10 10 10 6 0 10 -4 10
-10 0 -5 20 -31 45 -57 25 -26 48 -58 51 -70 3 -13 9 -23 13 -23 4 0 49 -40
100 -90 51 -49 99 -90 107 -90 11 0 13 -6 9 -22 -6 -17 -4 -20 9 -15 11 4 30
-7 56 -33 22 -22 42 -40 45 -40 3 0 22 -17 43 -38 20 -21 65 -60 99 -87 35
-28 63 -53 63 -57 0 -5 7 -8 15 -8 9 0 18 -6 21 -14 3 -7 21 -22 40 -32 19
-10 34 -21 34 -25 0 -4 9 -9 21 -12 33 -9 7 -47 -31 -47 -31 0 -42 23 -17 34
6 3 0 3 -15 0 -21 -5 -28 -2 -28 10 0 9 -7 16 -15 16 -8 0 -15 5 -15 10 0 6
-7 10 -15 10 -8 0 -15 5 -15 10 0 6 -7 13 -16 17 -9 3 -37 26 -62 49 -26 24
-50 44 -54 44 -9 0 -41 27 -105 88 -24 23 -48 42 -53 42 -5 0 -14 9 -20 20 -6
11 -17 20 -25 20 -7 0 -17 9 -20 20 -3 11 -10 20 -14 20 -4 0 -48 41 -99 90
-50 50 -96 90 -102 90 -5 0 -10 7 -10 15 0 8 -19 34 -43 58 -24 23 -46 51 -50
61 -4 10 -16 20 -27 23 -11 3 -20 10 -20 15 0 5 -29 39 -65 75 -36 36 -65 69
-65 74 0 4 -13 22 -30 39 -16 17 -30 35 -30 40 0 6 -4 10 -8 10 -4 0 -25 25
-47 55 -22 30 -43 55 -47 55 -5 0 -8 6 -8 14 0 8 -7 16 -15 20 -8 3 -15 12
-15 21 0 8 -5 15 -10 15 -6 0 -14 8 -17 18 -4 9 -12 22 -17 29 -23 26 -32 39
-55 76 -12 20 -27 37 -32 37 -5 0 -9 7 -9 15 0 8 -4 15 -9 15 -5 0 -12 11 -15
25 -4 14 -11 25 -16 25 -6 0 -10 9 -10 20 0 19 1 19 20 3 11 -10 20 -21 20
-26z m-340 -106 c0 -11 -6 -8 -20 7 -11 12 -20 31 -20 44 0 22 1 21 20 -7 11
-16 20 -36 20 -44z m29 -38 c0 -25 -1 -25 -8 -8 -5 11 -7 23 -4 28 8 14 13 7
12 -20z m31 -45 c0 -5 -4 -8 -10 -8 -5 0 -10 10 -10 23 0 18 2 19 10 7 5 -8
10 -18 10 -22z m10032 -26 c5 -17 13 -34 18 -37 19 -12 10 -27 -54 -90 -51
-51 -68 -63 -87 -58 -19 5 -21 3 -16 -16 4 -15 0 -24 -10 -28 -8 -3 -35 -24
-58 -47 -103 -99 -148 -136 -162 -136 -8 0 -17 -9 -20 -20 -3 -11 -11 -20 -19
-20 -7 0 -28 -16 -47 -35 -24 -25 -39 -33 -55 -28 -18 4 -22 1 -22 -16 0 -12
-7 -24 -15 -27 -8 -4 -15 -12 -15 -20 0 -8 -5 -14 -10 -14 -6 0 -21 -11 -34
-25 -13 -14 -30 -25 -39 -25 -9 0 -21 -9 -27 -20 -6 -11 -17 -20 -25 -20 -7 0
-32 -18 -54 -40 -22 -22 -43 -40 -47 -40 -4 0 -17 -11 -30 -25 -13 -14 -28
-25 -34 -25 -5 0 -10 -5 -10 -10 0 -6 -11 -15 -25 -20 -14 -5 -25 -14 -25 -20
0 -5 -6 -10 -14 -10 -8 0 -16 -3 -18 -8 -4 -10 -84 -72 -92 -72 -4 0 -17 -11
-29 -24 -12 -13 -38 -32 -57 -43 -73 -41 -100 -58 -100 -65 0 -5 -7 -8 -15 -8
-8 0 -15 -4 -15 -9 0 -5 -20 -20 -45 -32 -25 -12 -45 -26 -45 -31 0 -4 -12 -8
-27 -7 -28 0 -28 1 -5 11 12 6 22 15 22 20 0 4 11 8 25 8 16 0 25 6 25 15 0 8
5 15 10 15 13 0 122 80 133 97 4 7 15 13 24 13 8 0 33 18 55 40 22 21 49 42
61 46 12 4 44 29 71 55 27 27 55 49 63 49 7 0 13 7 13 15 0 8 6 15 13 15 6 0
46 32 87 70 41 38 78 70 83 70 4 0 7 7 7 15 0 8 6 15 12 15 7 0 24 11 38 25
62 61 123 115 131 115 5 0 9 7 9 15 0 8 7 15 15 15 8 0 15 3 15 8 0 11 122
147 161 177 13 11 35 36 49 55 13 19 34 45 47 57 13 12 23 26 23 31 0 6 7 12
15 16 8 3 15 12 15 21 0 8 7 15 15 15 8 0 15 4 15 8 0 5 17 28 39 51 33 35 42
40 62 33 14 -6 26 -21 31 -40z m-2312 -76 c0 -11 -19 -15 -25 -6 -3 5 1 10 9
10 9 0 16 -2 16 -4z m-7610 -42 c0 -8 -4 -12 -10 -9 -5 3 -10 10 -10 16 0 5 5
9 10 9 6 0 10 -7 10 -16z m280 -24 c0 -5 -2 -10 -4 -10 -3 0 -8 5 -11 10 -3 6
-1 10 4 10 6 0 11 -4 11 -10z m30 -41 c0 -11 -4 -17 -10 -14 -5 3 -10 13 -10
21 0 8 5 14 10 14 6 0 10 -9 10 -21z m25 -29 c3 -5 1 -10 -4 -10 -6 0 -11 5
-11 10 0 6 2 10 4 10 3 0 8 -4 11 -10z m197 -380 c23 -22 48 -40 55 -40 7 0
13 -4 13 -10 0 -15 48 -12 52 2 5 14 68 -43 68 -61 0 -6 7 -11 15 -11 8 0 15
-4 15 -10 0 -5 63 -72 139 -150 76 -77 135 -140 130 -140 -5 0 -9 -5 -9 -10 0
-6 10 -8 23 -5 16 4 26 0 37 -16 8 -12 23 -29 33 -38 10 -9 32 -28 49 -43 18
-16 35 -28 39 -28 4 0 21 -13 37 -30 17 -16 33 -30 36 -30 2 0 20 -13 38 -30
18 -16 38 -30 45 -30 6 0 14 -8 18 -18 3 -11 17 -24 30 -30 14 -6 25 -16 25
-21 0 -5 11 -12 25 -15 14 -4 23 -11 20 -17 -8 -12 -47 -1 -58 17 -4 8 -17 14
-28 14 -11 0 -22 7 -25 15 -4 8 -12 15 -20 15 -8 0 -14 5 -14 10 0 6 -18 18
-40 27 -22 10 -40 21 -40 25 0 14 -44 48 -61 48 -9 0 -19 7 -23 15 -3 8 -12
15 -21 15 -8 0 -15 4 -15 9 0 5 -10 13 -22 17 -13 4 -33 17 -45 30 -12 13 -26
24 -30 24 -5 0 -23 14 -41 30 -18 17 -36 30 -38 30 -8 0 -404 401 -404 409 0
4 -9 13 -21 21 -21 15 -45 50 -34 50 3 0 25 -18 47 -40z m3781 -547 c-13 -2
-35 -2 -50 0 -16 2 -5 4 22 4 28 0 40 -2 28 -4z m-1476 -29 c-3 -3 -12 -4 -19
-1 -8 3 -5 6 6 6 11 1 17 -2 13 -5z m-1246 -41 c10 -8 15 -22 11 -35 -4 -18
-3 -19 16 -7 18 11 24 11 40 -4 10 -9 22 -17 26 -17 4 0 17 -10 29 -22 12 -13
39 -32 61 -43 21 -11 41 -25 43 -32 3 -7 14 -13 24 -13 10 0 32 -13 49 -30 17
-16 37 -30 45 -30 8 0 15 -4 15 -9 0 -5 11 -12 25 -15 14 -4 25 -11 25 -16 0
-6 7 -10 15 -10 9 0 18 -7 21 -15 4 -8 17 -15 30 -15 13 0 24 -4 24 -9 0 -5
20 -20 45 -32 25 -12 45 -26 45 -31 0 -4 9 -8 20 -8 11 0 23 -7 26 -15 4 -8
16 -15 29 -15 12 0 28 -7 35 -15 7 -8 19 -15 27 -15 8 0 21 -7 29 -15 9 -8 24
-15 35 -15 10 0 19 -4 19 -10 0 -5 6 -10 14 -10 8 0 21 -6 28 -12 23 -22 75
-48 96 -48 11 0 22 -7 26 -15 3 -8 17 -15 31 -15 14 0 25 -4 25 -9 0 -5 14
-12 30 -16 17 -4 28 -11 24 -16 -3 -5 8 -9 25 -9 16 0 36 -7 45 -15 8 -8 26
-15 40 -15 14 0 26 -5 26 -10 0 -13 -64 -3 -68 11 -2 5 -16 9 -32 9 -15 0 -33
7 -40 15 -7 8 -23 15 -35 15 -12 0 -28 7 -35 15 -7 8 -21 15 -31 15 -10 0 -20
4 -23 9 -3 5 -22 12 -41 15 -19 4 -35 11 -35 16 0 6 -9 10 -19 10 -11 0 -26 7
-35 15 -8 8 -24 15 -35 15 -11 0 -24 6 -28 13 -11 17 -71 47 -94 47 -10 0 -19
5 -19 10 0 6 -8 13 -17 17 -48 15 -93 38 -93 45 0 4 -11 8 -25 8 -14 0 -25 4
-25 9 0 5 -17 18 -37 29 -93 49 -108 57 -111 65 -2 4 -12 7 -23 7 -11 0 -22 7
-25 15 -4 8 -12 15 -20 15 -8 0 -14 4 -14 9 0 5 -12 12 -26 15 -14 4 -35 16
-47 27 -12 11 -50 36 -85 57 -44 25 -62 42 -59 53 3 12 -1 15 -19 11 -13 -2
-24 0 -24 6 0 6 -10 14 -22 18 -23 7 -48 28 -48 40 0 12 34 32 45 27 5 -4 17
-12 26 -20z m1329 6 c0 -5 10 -9 23 -9 13 0 32 -7 43 -15 10 -8 31 -15 45 -15
14 0 34 -7 45 -15 10 -8 29 -15 41 -15 22 0 86 -30 91 -42 2 -5 14 -8 27 -8
12 0 28 -7 35 -15 7 -8 21 -15 31 -15 10 0 21 -4 24 -10 3 -5 20 -14 38 -19
l32 -9 -37 -1 c-21 -1 -38 2 -38 7 0 8 -59 30 -102 39 -15 3 -33 11 -39 19 -6
8 -24 14 -39 14 -16 0 -30 7 -34 15 -3 8 -14 15 -25 15 -11 0 -32 6 -48 14
-38 19 -73 33 -100 41 -13 4 -23 11 -23 16 0 5 -11 9 -25 9 -14 0 -25 4 -25 8
0 5 14 7 30 4 17 -2 30 -8 30 -13z m5600 12 c0 -5 -8 -11 -17 -15 -21 -6 -51
-25 -71 -43 -15 -15 -42 -17 -42 -4 0 5 8 11 18 15 24 8 56 29 65 44 9 14 47
17 47 3z m-140 -89 c-8 -2 -20 -11 -27 -19 -6 -8 -22 -13 -35 -11 -21 3 -19 5
17 24 22 12 44 19 50 16 5 -3 2 -8 -5 -10z m-90 -52 c0 -5 -9 -10 -21 -10 -11
0 -17 5 -14 10 3 6 13 10 21 10 8 0 14 -4 14 -10z m-50 -30 c0 -5 -12 -10 -26
-10 -14 0 -23 4 -19 10 3 6 15 10 26 10 10 0 19 -4 19 -10z m-6734 -34 c7 -8
19 -16 26 -19 20 -7 4 -17 -18 -11 -22 6 -51 44 -33 44 6 0 17 -6 25 -14z
m6669 4 c-27 -12 -35 -12 -35 0 0 6 12 10 28 9 24 0 25 -1 7 -9z m-4730 -20
c17 -7 14 -9 -13 -9 -20 -1 -31 3 -27 9 7 12 13 12 40 0z m4685 1 c0 -5 -9
-11 -20 -14 -11 -3 -20 -1 -20 3 0 5 8 11 18 13 9 3 18 5 20 6 1 0 2 -3 2 -8z
m-6540 -41 c0 -5 -4 -10 -9 -10 -6 0 -13 5 -16 10 -3 6 1 10 9 10 9 0 16 -4
16 -10z m1943 3 c-7 -2 -21 -2 -30 0 -10 3 -4 5 12 5 17 0 24 -2 18 -5z m4544
1 c-3 -3 -12 -4 -19 -1 -8 3 -5 6 6 6 11 1 17 -2 13 -5z m-6407 -56 c0 -13
-18 -9 -34 7 -8 8 -19 15 -25 15 -6 0 -11 4 -11 10 0 11 69 -21 70 -32z m1921
24 c-7 -2 -18 1 -23 6 -8 8 -4 9 13 5 13 -4 18 -8 10 -11z m4424 8 c3 -6 -4
-10 -17 -10 -18 0 -20 2 -8 10 19 12 18 12 25 0z m-6302 -57 c-7 -2 -19 -2
-25 0 -7 3 -2 5 12 5 14 0 19 -2 13 -5z m6190 0 c-7 -2 -19 -2 -25 0 -7 3 -2
5 12 5 14 0 19 -2 13 -5z m-6300 -30 c-7 -2 -19 -2 -25 0 -7 3 -2 5 12 5 14 0
19 -2 13 -5z m6250 0 c-7 -2 -21 -2 -30 0 -10 3 -4 5 12 5 17 0 24 -2 18 -5z
m-63 -23 c0 -5 -10 -10 -22 -9 -22 0 -22 1 -3 9 11 5 21 9 23 9 1 1 2 -3 2 -9z
m-6095 -30 c8 -13 -5 -13 -25 0 -13 8 -13 10 2 10 9 0 20 -4 23 -10z m65 -35
c0 -9 9 -15 24 -15 13 0 26 -7 30 -15 3 -8 17 -15 31 -15 14 0 25 -4 25 -10 0
-5 9 -10 19 -10 11 0 26 -7 35 -15 8 -8 21 -15 30 -15 8 0 19 -6 23 -12 4 -7
24 -20 43 -29 72 -34 108 -49 120 -49 6 0 8 -4 5 -10 -4 -6 7 -10 25 -10 18 0
33 -6 36 -15 4 -8 12 -15 19 -15 7 0 26 -6 42 -14 15 -7 44 -20 63 -28 19 -9
60 -27 90 -42 30 -14 59 -26 64 -26 4 0 37 -13 73 -30 35 -16 75 -30 89 -30
13 0 24 -4 24 -10 0 -5 18 -13 40 -16 22 -4 40 -10 40 -15 0 -5 11 -9 24 -9
14 0 31 -6 39 -14 8 -8 31 -18 51 -21 20 -4 36 -11 36 -16 0 -5 15 -9 34 -9
18 0 39 -7 46 -15 7 -8 25 -15 40 -15 15 0 41 -7 56 -15 16 -8 39 -15 52 -15
12 0 22 -4 22 -10 0 -5 13 -10 30 -10 16 0 44 -6 62 -14 39 -16 109 -35 158
-43 19 -3 40 -12 48 -19 7 -8 28 -14 47 -14 18 0 46 -7 61 -15 16 -8 43 -15
61 -15 17 0 35 -4 38 -10 3 -5 23 -10 44 -10 21 0 60 -7 87 -15 27 -8 65 -15
85 -15 20 0 50 -7 65 -15 17 -9 56 -15 96 -15 36 0 68 -4 70 -10 2 -5 40 -12
86 -16 45 -4 82 -11 82 -15 0 -5 28 -9 63 -10 34 -1 87 -5 117 -9 42 -6 24 -8
-75 -6 -78 1 -139 7 -152 14 -13 7 -64 12 -127 12 -62 0 -106 4 -108 10 -2 6
-41 15 -88 20 -144 16 -245 33 -251 42 -3 5 -38 12 -78 15 -39 3 -74 10 -77
14 -3 5 -29 9 -58 9 -35 0 -58 5 -66 15 -7 8 -29 15 -50 15 -21 0 -54 7 -73
15 -20 8 -52 15 -71 15 -19 0 -38 4 -41 10 -3 5 -28 12 -56 16 -27 4 -52 11
-55 15 -3 5 -23 9 -45 9 -26 0 -42 5 -45 15 -4 10 -20 15 -44 15 -21 0 -43 6
-49 14 -7 8 -28 16 -49 19 -46 6 -112 29 -112 39 0 5 -8 8 -18 8 -10 0 -27 7
-38 15 -10 8 -29 15 -41 15 -12 0 -24 4 -27 9 -7 11 -88 51 -104 51 -7 0 -12
5 -12 10 0 6 -9 10 -19 10 -11 0 -26 7 -34 15 -8 7 -26 17 -41 21 -14 3 -26
10 -26 15 0 5 -11 9 -25 9 -14 0 -25 6 -25 14 0 12 -71 46 -98 46 -7 0 -12 5
-12 10 0 6 -6 10 -13 10 -8 0 -32 13 -53 28 -22 16 -66 44 -99 62 -33 18 -66
39 -73 47 -7 7 -20 13 -28 13 -8 0 -14 4 -14 8 0 5 -19 17 -42 27 -24 10 -47
22 -53 27 -5 5 -25 20 -44 33 l-35 25 27 0 c17 0 27 -5 27 -15z m5827 -21 c-3
-3 -12 -4 -19 -1 -8 3 -5 6 6 6 11 1 17 -2 13 -5z m-5945 -28 c8 -7 24 -17 36
-20 12 -4 22 -12 22 -17 0 -5 7 -9 15 -9 8 0 15 -4 15 -10 0 -5 -9 -10 -20
-10 -11 0 -20 6 -20 13 0 7 -20 21 -45 32 -45 20 -58 35 -31 35 8 0 21 -6 28
-14z m1031 -3 c-7 -2 -21 -2 -30 0 -10 3 -4 5 12 5 17 0 24 -2 18 -5z m67 -23
c12 -8 9 -10 -12 -10 -15 0 -30 5 -33 10 -8 13 25 13 45 0z m70 -30 c0 -5 -9
-10 -19 -10 -11 0 -23 5 -26 10 -4 6 5 10 19 10 14 0 26 -4 26 -10z m5088 -10
c10 -17 10 -20 -4 -20 -9 0 -28 -6 -42 -14 -48 -25 -100 -46 -115 -46 -8 0
-17 -7 -21 -15 -3 -8 -15 -15 -26 -15 -12 0 -28 -7 -36 -15 -9 -8 -24 -15 -35
-15 -10 0 -19 -4 -19 -10 0 -5 -10 -10 -22 -10 -13 0 -32 -7 -42 -15 -11 -8
-27 -15 -36 -15 -9 0 -21 -5 -28 -12 -10 -10 -58 -31 -107 -45 -11 -4 -22 -9
-25 -13 -10 -13 -74 -40 -95 -40 -13 0 -25 -7 -29 -15 -3 -8 -16 -15 -30 -15
-13 0 -26 -7 -30 -15 -3 -9 -18 -15 -36 -15 -16 0 -30 -4 -30 -10 0 -5 -5 -10
-11 -10 -16 0 -102 -41 -121 -58 -25 -22 -22 -36 10 -49 l27 -11 -36 -1 c-20
-1 -39 -4 -43 -8 -9 -10 -114 -33 -178 -40 -26 -3 -52 -11 -59 -19 -7 -8 -30
-14 -59 -14 -27 0 -50 -5 -52 -11 -2 -6 -35 -15 -73 -20 -135 -16 -219 -30
-229 -38 -6 -5 -44 -11 -84 -14 -41 -3 -79 -10 -85 -15 -7 -5 -50 -12 -97 -15
-47 -3 -86 -10 -88 -16 -2 -7 -46 -11 -121 -11 -80 0 -121 -4 -129 -12 -9 -9
-59 -13 -162 -15 -82 -1 -183 -7 -225 -12 -43 -6 -204 -10 -363 -9 -193 1
-249 4 -172 7 115 6 115 6 112 30 -1 14 -5 27 -8 30 -3 3 -45 9 -92 12 l-87 6
107 1 c67 1 108 -2 110 -8 5 -15 348 -25 368 -11 12 8 12 14 1 35 -17 30 -23
32 -151 35 -190 5 -118 11 127 11 132 0 263 4 290 9 27 6 107 13 176 17 70 4
127 10 127 14 0 4 46 10 102 14 56 3 106 10 112 15 6 5 43 11 81 14 67 5 129
16 225 39 25 6 68 13 95 16 28 2 55 8 60 12 6 5 28 11 50 15 22 4 47 9 55 13
22 8 129 32 175 39 22 3 44 12 48 19 4 8 21 14 36 14 16 0 42 7 57 15 16 8 41
15 57 15 15 0 27 5 27 10 0 6 10 10 23 10 12 0 35 7 51 15 15 8 40 15 55 15
14 0 35 7 45 15 11 8 29 15 40 15 12 0 30 7 40 15 11 8 32 15 47 15 14 0 32 7
39 15 7 8 25 15 41 15 16 0 29 5 29 10 0 6 8 10 18 10 9 0 30 7 46 15 15 8 34
15 41 15 7 0 18 7 25 15 7 8 25 15 40 15 16 0 30 7 34 15 3 8 17 15 31 15 14
0 25 5 25 10 0 6 11 10 24 10 13 0 29 7 36 15 7 8 23 15 36 15 12 0 29 7 38
15 8 8 21 15 29 15 8 0 20 7 27 15 16 20 23 19 38 -5z m-6118 -19 c0 -5 -9 -7
-20 -4 -11 3 -20 7 -20 9 0 2 9 4 20 4 11 0 20 -4 20 -9z m1090 -1 c0 -12 -8
-12 -35 0 -18 8 -17 9 8 9 15 1 27 -3 27 -9z m119 -37 c14 -7 34 -13 43 -13 9
0 20 -4 23 -10 3 -5 19 -10 34 -10 15 0 36 -7 47 -15 10 -8 29 -15 40 -15 12
0 27 -7 34 -15 7 -8 26 -15 42 -15 16 0 36 -7 44 -15 9 -8 29 -15 45 -15 16 0
29 -4 29 -10 0 -5 11 -10 24 -10 13 0 29 -7 36 -15 7 -8 25 -15 39 -15 15 0
36 -7 47 -15 10 -8 34 -15 52 -15 17 0 32 -5 32 -11 0 -14 -79 -4 -94 12 -6 5
-21 9 -34 9 -23 0 -69 17 -124 46 -14 8 -35 14 -45 14 -10 0 -24 5 -29 10 -6
6 -34 13 -62 17 -29 3 -52 9 -52 14 0 4 -13 10 -30 14 -16 4 -32 11 -35 16 -4
5 -17 9 -30 9 -12 0 -25 7 -29 15 -3 9 -18 15 -34 15 -16 0 -35 7 -42 15 -7 8
-28 15 -46 15 -19 0 -34 5 -34 10 0 13 75 2 109 -17z m-1172 11 c-3 -3 -12 -4
-19 -1 -8 3 -5 6 6 6 11 1 17 -2 13 -5z m1051 -111 c-10 -2 -26 -2 -35 0 -10
3 -2 5 17 5 19 0 27 -2 18 -5z m75 -30 c-7 -2 -21 -2 -30 0 -10 3 -4 5 12 5
17 0 24 -2 18 -5z m67 -23 c0 -5 -9 -10 -19 -10 -11 0 -23 5 -26 10 -4 6 5 10
19 10 14 0 26 -4 26 -10z m80 -30 c0 -12 -8 -12 -35 0 -18 8 -17 9 8 9 15 1
27 -3 27 -9z m80 -30 c0 -13 -11 -13 -30 0 -12 8 -11 10 8 10 12 0 22 -4 22
-10z m511 -29 c-13 -9 -82 -1 -77 8 3 4 23 5 46 3 24 -3 37 -7 31 -11z m-428
2 c-7 -2 -19 -2 -25 0 -7 3 -2 5 12 5 14 0 19 -2 13 -5z m1195 0 c-10 -2 -26
-2 -35 0 -10 3 -2 5 17 5 19 0 27 -2 18 -5z m-658 -29 c0 -2 -16 -4 -35 -4
-19 0 -35 4 -35 8 0 4 16 6 35 4 19 -2 35 -6 35 -8z m-443 0 c-3 -3 -12 -4
-19 -1 -8 3 -5 6 6 6 11 1 17 -2 13 -5z m1296 -1 c-18 -2 -48 -2 -65 0 -18 2
-4 4 32 4 36 0 50 -2 33 -4z m-763 -23 c11 -7 7 -10 -17 -10 -18 0 -33 5 -33
10 0 13 30 13 50 0z m1175 -7 c11 -3 101 -9 200 -12 l180 -7 -232 -2 c-146 -1
-234 2 -238 8 -3 6 -49 10 -103 10 -53 0 -104 5 -112 10 -16 10 267 4 305 -7z
m660 7 c13 -5 -16 -8 -80 -8 -94 1 -96 2 -35 8 94 9 93 9 115 0z m-1715 -29
c0 -4 -11 -6 -25 -3 -14 2 -25 6 -25 8 0 2 11 4 25 4 14 0 25 -4 25 -9z m3205
-50 c-3 -6 -21 -10 -38 -10 -27 2 -28 2 -7 6 14 3 29 9 34 14 12 11 20 4 11
-10z m-3635 -61 c0 -5 -4 -10 -9 -10 -6 0 -13 5 -16 10 -3 6 1 10 9 10 9 0 16
-4 16 -10z m133 -27 c-7 -2 -21 -2 -30 0 -10 3 -4 5 12 5 17 0 24 -2 18 -5z
m145 -30 c-16 -2 -40 -2 -55 0 -16 2 -3 4 27 4 30 0 43 -2 28 -4z m155 -30
c-13 -2 -35 -2 -50 0 -16 2 -5 4 22 4 28 0 40 -2 28 -4z m170 -30 c-13 -2 -35
-2 -50 0 -16 2 -5 4 22 4 28 0 40 -2 28 -4z m135 -20 c-16 -2 -40 -2 -55 0
-16 2 -3 4 27 4 30 0 43 -2 28 -4z m270 -30 c-21 -2 -57 -2 -80 0 -24 2 -7 4
37 4 44 0 63 -2 43 -4z"/>
<path d="M6775 15190 c-3 -5 1 -10 9 -10 9 0 16 5 16 10 0 6 -4 10 -9 10 -6 0
-13 -4 -16 -10z"/>
<path d="M7605 15050 c-3 -5 -1 -10 4 -10 6 0 11 5 11 10 0 6 -2 10 -4 10 -3
0 -8 -4 -11 -10z"/>
<path d="M7190 14910 c0 -5 5 -10 11 -10 5 0 7 5 4 10 -3 6 -8 10 -11 10 -2 0
-4 -4 -4 -10z"/>
<path d="M6660 13759 c0 -5 5 -7 10 -4 6 3 10 8 10 11 0 2 -4 4 -10 4 -5 0
-10 -5 -10 -11z"/>
<path d="M6440 13539 c0 -5 5 -7 10 -4 6 3 10 8 10 11 0 2 -4 4 -10 4 -5 0
-10 -5 -10 -11z"/>
<path d="M5100 6700 c0 -5 5 -10 10 -10 6 0 10 5 10 10 0 6 -4 10 -10 10 -5 0
-10 -4 -10 -10z"/>
<path d="M15628 6973 c7 -3 16 -2 19 1 4 3 -2 6 -13 5 -11 0 -14 -3 -6 -6z"/>
<path d="M15510 6950 c0 -5 5 -10 10 -10 6 0 10 5 10 10 0 6 -4 10 -10 10 -5
0 -10 -4 -10 -10z"/>
<path d="M15010 7000 c0 -5 5 -10 10 -10 6 0 10 5 10 10 0 6 -4 10 -10 10 -5
0 -10 -4 -10 -10z"/>
<path d="M14675 6730 c-3 -5 -1 -10 4 -10 6 0 11 5 11 10 0 6 -2 10 -4 10 -3
0 -8 -4 -11 -10z"/>
<path d="M14650 6700 c0 -5 5 -10 10 -10 6 0 10 5 10 10 0 6 -4 10 -10 10 -5
0 -10 -4 -10 -10z"/>
<path d="M13785 6511 c-3 -5 -1 -12 5 -16 5 -3 10 1 10 9 0 18 -6 21 -15 7z"/>
<path d="M13210 6060 c0 -5 5 -10 11 -10 5 0 7 5 4 10 -3 6 -8 10 -11 10 -2 0
-4 -4 -4 -10z"/>
<path d="M11750 5390 c0 -5 5 -10 10 -10 6 0 10 5 10 10 0 6 -4 10 -10 10 -5
0 -10 -4 -10 -10z"/>
<path d="M11795 5330 c3 -5 15 -10 26 -10 11 0 17 5 14 10 -3 6 -15 10 -26 10
-11 0 -17 -4 -14 -10z"/>
<path d="M15040 6220 c0 -5 5 -10 10 -10 6 0 10 5 10 10 0 6 -4 10 -10 10 -5
0 -10 -4 -10 -10z"/>
<path d="M7715 4270 c4 -6 11 -8 16 -5 14 9 11 15 -7 15 -8 0 -12 -5 -9 -10z"/>
<path d="M9000 16549 c0 -5 5 -7 10 -4 6 3 10 8 10 11 0 2 -4 4 -10 4 -5 0
-10 -5 -10 -11z"/>
<path d="M7165 16050 c-3 -5 -1 -10 4 -10 6 0 11 5 11 10 0 6 -2 10 -4 10 -3
0 -8 -4 -11 -10z"/>
<path d="M9625 16050 c3 -5 15 -10 26 -10 10 0 19 5 19 10 0 6 -12 10 -26 10
-14 0 -23 -4 -19 -10z"/>
<path d="M6910 15786 c0 -9 5 -16 10 -16 6 0 10 4 10 9 0 6 -4 13 -10 16 -5 3
-10 -1 -10 -9z"/>
<path d="M9690 15660 c0 -5 5 -10 10 -10 6 0 10 5 10 10 0 6 -4 10 -10 10 -5
0 -10 -4 -10 -10z"/>
<path d="M9835 15580 c-3 -5 -1 -10 4 -10 6 0 11 5 11 10 0 6 -2 10 -4 10 -3
0 -8 -4 -11 -10z"/>
<path d="M11700 15470 c0 -5 5 -10 10 -10 6 0 10 5 10 10 0 6 -4 10 -10 10 -5
0 -10 -4 -10 -10z"/>
<path d="M9858 15413 c7 -3 16 -2 19 1 4 3 -2 6 -13 5 -11 0 -14 -3 -6 -6z"/>
<path d="M9838 15353 c7 -3 16 -2 19 1 4 3 -2 6 -13 5 -11 0 -14 -3 -6 -6z"/>
<path d="M8688 14573 c7 -3 16 -2 19 1 4 3 -2 6 -13 5 -11 0 -14 -3 -6 -6z"/>
<path d="M12795 14449 c-274 -20 -580 -119 -821 -264 -137 -82 -251 -175 -494
-401 -129 -121 -269 -250 -311 -289 -42 -38 -77 -76 -78 -82 -1 -7 99 -120
222 -251 122 -131 303 -325 402 -432 99 -107 225 -242 280 -300 55 -58 187
-199 294 -315 256 -276 372 -402 581 -625 94 -102 307 -330 472 -507 166 -178
305 -323 311 -323 5 0 44 33 86 73 42 41 168 159 281 262 254 234 334 315 411
416 447 588 520 1362 190 2017 -33 66 -78 137 -187 297 -43 61 -281 293 -374
362 -360 267 -810 396 -1265 362z"/>
<path d="M5326 14281 c-4 -7 -5 -15 -2 -18 9 -9 19 4 14 18 -4 11 -6 11 -12 0z"/>
<path d="M8811 14254 c0 -11 3 -14 6 -6 3 7 2 16 -1 19 -3 4 -6 -2 -5 -13z"/>
<path d="M7690 14240 c0 -5 5 -10 10 -10 6 0 10 5 10 10 0 6 -4 10 -10 10 -5
0 -10 -4 -10 -10z"/>
<path d="M7445 13940 c-3 -5 -1 -10 4 -10 6 0 11 5 11 10 0 6 -2 10 -4 10 -3
0 -8 -4 -11 -10z"/>
<path d="M4655 13570 c3 -5 8 -10 11 -10 2 0 4 5 4 10 0 6 -5 10 -11 10 -5 0
-7 -4 -4 -10z"/>
<path d="M10690 12719 c-194 -18 -418 -103 -571 -216 -33 -24 -250 -220 -482
-436 -232 -215 -435 -404 -452 -419 l-29 -27 20 -23 c56 -61 696 -752 759
-818 78 -82 543 -581 885 -950 79 -85 177 -191 219 -235 42 -44 213 -228 380
-407 l305 -327 38 32 c91 77 586 543 587 552 1 9 -417 464 -743 810 -73 77
-150 159 -171 183 l-38 43 59 -26 c32 -15 115 -49 184 -76 69 -27 139 -56 155
-63 28 -13 244 -102 440 -181 44 -18 197 -80 339 -139 l259 -106 51 48 c28 26
174 162 324 301 150 139 270 257 265 262 -8 8 -332 144 -628 264 -115 46 -301
123 -660 272 -60 25 -144 59 -185 76 -41 16 -78 33 -83 37 -4 3 -1 24 6 46 67
191 65 513 -4 724 -24 75 -91 211 -125 257 -13 17 -24 34 -24 37 0 16 -131
163 -189 213 -69 59 -197 146 -266 181 -166 83 -427 130 -625 111z"/>
<path d="M6222 12190 c0 -14 2 -19 5 -12 2 6 2 18 0 25 -3 6 -5 1 -5 -13z"/>
<path d="M3991 12104 c0 -11 3 -14 6 -6 3 7 2 16 -1 19 -3 4 -6 -2 -5 -13z"/>
<path d="M8560 11065 c-168 -156 -305 -290 -305 -298 0 -8 81 -102 181 -208
99 -107 299 -322 445 -477 145 -156 283 -305 306 -332 l42 -47 -102 -93 c-56
-52 -216 -200 -355 -329 -139 -130 -256 -237 -260 -239 -5 -1 -204 208 -442
465 -239 258 -460 495 -491 527 l-57 60 -38 -34 c-115 -100 -594 -554 -592
-561 2 -4 42 -48 89 -96 47 -48 232 -245 410 -438 456 -490 678 -729 1359
-1459 327 -351 620 -665 651 -699 l56 -62 79 74 c43 41 184 171 312 289 127
119 232 221 232 227 0 12 -171 200 -435 480 -77 83 -206 220 -285 305 -79 85
-146 157 -150 160 -3 3 -29 31 -58 61 l-53 56 177 164 c97 90 260 241 362 335
l186 171 65 -71 c36 -39 100 -106 142 -151 42 -44 199 -213 349 -375 150 -162
309 -332 353 -378 l80 -82 46 42 c180 165 581 542 581 546 0 3 -33 40 -73 81
-82 86 -287 306 -318 342 -11 13 -48 53 -83 89 -34 36 -187 200 -341 365 -153
165 -335 361 -405 435 -70 74 -250 268 -400 430 -261 281 -394 424 -680 730
-69 74 -155 167 -190 207 -36 39 -69 71 -75 71 -5 1 -147 -127 -315 -283z"/>
<path d="M16600 11014 c0 -8 5 -12 10 -9 6 4 8 11 5 16 -9 14 -15 11 -15 -7z"/>
<path d="M16766 10351 c-4 -7 -5 -15 -2 -18 9 -9 19 4 14 18 -4 11 -6 11 -12
0z"/>
<path d="M16150 10060 c0 -5 5 -10 10 -10 6 0 10 5 10 10 0 6 -4 10 -10 10 -5
0 -10 -4 -10 -10z"/>
<path d="M16155 10010 c3 -5 11 -10 16 -10 6 0 7 5 4 10 -3 6 -11 10 -16 10
-6 0 -7 -4 -4 -10z"/>
<path d="M5995 8700 c-3 -5 -1 -10 4 -10 6 0 11 5 11 10 0 6 -2 10 -4 10 -3 0
-8 -4 -11 -10z"/>
<path d="M15705 8371 c-6 -11 9 -23 19 -14 9 9 7 23 -3 23 -6 0 -12 -4 -16 -9z"/>
<path d="M14786 8292 c-3 -6 -1 -14 5 -17 15 -10 25 3 12 16 -7 7 -13 7 -17 1z"/>
<path d="M16626 8261 c-4 -5 -2 -12 3 -15 5 -4 12 -2 15 3 4 5 2 12 -3 15 -5
4 -12 2 -15 -3z"/>
<path d="M14680 8236 c0 -9 5 -16 10 -16 6 0 10 4 10 9 0 6 -4 13 -10 16 -5 3
-10 -1 -10 -9z"/>
<path d="M15510 8060 c0 -5 5 -10 10 -10 6 0 10 5 10 10 0 6 -4 10 -10 10 -5
0 -10 -4 -10 -10z"/>
<path d="M16180 6860 c0 -5 5 -10 10 -10 6 0 10 5 10 10 0 6 -4 10 -10 10 -5
0 -10 -4 -10 -10z"/>
<path d="M7380 6700 c0 -5 5 -10 11 -10 5 0 7 5 4 10 -3 6 -8 10 -11 10 -2 0
-4 -4 -4 -10z"/>
<path d="M12645 6500 c3 -5 8 -10 11 -10 2 0 4 5 4 10 0 6 -5 10 -11 10 -5 0
-7 -4 -4 -10z"/>
<path d="M7908 6438 c-37 -10 -52 -28 -24 -28 7 0 16 -13 19 -29 5 -21 23 -41
69 -73 35 -24 71 -47 81 -51 9 -3 17 -11 17 -17 0 -5 6 -10 14 -10 8 0 16 -3
18 -7 5 -12 66 -53 78 -53 7 0 9 -8 5 -20 -7 -22 18 -29 31 -9 5 8 10 6 16 -5
5 -9 16 -16 23 -16 8 0 15 -3 15 -8 0 -10 104 -72 122 -72 7 0 20 -5 28 -10
13 -9 13 -11 0 -20 -11 -8 -9 -9 11 -5 17 4 32 1 42 -9 8 -9 23 -16 31 -16 9
0 16 -4 16 -9 0 -5 12 -12 26 -15 15 -4 33 -14 41 -21 8 -8 25 -15 39 -15 13
0 24 -4 24 -9 0 -5 14 -12 30 -16 17 -4 30 -11 30 -16 0 -5 6 -9 13 -9 17 0
75 -28 82 -40 3 -5 27 -12 53 -16 26 -4 49 -10 52 -13 12 -14 73 -41 95 -41
12 0 36 -7 51 -15 16 -8 40 -15 54 -15 14 0 34 -7 44 -15 11 -8 34 -15 52 -15
18 0 35 -4 39 -9 3 -5 30 -13 60 -16 30 -4 55 -11 55 -15 0 -4 27 -10 60 -14
33 -4 62 -11 65 -16 4 -6 25 -10 48 -10 23 0 58 -5 77 -11 19 -6 85 -15 145
-19 61 -5 139 -13 175 -19 81 -13 310 -13 410 0 41 6 113 14 160 18 106 10
243 33 250 42 3 3 30 9 60 11 30 3 56 11 58 17 2 6 18 11 35 11 18 0 45 7 61
15 15 8 36 15 45 15 9 0 29 7 45 15 15 8 38 15 51 15 12 0 28 7 35 15 7 8 25
15 40 15 15 0 33 7 40 15 7 8 19 15 27 15 12 0 13 7 8 27 -4 16 -9 30 -12 33
-9 9 -108 1 -111 -10 -2 -5 -12 -10 -23 -10 -11 0 -27 -4 -37 -9 -42 -23 -208
-69 -279 -78 -24 -3 -43 -9 -43 -14 0 -5 -24 -9 -54 -9 -33 0 -60 -5 -69 -14
-35 -36 -839 -40 -884 -4 -6 5 -43 12 -82 15 -40 3 -74 10 -77 14 -3 5 -29 9
-59 9 -34 0 -59 5 -69 15 -8 8 -31 15 -51 15 -20 0 -43 7 -51 15 -9 8 -34 15
-57 15 -23 0 -51 7 -61 15 -11 8 -32 15 -48 15 -15 0 -28 4 -28 9 0 5 -18 12
-40 16 -22 4 -42 11 -46 16 -3 5 -19 9 -35 9 -17 0 -32 6 -35 15 -4 8 -18 15
-33 15 -15 0 -36 7 -47 15 -10 8 -29 15 -40 15 -12 0 -24 7 -28 15 -3 8 -15
15 -26 15 -11 0 -28 4 -38 9 -9 4 -35 17 -57 27 -22 10 -46 25 -53 31 -7 7
-27 13 -43 13 -16 0 -29 4 -29 10 0 5 -19 19 -42 30 -24 11 -56 29 -73 40 -16
11 -52 31 -80 46 -27 15 -62 35 -77 45 -14 11 -33 19 -42 19 -9 0 -16 5 -16
11 0 5 -13 15 -30 20 -16 6 -30 15 -30 20 0 5 -7 9 -15 9 -8 0 -15 5 -15 10 0
6 -4 10 -10 10 -5 0 -36 20 -69 45 -32 25 -62 45 -66 45 -4 0 -18 9 -32 20
-28 22 -48 23 -105 8z"/>
<path d="M8110 6420 c0 -5 5 -10 10 -10 6 0 10 5 10 10 0 6 -4 10 -10 10 -5 0
-10 -4 -10 -10z"/>
<path d="M4661 6334 c0 -11 3 -14 6 -6 3 7 2 16 -1 19 -3 4 -6 -2 -5 -13z"/>
<path d="M8280 6280 c0 -5 7 -10 15 -10 8 0 15 5 15 10 0 6 -7 10 -15 10 -8 0
-15 -4 -15 -10z"/>
<path d="M12420 6280 c0 -5 5 -10 10 -10 6 0 10 5 10 10 0 6 -4 10 -10 10 -5
0 -10 -4 -10 -10z"/>
<path d="M8390 6250 c0 -5 5 -10 10 -10 6 0 10 5 10 10 0 6 -4 10 -10 10 -5 0
-10 -4 -10 -10z"/>
<path d="M12450 6250 c0 -5 7 -10 15 -10 8 0 15 5 15 10 0 6 -7 10 -15 10 -8
0 -15 -4 -15 -10z"/>
<path d="M8455 6200 c-3 -5 -4 -10 -1 -10 2 0 11 -3 20 -6 11 -4 16 -1 16 10
0 18 -25 22 -35 6z"/>
<path d="M7970 6170 c0 -5 5 -10 10 -10 6 0 10 5 10 10 0 6 -4 10 -10 10 -5 0
-10 -4 -10 -10z"/>
<path d="M8248 6053 c7 -3 16 -2 19 1 4 3 -2 6 -13 5 -11 0 -14 -3 -6 -6z"/>
<path d="M8860 5999 c0 -5 5 -7 10 -4 6 3 10 8 10 11 0 2 -4 4 -10 4 -5 0 -10
-5 -10 -11z"/>
<path d="M11608 5833 c7 -3 16 -2 19 1 4 3 -2 6 -13 5 -11 0 -14 -3 -6 -6z"/>
<path d="M8855 5720 c3 -5 10 -10 16 -10 5 0 9 5 9 10 0 6 -7 10 -16 10 -8 0
-12 -4 -9 -10z"/>
<path d="M11128 5693 c7 -3 16 -2 19 1 4 3 -2 6 -13 5 -11 0 -14 -3 -6 -6z"/>
<path d="M5830 5329 c0 -5 5 -7 10 -4 6 3 10 8 10 11 0 2 -4 4 -10 4 -5 0 -10
-5 -10 -11z"/>
<path d="M6410 4610 c0 -5 5 -10 10 -10 6 0 10 5 10 10 0 6 -4 10 -10 10 -5 0
-10 -4 -10 -10z"/>
<path d="M13230 4500 c0 -5 7 -10 15 -10 8 0 15 5 15 10 0 6 -7 10 -15 10 -8
0 -15 -4 -15 -10z"/>
<path d="M6850 4360 c0 -5 7 -10 15 -10 8 0 15 5 15 10 0 6 -7 10 -15 10 -8 0
-15 -4 -15 -10z"/>
<path d="M12488 3993 c6 -2 18 -2 25 0 6 3 1 5 -13 5 -14 0 -19 -2 -12 -5z"/>
</g>
</svg>
