<?xml version="1.0" standalone="no"?>
<!DOCTYPE svg PUBLIC "-//W3C//DTD SVG 20010904//EN"
 "http://www.w3.org/TR/2001/REC-SVG-20010904/DTD/svg10.dtd">
<svg version="1.0" xmlns="http://www.w3.org/2000/svg"
 width="2066.000000pt" height="2066.000000pt" viewBox="0 0 2066.000000 2066.000000"
 preserveAspectRatio="xMidYMid meet">
<metadata>
Created by potrace 1.11, written by Peter Selinger 2001-2013
</metadata>
<g transform="translate(0.000000,2066.000000) scale(0.100000,-0.100000)"
fill="#000000" stroke="none">
<path d="M5921 19899 c-1203 -57 -2298 -485 -3236 -1265 -167 -139 -520 -492
-659 -659 -493 -592 -841 -1240 -1051 -1951 -127 -431 -191 -822 -215 -1314
-14 -295 -14 -8465 0 -8760 40 -824 222 -1523 581 -2230 265 -523 575 -948
1003 -1376 429 -428 854 -738 1376 -1003 705 -358 1403 -540 2225 -581 271
-13 8499 -13 8770 0 822 41 1520 223 2225 581 520 264 946 574 1371 998 433
433 741 855 1008 1381 360 707 541 1406 581 2230 14 295 14 8465 0 8760 -40
824 -221 1523 -581 2230 -266 525 -576 948 -1008 1381 -424 423 -851 734
-1371 998 -707 359 -1406 541 -2230 581 -254 12 -8533 11 -8789 -1z m8824
-359 c492 -25 891 -97 1335 -242 734 -238 1401 -645 1958 -1193 570 -559 985
-1218 1242 -1970 156 -458 236 -890 260 -1403 13 -279 13 -8525 0 -8804 -34
-718 -190 -1342 -494 -1973 -107 -222 -192 -369 -342 -595 -205 -310 -396
-540 -666 -805 -400 -394 -833 -699 -1333 -941 -551 -266 -1087 -415 -1735
-481 -166 -17 -417 -18 -4640 -18 -4223 0 -4474 1 -4640 18 -306 31 -568 77
-820 143 -1071 281 -2015 905 -2706 1789 -106 136 -308 439 -399 600 -87 152
-218 422 -283 586 -220 545 -334 1071 -362 1677 -13 279 -13 8525 0 8804 24
513 104 945 260 1403 365 1069 1069 1974 2020 2597 741 486 1598 763 2495 808
238 11 8617 11 8850 0z"/>
<path d="M14661 16199 c-429 -45 -830 -330 -1020 -724 -128 -265 -167 -592
-104 -875 39 -178 113 -350 214 -500 46 -68 166 -209 263 -310 40 -41 132
-140 205 -220 243 -264 338 -343 531 -440 203 -102 356 -140 591 -147 187 -6
317 12 483 68 288 96 555 324 713 609 32 56 99 227 114 290 38 150 52 349 35
505 -21 199 -97 410 -215 595 -39 62 -129 178 -154 199 -20 16 1 32 -301 -248
-104 -97 -211 -195 -237 -219 -27 -24 -49 -48 -49 -53 0 -5 18 -32 40 -61 81
-106 130 -245 130 -372 0 -79 -32 -205 -67 -265 -67 -115 -196 -212 -323 -242
-118 -28 -284 -7 -394 48 -96 48 -135 83 -343 305 -114 123 -234 251 -267 285
-81 86 -120 142 -155 227 -42 102 -55 176 -47 273 18 241 172 420 402 468 118
24 259 6 382 -50 56 -26 172 -110 172 -126 0 -27 46 9 236 184 366 339 360
333 348 354 -6 10 -50 53 -98 95 -305 270 -677 389 -1085 347z"/>
<path d="M9997 16128 c-3 -10 -65 -13 -263 -14 -176 -1 -266 -5 -281 -12 -12
-7 -37 -12 -57 -12 -19 0 -38 -4 -41 -10 -3 -5 -15 -10 -25 -10 -10 0 -25 -7
-34 -15 -8 -8 -22 -15 -30 -15 -9 0 -16 -4 -16 -9 0 -5 -9 -13 -20 -16 -27 -8
-130 -109 -130 -127 0 -7 -10 -20 -22 -28 -27 -18 -88 -30 -88 -18 0 4 9 8 20
8 11 0 23 7 26 15 4 8 12 15 20 15 15 0 18 21 8 56 -8 30 -74 40 -116 19 -17
-8 -46 -15 -65 -15 -18 0 -33 -4 -33 -9 0 -5 -10 -12 -22 -16 -13 -3 -32 -10
-43 -15 -11 -4 -41 -16 -67 -27 -27 -10 -48 -21 -48 -25 0 -5 -6 -8 -14 -8 -7
0 -19 -7 -26 -15 -7 -8 -23 -15 -36 -15 -13 0 -24 -5 -24 -11 0 -7 -11 -9 -31
-5 -27 5 -30 4 -24 -14 5 -14 2 -20 -10 -20 -8 0 -33 -11 -55 -25 -22 -14 -44
-25 -50 -25 -5 0 -10 -4 -10 -10 0 -5 -18 -14 -40 -20 -21 -6 -45 -17 -53 -25
-8 -7 -31 -17 -51 -20 -20 -4 -39 -11 -42 -16 -3 -5 -17 -9 -32 -9 -15 0 -38
-7 -51 -16 -15 -11 -33 -14 -53 -10 -24 5 -29 3 -24 -9 4 -11 -2 -15 -22 -15
-15 0 -36 -7 -46 -15 -11 -8 -31 -15 -45 -15 -14 0 -35 -7 -45 -15 -11 -8 -32
-15 -48 -15 -25 0 -28 3 -28 34 0 19 -5 38 -10 41 -6 3 -9 26 -8 49 1 44 -32
116 -53 116 -6 0 -25 -15 -44 -32 -43 -42 -62 -57 -108 -88 -20 -14 -37 -28
-37 -32 0 -5 -6 -8 -14 -8 -8 0 -16 -3 -18 -8 -1 -4 -28 -23 -58 -42 -30 -19
-60 -39 -66 -45 -7 -5 -26 -21 -43 -35 -17 -14 -31 -29 -31 -35 0 -6 -9 -16
-19 -22 -11 -7 -29 -30 -42 -53 -26 -46 -32 -48 -47 -17 l-11 22 0 -22 c-1
-13 4 -23 9 -23 15 0 12 -36 -5 -50 -8 -7 -15 -23 -15 -35 0 -24 -61 -95 -80
-95 -6 0 -16 -5 -23 -10 -55 -47 -74 -60 -83 -60 -7 0 -14 -7 -18 -15 -3 -8
-11 -15 -18 -15 -7 0 -25 -11 -39 -23 -13 -13 -30 -26 -36 -28 -12 -5 -74 -53
-111 -86 -14 -13 -31 -23 -38 -23 -8 0 -14 -3 -14 -7 0 -5 -17 -19 -37 -33
-21 -14 -52 -38 -70 -55 -18 -16 -51 -46 -74 -65 -108 -91 -479 -450 -479
-464 0 -7 -34 -49 -72 -89 -16 -16 -28 -33 -28 -38 0 -5 -7 -9 -15 -9 -8 0
-15 -4 -15 -9 0 -10 -57 -83 -95 -121 -14 -14 -25 -29 -25 -33 0 -4 -5 -13
-10 -20 -50 -59 -63 -76 -81 -104 -11 -18 -25 -33 -30 -33 -5 0 -9 -6 -9 -14
0 -8 -11 -24 -25 -37 -13 -13 -25 -29 -25 -35 0 -6 -11 -23 -25 -38 -14 -15
-25 -29 -25 -32 0 -5 -59 -93 -70 -104 -3 -3 -14 -21 -24 -40 -11 -19 -24 -38
-30 -42 -6 -4 -11 -13 -11 -21 0 -7 -10 -24 -23 -37 -12 -13 -22 -32 -22 -42
0 -10 -4 -18 -10 -18 -5 0 -10 -7 -10 -15 0 -9 -6 -18 -14 -21 -8 -3 -27 -31
-43 -62 -15 -31 -31 -59 -34 -62 -4 -3 -16 -26 -28 -52 -11 -26 -25 -50 -31
-53 -5 -3 -10 -15 -10 -26 0 -10 -4 -19 -8 -19 -4 0 -20 -26 -36 -57 -16 -32
-32 -65 -37 -73 -16 -29 -37 -75 -47 -105 l-10 -30 -1 38 c-1 20 4 37 9 37 6
0 10 9 10 21 0 11 6 33 14 47 8 15 22 45 31 67 26 62 38 87 62 127 13 21 23
45 23 54 0 8 6 22 13 29 29 33 35 43 48 79 8 21 20 41 26 43 7 3 13 14 13 24
0 11 7 22 15 25 8 4 15 17 15 30 0 13 4 24 10 24 5 0 12 11 16 25 3 14 10 25
15 25 5 0 9 6 9 14 0 8 9 21 20 29 20 14 21 11 -8 97 -4 11 -6 10 -10 -5 -7
-36 -20 -38 -46 -9 -16 18 -29 25 -33 19 -5 -5 -17 -15 -28 -21 -22 -12 -85
-128 -85 -155 0 -9 -7 -19 -15 -23 -8 -3 -15 -15 -15 -26 0 -11 -4 -20 -10
-20 -5 0 -10 -14 -10 -30 0 -18 -6 -33 -15 -36 -8 -4 -15 -17 -15 -29 0 -13
-4 -27 -10 -30 -5 -3 -10 -15 -10 -26 0 -11 -7 -27 -15 -35 -8 -9 -15 -24 -15
-35 0 -10 -4 -19 -10 -19 -5 0 -10 -11 -10 -24 0 -13 -7 -29 -15 -36 -8 -7
-15 -25 -15 -41 0 -15 -4 -30 -9 -34 -5 -3 -12 -19 -16 -35 -4 -17 -11 -30
-16 -30 -5 0 -9 -9 -9 -20 0 -20 -2 -27 -33 -88 -9 -19 -17 -47 -17 -63 0 -16
-4 -29 -10 -29 -5 0 -10 -11 -10 -25 0 -14 -11 -47 -24 -74 -13 -27 -27 -67
-31 -87 -3 -21 -22 -66 -40 -100 -44 -81 -48 -90 -74 -146 -12 -26 -26 -50
-32 -53 -5 -4 -9 -19 -9 -35 0 -15 -3 -30 -7 -32 -5 -1 -15 -19 -24 -38 -45
-97 -68 -149 -83 -185 -9 -22 -21 -48 -26 -57 -6 -10 -10 -23 -10 -30 0 -6 -7
-19 -16 -29 -10 -12 -16 -36 -16 -68 0 -75 15 -89 52 -49 12 13 19 31 17 40
-3 10 1 22 9 29 8 6 14 22 14 35 0 12 4 25 9 29 14 8 41 65 41 84 0 9 6 25 14
36 7 11 16 29 19 40 3 12 5 5 6 -17 0 -20 -4 -38 -10 -40 -6 -2 -13 -25 -16
-51 -3 -26 -10 -50 -14 -53 -5 -3 -9 -25 -9 -49 0 -24 -4 -46 -9 -50 -5 -3
-13 -34 -16 -70 -4 -36 -11 -68 -16 -71 -5 -3 -9 -34 -9 -70 0 -35 -4 -64 -9
-64 -8 0 -23 -70 -38 -175 -3 -22 -9 -45 -14 -51 -5 -6 -11 -37 -14 -70 -4
-32 -10 -68 -15 -79 -5 -11 -11 -45 -14 -75 -3 -30 -13 -100 -21 -155 -9 -55
-20 -154 -25 -220 -5 -66 -14 -160 -20 -210 -6 -50 -10 -197 -8 -332 1 -133 0
-245 -3 -248 -3 -3 -9 50 -12 117 -6 122 -20 178 -44 178 -7 0 -13 -5 -13 -12
0 -6 -7 -19 -16 -29 -13 -15 -14 -26 -5 -71 7 -29 16 -109 22 -178 25 -298 46
-479 59 -502 6 -10 10 -44 10 -77 0 -32 6 -74 14 -92 8 -19 14 -61 15 -93 0
-33 5 -64 11 -70 5 -5 10 -24 10 -41 0 -18 7 -54 15 -81 8 -27 15 -68 15 -91
0 -24 5 -43 10 -43 6 0 10 -15 10 -32 1 -18 7 -51 15 -73 8 -22 15 -52 15 -67
0 -15 5 -30 10 -33 6 -3 10 -25 10 -49 0 -23 7 -51 15 -62 8 -10 15 -32 15
-49 0 -26 15 -79 40 -140 5 -11 11 -31 14 -45 15 -77 41 -156 66 -202 6 -10
10 -29 10 -43 0 -14 4 -25 9 -25 5 0 12 -21 16 -47 4 -26 15 -60 26 -74 10
-15 19 -36 19 -46 0 -10 6 -27 14 -38 7 -11 16 -33 20 -50 4 -16 23 -64 43
-105 19 -41 39 -86 45 -100 6 -14 14 -32 19 -40 5 -8 12 -22 14 -30 3 -8 17
-36 30 -63 14 -26 25 -53 25 -61 0 -8 11 -28 25 -44 14 -17 25 -34 25 -40 0
-15 34 -72 43 -72 4 0 7 -11 7 -25 0 -14 4 -25 8 -25 5 0 18 -19 31 -42 27
-54 43 -78 59 -96 6 -7 12 -17 12 -21 0 -4 8 -16 18 -27 9 -11 33 -42 52 -69
19 -28 38 -51 42 -53 4 -2 8 -12 8 -23 0 -11 6 -22 14 -25 7 -3 22 -21 32 -40
10 -19 22 -34 26 -34 5 0 8 -5 8 -11 0 -7 11 -22 25 -35 14 -13 25 -27 25 -32
0 -5 11 -19 25 -32 14 -13 25 -29 25 -37 0 -7 6 -13 13 -13 8 0 20 -12 28 -27
8 -15 22 -35 32 -45 9 -10 17 -24 17 -32 0 -8 8 -17 18 -20 11 -4 25 -18 32
-31 7 -14 17 -25 22 -25 10 0 138 -132 138 -142 0 -5 4 -8 9 -8 5 0 51 -41
102 -90 52 -50 97 -90 101 -90 3 0 23 -16 44 -35 20 -19 41 -35 45 -35 5 0 9
-7 9 -15 0 -8 5 -15 10 -15 6 0 23 -11 38 -25 15 -14 30 -25 34 -25 4 0 22
-14 40 -30 18 -17 37 -30 42 -30 5 0 16 -8 25 -18 9 -11 34 -30 56 -45 22 -14
65 -50 96 -79 31 -30 74 -68 95 -84 21 -16 49 -39 61 -51 12 -13 27 -23 33
-23 5 0 10 -7 10 -15 0 -8 9 -15 20 -15 11 0 20 -4 20 -10 0 -5 4 -10 10 -10
5 0 23 -14 40 -30 17 -17 49 -42 71 -57 21 -14 39 -30 39 -34 0 -5 12 -9 26
-9 14 0 23 -4 19 -9 -3 -5 8 -18 25 -27 16 -10 30 -21 30 -24 0 -3 17 -14 37
-25 48 -25 73 -46 67 -56 -5 -10 -44 1 -44 12 0 5 -7 9 -15 9 -8 0 -23 9 -32
20 -10 11 -25 20 -33 20 -9 0 -26 9 -38 20 -12 11 -30 20 -42 20 -11 0 -20 7
-20 15 0 8 -7 15 -15 15 -8 0 -15 5 -15 10 0 6 -9 10 -21 10 -13 0 -23 8 -26
21 -4 14 -12 19 -24 16 -11 -3 -19 -1 -19 4 0 5 -7 9 -15 9 -8 0 -15 5 -15 10
0 6 -8 14 -17 17 -21 8 -87 55 -91 66 -2 4 -12 7 -23 7 -11 0 -22 7 -25 15 -4
8 -12 15 -19 15 -7 0 -15 7 -19 15 -3 8 -12 15 -21 15 -8 0 -15 5 -15 10 0 6
-5 10 -11 10 -7 0 -33 18 -58 41 -25 22 -51 43 -56 47 -44 30 -134 101 -152
119 -12 13 -26 23 -31 23 -13 0 -152 135 -152 148 0 7 -7 12 -16 12 -20 0 -44
24 -44 44 0 9 -6 16 -14 16 -19 0 -81 54 -147 127 -8 10 -31 32 -50 49 -48 45
-139 142 -139 149 0 3 -27 33 -60 66 -33 33 -60 63 -60 68 0 4 -20 29 -45 54
-25 26 -57 65 -71 87 -15 22 -31 40 -35 40 -5 0 -9 6 -9 14 0 8 -4 16 -8 18
-11 4 -122 154 -122 165 0 4 -16 25 -35 46 -19 21 -35 44 -35 51 0 8 -7 16
-15 20 -8 3 -15 11 -15 19 0 7 -11 24 -25 37 -14 13 -25 32 -25 42 0 10 -4 18
-10 18 -5 0 -17 17 -27 38 -9 20 -23 43 -30 50 -7 7 -13 20 -13 28 0 8 -4 14
-8 14 -5 0 -17 17 -28 38 -10 20 -21 39 -24 42 -5 5 -24 40 -92 170 -16 30
-33 62 -37 70 -5 8 -17 33 -26 55 -10 22 -23 49 -28 60 -6 11 -17 32 -24 47
-8 15 -18 30 -24 33 -5 4 -9 17 -9 29 0 13 -7 29 -15 36 -8 7 -15 19 -15 26 0
14 -3 22 -33 82 -9 19 -17 45 -17 58 0 13 -4 24 -10 24 -5 0 -10 8 -10 18 0
10 -7 27 -15 38 -8 10 -15 27 -15 37 0 9 -4 17 -9 17 -5 0 -12 20 -15 45 -4
25 -11 45 -17 45 -5 0 -9 13 -9 29 0 16 -4 31 -10 33 -5 2 -11 19 -13 38 -2
19 -8 44 -14 55 -5 11 -18 47 -27 80 -9 33 -21 68 -27 77 -5 10 -9 31 -9 48 0
17 -4 38 -10 48 -11 20 -29 99 -37 157 -3 22 -9 45 -14 51 -6 7 -12 35 -16 63
-3 28 -10 54 -14 57 -5 3 -9 28 -9 55 0 27 -7 66 -15 86 -8 19 -15 64 -15 99
0 34 -4 65 -8 68 -5 3 -12 52 -15 108 -3 57 -11 119 -17 138 -6 22 -10 196
-10 461 0 357 2 432 15 462 10 23 15 69 15 126 0 49 5 93 10 96 5 3 10 30 10
59 0 30 7 70 15 89 8 20 15 56 15 80 0 24 5 48 11 54 6 6 14 35 19 64 19 113
22 125 31 144 8 18 21 73 36 150 3 17 10 35 15 42 16 20 22 127 9 152 -11 20
-13 20 -29 4 -16 -16 -37 -74 -49 -138 -3 -16 -9 -34 -13 -40 -5 -5 -11 -27
-15 -48 -4 -20 -11 -40 -16 -43 -5 -3 -9 -22 -9 -43 0 -21 -7 -52 -15 -67 -8
-16 -15 -48 -15 -71 0 -23 -4 -45 -10 -48 -6 -3 -10 -24 -10 -46 0 -22 -5 -50
-12 -62 -11 -21 -18 -62 -38 -227 -6 -47 -15 -104 -20 -128 -6 -23 -10 -105
-10 -181 0 -90 -4 -141 -11 -143 -12 -4 -14 -481 -2 -500 3 -6 10 -77 14 -157
9 -165 27 -326 39 -356 5 -11 11 -51 15 -90 3 -38 10 -74 14 -80 5 -5 9 -32
10 -59 0 -27 5 -54 11 -60 5 -5 10 -25 10 -44 0 -18 5 -43 12 -55 7 -12 15
-44 19 -72 10 -65 32 -151 42 -161 4 -4 7 -17 7 -28 0 -12 7 -34 15 -50 8 -15
15 -41 15 -57 0 -15 4 -30 9 -33 4 -3 11 -24 15 -46 3 -23 11 -50 16 -60 6
-11 15 -29 20 -40 6 -11 10 -27 10 -36 0 -9 8 -22 17 -29 13 -10 15 -16 6 -27
-9 -10 -7 -19 7 -38 11 -14 20 -32 20 -40 0 -8 7 -24 15 -34 8 -11 15 -28 15
-39 0 -10 7 -25 15 -33 8 -9 15 -26 15 -40 0 -13 5 -24 10 -24 6 0 10 -10 10
-22 0 -13 7 -32 15 -42 8 -11 15 -28 15 -38 0 -10 4 -18 9 -18 4 0 11 -16 14
-35 3 -19 14 -48 25 -63 10 -15 27 -48 38 -74 10 -27 22 -48 26 -48 4 0 12
-18 18 -40 6 -21 17 -46 25 -54 8 -8 15 -19 15 -24 0 -5 7 -15 15 -22 8 -7 15
-19 15 -27 0 -8 6 -21 14 -29 8 -7 22 -35 32 -61 10 -27 26 -55 36 -64 10 -9
18 -21 18 -26 0 -6 7 -16 15 -23 8 -7 15 -21 15 -32 0 -10 6 -21 14 -24 8 -3
17 -13 20 -22 3 -9 17 -35 30 -57 14 -22 30 -49 35 -60 5 -11 23 -34 40 -52
17 -18 31 -39 31 -48 0 -8 7 -18 15 -21 8 -4 15 -13 15 -22 0 -8 7 -22 15 -31
9 -9 33 -42 54 -74 21 -32 48 -69 59 -82 12 -14 22 -29 22 -34 0 -5 7 -11 15
-15 8 -3 15 -11 15 -18 0 -8 8 -21 18 -29 21 -20 48 -52 84 -100 15 -20 39
-50 55 -67 61 -66 89 -98 105 -123 23 -37 398 -411 478 -478 36 -30 79 -67 95
-83 17 -15 50 -43 75 -63 25 -19 52 -41 60 -48 8 -7 31 -24 50 -37 19 -13 53
-41 75 -62 22 -21 45 -38 51 -38 6 0 21 -11 34 -25 13 -14 28 -25 32 -25 8 0
72 -44 88 -60 11 -11 101 -70 108 -70 12 -1 52 -38 52 -49 0 -6 7 -8 15 -5 8
3 22 -1 30 -10 9 -9 23 -16 31 -16 8 0 14 -4 14 -10 0 -5 6 -10 14 -10 8 0 16
-7 20 -15 3 -8 15 -15 26 -15 11 0 20 -4 20 -10 0 -5 5 -10 11 -10 6 0 25 -11
43 -25 18 -14 37 -25 43 -25 5 0 23 -11 39 -25 16 -14 39 -25 51 -25 12 0 28
-7 37 -15 8 -8 22 -15 30 -15 9 0 16 -3 16 -8 0 -4 17 -16 38 -27 20 -11 39
-22 42 -25 15 -16 51 -29 65 -24 8 3 15 1 15 -5 0 -6 5 -11 11 -11 6 0 36 -15
67 -34 32 -19 74 -37 95 -40 20 -4 37 -11 37 -16 0 -6 8 -10 18 -10 10 0 27
-7 38 -15 10 -8 29 -15 40 -15 12 0 24 -7 28 -15 3 -9 18 -15 36 -15 18 0 29
-5 28 -12 -2 -8 8 -11 28 -10 21 2 33 -2 37 -12 4 -10 18 -16 37 -16 16 0 30
-4 30 -10 0 -5 13 -10 29 -10 16 0 31 -6 35 -15 3 -9 19 -15 41 -15 19 0 35
-4 35 -10 0 -5 10 -10 23 -10 12 -1 33 -7 47 -15 14 -8 37 -14 53 -15 15 0 27
-3 27 -8 0 -4 21 -13 48 -20 97 -26 128 -33 170 -41 24 -4 48 -13 54 -19 7 -7
34 -12 60 -12 26 0 48 -4 48 -10 0 -5 23 -12 50 -16 28 -4 50 -10 50 -14 0 -4
21 -10 46 -14 26 -3 53 -11 61 -18 8 -7 34 -11 58 -9 24 1 46 -2 50 -8 3 -6
23 -11 44 -11 21 0 52 -7 67 -15 16 -8 46 -15 66 -15 20 0 40 -5 43 -10 3 -6
29 -10 56 -10 28 0 58 -4 68 -10 22 -11 128 -27 261 -40 52 -5 120 -13 150
-19 68 -13 293 -24 505 -25 176 -1 507 18 526 30 7 4 56 11 108 15 129 11 219
24 261 38 19 6 54 11 77 11 23 0 45 5 48 10 3 6 22 10 41 10 19 0 51 7 71 15
19 8 48 15 64 15 16 0 37 4 47 9 20 10 120 32 177 38 22 2 49 8 60 13 11 5 40
11 65 14 24 2 46 10 48 15 2 6 23 11 46 11 23 0 46 4 51 9 6 5 37 14 70 20 57
10 78 15 188 41 26 6 47 15 47 20 0 4 15 10 33 13 55 9 122 28 132 38 5 5 24
9 42 9 21 0 36 6 39 15 4 8 19 15 34 15 16 0 31 4 34 9 4 5 24 12 46 16 22 4
42 11 46 16 3 5 16 9 29 9 13 0 27 5 30 10 3 6 15 10 27 10 20 0 68 18 120 46
14 8 33 14 41 14 8 0 28 7 43 15 16 8 37 15 48 15 10 0 37 10 60 21 22 12 53
28 68 35 14 8 33 14 41 14 18 0 80 31 85 43 2 4 10 7 17 7 7 0 28 8 47 17 61
30 68 33 86 33 9 0 34 11 54 25 20 14 44 25 52 25 9 0 16 4 16 9 0 5 14 12 30
16 17 4 30 10 30 15 0 5 10 12 21 15 40 13 80 57 77 85 -2 20 -9 26 -34 28
-19 2 -38 -3 -47 -12 -9 -9 -22 -13 -30 -10 -8 3 -17 -2 -20 -10 -4 -9 -16
-16 -27 -16 -11 0 -23 -7 -26 -15 -4 -8 -17 -15 -29 -15 -13 0 -30 -7 -39 -15
-8 -8 -23 -15 -33 -15 -10 0 -40 -12 -68 -25 -27 -14 -58 -25 -67 -25 -10 0
-18 -4 -18 -10 0 -5 -9 -10 -21 -10 -11 0 -33 -6 -47 -14 -43 -23 -99 -46
-111 -46 -6 0 -11 -4 -11 -10 0 -5 -13 -10 -29 -10 -16 0 -31 -5 -33 -12 -3
-7 -21 -12 -41 -12 -24 0 -37 -5 -37 -13 0 -17 -42 -17 -59 0 -11 10 -12 8 -6
-10 6 -20 3 -23 -25 -23 -18 0 -33 -6 -36 -15 -4 -8 -15 -15 -26 -15 -18 0
-67 -18 -110 -41 -10 -5 -29 -9 -42 -9 -13 0 -26 -7 -30 -15 -3 -8 -17 -15
-32 -15 -32 0 -124 -32 -124 -42 0 -5 -12 -8 -27 -8 l-28 0 25 20 c14 11 32
20 40 20 8 0 24 7 34 15 11 8 30 15 43 15 13 0 23 5 23 10 0 6 9 10 21 10 11
0 17 4 14 10 -3 5 2 10 12 10 10 0 43 13 73 28 30 16 68 32 84 36 17 4 41 15
55 25 14 10 44 24 66 32 22 8 44 20 48 26 10 16 37 17 37 2 0 -6 6 -9 13 -6 6
2 11 11 10 19 -2 8 14 21 40 32 70 29 112 51 115 59 2 4 15 7 28 7 15 0 24 6
24 15 0 10 10 15 31 15 17 0 28 4 24 10 -3 6 4 10 18 10 14 0 30 7 37 15 7 8
21 15 30 15 10 0 20 3 22 8 3 7 97 55 131 66 9 3 17 10 17 16 0 5 11 10 24 10
13 0 29 7 36 15 7 8 19 15 27 15 8 0 11 5 8 10 -4 6 5 10 20 10 14 0 28 7 31
15 4 8 12 15 20 15 8 0 32 11 54 25 22 14 47 25 55 25 9 0 18 7 21 15 4 8 15
15 26 15 12 0 28 8 37 19 9 10 25 21 36 25 26 8 80 56 88 78 3 9 -1 22 -10 29
-12 11 -20 10 -45 -4 -16 -9 -36 -17 -44 -17 -8 0 -14 -4 -14 -9 0 -5 -8 -11
-17 -15 -19 -6 -55 -27 -63 -37 -3 -4 -15 -9 -27 -13 -13 -4 -23 -12 -23 -17
0 -5 -9 -9 -19 -9 -11 0 -23 -5 -26 -10 -3 -6 -25 -19 -48 -30 -23 -11 -64
-34 -92 -50 -27 -16 -58 -29 -68 -29 -10 -1 -20 -7 -23 -15 -3 -8 -16 -17 -30
-20 -13 -4 -24 -11 -24 -16 0 -6 -7 -10 -16 -10 -17 0 -225 -99 -234 -112 -3
-3 -18 -10 -33 -13 -15 -4 -27 -11 -27 -16 0 -5 -8 -9 -19 -9 -10 0 -24 -7
-31 -15 -14 -17 -50 -20 -50 -4 0 5 15 16 34 24 19 8 37 19 41 25 3 5 17 10
31 10 13 0 24 4 24 9 0 5 14 12 30 16 17 4 30 11 30 16 0 5 6 9 14 9 17 0 80
32 84 43 2 4 10 7 18 7 8 0 14 4 14 9 0 5 11 12 25 15 14 4 25 11 25 16 0 6 5
10 12 10 18 0 88 33 88 42 0 4 6 8 14 8 7 0 19 7 26 15 7 8 22 15 33 15 11 0
30 11 43 25 13 14 32 25 43 25 10 0 21 4 23 8 2 4 35 27 73 51 39 24 72 47 75
51 3 4 15 10 28 14 12 4 22 11 22 16 0 4 11 11 25 14 14 4 25 11 25 16 0 6 7
10 15 10 8 0 15 4 15 8 0 5 16 17 35 28 19 10 35 22 35 26 0 5 7 8 15 8 8 0
15 4 15 10 0 5 15 17 33 26 17 9 48 30 67 46 55 45 59 48 65 48 9 0 71 48 114
87 20 18 39 33 43 33 3 0 20 13 36 30 17 17 37 30 46 30 8 0 18 9 21 20 3 11
9 20 13 20 4 0 28 20 54 45 26 25 50 45 54 45 3 0 15 11 26 25 11 14 26 25 34
25 8 0 20 11 26 25 6 13 19 27 29 30 10 3 21 14 24 24 3 11 14 21 25 24 11 3
23 12 26 22 8 21 58 71 79 79 10 3 19 15 22 25 2 10 16 24 29 30 13 6 24 14
24 19 0 5 27 36 59 70 51 53 64 62 95 62 60 0 201 36 222 57 7 7 19 13 27 13
8 0 20 7 27 15 7 8 19 15 28 15 15 0 252 235 252 250 0 11 70 81 113 114 20
16 37 31 37 35 0 4 -17 15 -37 25 -21 10 -50 25 -65 32 -14 8 -38 14 -52 14
-14 0 -26 5 -26 10 0 6 -22 10 -48 10 -27 0 -51 2 -54 5 -7 7 14 55 25 55 4 0
7 7 7 15 0 9 7 18 15 21 8 4 15 15 15 25 0 10 4 19 9 19 5 0 13 10 17 22 6 20
51 95 64 108 3 3 14 22 24 43 11 20 23 37 28 37 4 0 8 11 8 24 0 21 25 82 40
96 3 3 14 24 25 47 11 24 23 43 28 43 4 0 7 10 7 23 0 23 23 74 52 115 8 13
14 32 11 43 -3 10 0 19 6 19 6 0 11 11 11 25 0 14 5 25 10 25 6 0 10 11 10 24
0 13 6 37 14 53 27 53 46 104 46 119 0 9 6 22 14 29 7 8 19 44 26 82 13 69 27
93 53 93 8 0 19 6 25 13 6 7 27 19 47 27 19 7 35 19 35 26 0 6 11 15 25 18 14
4 25 12 25 19 0 6 18 31 40 55 22 24 40 52 40 62 0 11 5 20 10 20 6 0 10 8 10
19 0 10 7 24 15 31 8 7 15 27 15 45 0 19 4 35 10 37 5 2 12 26 16 53 3 28 9
59 14 70 5 11 11 70 15 130 8 157 15 208 32 227 8 9 13 25 11 35 -3 15 -13 18
-58 16 -29 0 -71 -7 -92 -14 -47 -15 -56 -7 -39 34 8 18 18 64 23 102 4 39 13
104 18 145 29 228 35 645 11 751 -16 67 -14 77 22 95 44 22 87 64 87 85 0 10
4 20 9 24 6 3 18 20 27 38 15 26 19 68 23 232 3 110 10 205 14 212 11 18 -31
59 -46 44 -6 -6 -25 -11 -41 -11 -17 0 -40 -7 -50 -15 -11 -8 -31 -15 -44 -15
-13 0 -30 -6 -37 -12 -35 -32 -45 -38 -60 -38 -9 0 -18 -7 -21 -15 -11 -27
-21 -16 -39 40 -9 30 -21 57 -26 61 -5 3 -9 18 -9 35 0 16 -4 29 -10 29 -5 0
-10 13 -10 29 0 16 -7 34 -15 41 -9 7 -15 29 -15 53 0 53 -28 126 -57 152 -13
11 -23 28 -23 38 0 9 -4 17 -9 17 -4 0 -23 29 -42 65 -18 36 -36 65 -40 65 -3
0 -9 17 -13 38 -3 21 -15 47 -26 57 -11 10 -20 26 -20 37 0 10 -4 18 -8 18 -5
0 -14 11 -20 25 -27 59 -72 3 -51 -64 15 -47 41 -94 57 -104 6 -4 12 -18 12
-31 0 -22 -2 -23 -117 -22 -93 0 -128 -3 -165 -18 -60 -23 -61 -42 -8 -90 22
-20 40 -40 40 -46 0 -5 9 -15 20 -22 11 -7 20 -17 20 -23 0 -6 8 -18 18 -27 9
-10 28 -29 42 -44 14 -14 50 -44 79 -67 46 -34 62 -40 97 -38 23 1 45 -3 49
-9 8 -13 55 -13 55 1 0 21 45 4 48 -18 2 -13 8 -23 13 -23 5 0 9 -14 9 -31 0
-17 7 -37 15 -45 8 -9 15 -24 15 -34 0 -10 7 -31 15 -46 8 -16 15 -38 15 -49
0 -11 4 -26 9 -34 6 -9 1 -29 -15 -59 -21 -39 -24 -59 -24 -144 0 -96 2 -103
40 -184 l41 -84 39 0 c46 0 49 -4 57 -70 3 -27 10 -50 14 -50 12 0 11 -214 -1
-319 -6 -47 -15 -140 -20 -206 -18 -203 -27 -289 -33 -305 -4 -8 -8 -44 -10
-80 -3 -36 -9 -66 -16 -68 -6 -2 -11 -16 -11 -32 0 -21 -6 -29 -25 -34 -14 -4
-25 -11 -25 -16 0 -6 -6 -10 -13 -10 -7 0 -23 -11 -35 -25 -12 -14 -26 -25
-31 -25 -11 0 -113 -102 -135 -135 -35 -53 -66 -119 -66 -139 0 -12 -7 -30
-15 -40 -11 -15 -15 -48 -15 -124 0 -114 -12 -170 -44 -217 -12 -16 -30 -48
-41 -70 -11 -22 -23 -41 -27 -43 -5 -2 -8 -12 -8 -23 0 -10 -4 -19 -9 -19 -5
0 -12 -8 -15 -17 -4 -10 -14 -31 -23 -48 -14 -24 -18 -26 -21 -13 -2 10 4 32
12 50 9 17 16 39 16 50 0 10 5 18 10 18 6 0 10 12 10 28 1 15 7 38 15 52 8 14
14 42 15 63 0 20 5 37 10 37 6 0 10 17 10 38 1 20 7 48 15 62 8 14 14 42 15
63 0 20 5 37 10 37 6 0 10 15 10 33 1 17 7 50 15 72 8 22 15 61 15 87 0 26 4
49 9 52 4 3 11 40 15 83 4 43 11 82 16 88 4 5 10 53 13 105 7 112 19 187 35
217 16 28 17 263 1 263 -7 0 -10 38 -8 115 2 109 1 116 -21 140 -28 30 -41 31
-64 6 -19 -21 -46 -18 -46 5 0 8 -4 14 -10 14 -5 0 -33 22 -60 49 -28 28 -60
53 -70 56 -11 4 -20 11 -20 16 0 5 -13 9 -29 9 -26 0 -29 -4 -34 -37 -14 -95
-26 -151 -41 -193 -45 -122 -56 -184 -56 -322 0 -75 4 -139 9 -142 5 -3 12
-22 15 -41 4 -19 11 -35 15 -35 5 0 12 -12 16 -27 8 -33 56 -102 71 -103 15 0
65 -55 58 -63 -4 -4 -8 -19 -9 -34 -2 -33 -23 -111 -36 -135 -5 -10 -9 -33 -9
-52 0 -18 -7 -39 -15 -46 -8 -7 -15 -25 -15 -41 0 -16 -4 -29 -10 -29 -5 0
-10 -15 -10 -32 0 -18 -9 -44 -19 -57 -10 -13 -16 -32 -13 -43 2 -10 0 -24 -6
-31 -5 -6 -12 -29 -16 -49 -4 -21 -11 -38 -16 -38 -6 0 -10 -11 -10 -25 0 -14
-4 -33 -9 -43 -22 -44 -41 -94 -41 -110 0 -10 -4 -22 -9 -28 -5 -5 -19 -34
-31 -64 -27 -70 -46 -90 -82 -90 -15 0 -28 -4 -28 -10 0 -5 -9 -10 -19 -10
-11 0 -26 -7 -35 -15 -8 -8 -21 -15 -29 -15 -8 0 -20 -7 -27 -15 -7 -8 -19
-15 -26 -15 -8 0 -14 -4 -14 -10 0 -5 -6 -10 -14 -10 -8 0 -17 -8 -19 -17 -4
-14 -5 -13 -6 4 0 12 4 25 9 28 6 3 10 15 10 25 0 11 9 39 19 62 22 47 61 173
61 195 0 22 26 43 54 43 13 0 31 7 40 15 8 8 22 15 31 15 42 0 155 134 155
184 0 9 5 16 10 16 6 0 10 15 10 33 0 17 7 50 15 72 8 22 14 68 15 103 0 34 4
62 10 62 6 0 10 15 10 34 0 19 4 37 9 40 13 8 -11 57 -25 52 -7 -3 -32 -10
-55 -16 -24 -7 -53 -16 -64 -20 -11 -4 -35 -12 -53 -18 l-34 -11 7 67 c11 109
10 788 -1 898 -12 111 -16 124 -45 124 -10 0 -19 5 -19 10 0 18 -50 11 -56 -7
-3 -10 -11 -28 -17 -41 -8 -17 -8 -31 1 -56 14 -37 16 -79 5 -90 -9 -8 -29
-206 -39 -373 -3 -57 -10 -103 -15 -103 -5 0 -32 21 -59 48 -69 65 -72 67
-129 102 -70 43 -81 37 -81 -45 0 -36 -4 -65 -10 -65 -5 0 -12 -23 -16 -50 -4
-28 -11 -53 -15 -56 -5 -3 -9 -18 -9 -34 0 -16 -4 -31 -9 -35 -6 -3 -13 -26
-17 -50 -3 -25 -10 -48 -15 -51 -5 -3 -9 -27 -9 -54 0 -26 -5 -50 -10 -52 -15
-5 -26 -194 -12 -210 5 -7 13 -39 17 -70 4 -32 11 -58 15 -58 4 0 11 -16 15
-36 6 -35 51 -114 64 -114 4 0 14 -13 24 -29 17 -28 16 -31 -18 -118 l-35 -88
3 50 c2 28 7 58 11 68 7 14 3 17 -22 17 -17 0 -34 -4 -37 -10 -3 -5 -19 -10
-36 -10 -16 0 -29 -4 -29 -10 0 -5 -11 -12 -25 -16 -14 -3 -25 -10 -25 -15 0
-5 -7 -9 -15 -9 -8 0 -22 -11 -31 -26 -10 -15 -23 -23 -32 -19 -9 3 -12 0 -9
-9 4 -10 0 -12 -15 -8 -17 4 -19 1 -13 -17 4 -12 2 -21 -4 -21 -6 0 -11 5 -11
12 0 9 -3 9 -12 0 -10 -10 -10 -15 2 -22 8 -5 11 -13 6 -17 -5 -4 -11 -2 -13
5 -5 14 -33 17 -33 3 0 -6 4 -12 10 -16 5 -3 1 -19 -11 -38 -10 -18 -22 -40
-26 -50 -5 -17 -9 -15 -37 16 -41 46 -133 118 -176 139 -112 53 -154 69 -178
66 -18 -2 -26 -8 -23 -18 7 -30 0 -240 -9 -264 -13 -34 -15 -326 -3 -335 6 -3
13 -27 17 -53 4 -27 11 -48 17 -48 5 0 9 -15 9 -34 0 -25 -7 -40 -25 -54 -13
-11 -22 -21 -20 -23 2 -3 -9 -13 -26 -24 -16 -11 -29 -25 -29 -30 0 -6 -12
-22 -27 -37 -16 -14 -33 -32 -39 -39 -29 -35 -241 -232 -305 -283 -25 -20
-160 -137 -169 -146 -3 -3 -30 -25 -60 -50 -30 -25 -56 -48 -58 -52 -2 -5 -9
-8 -15 -8 -7 0 -31 -18 -55 -40 -24 -22 -46 -40 -49 -40 -9 0 -135 -81 -151
-97 -7 -7 -17 -13 -20 -13 -4 0 -25 -16 -47 -35 -22 -19 -47 -35 -57 -35 -9 0
-18 -3 -20 -8 -5 -13 -102 -71 -109 -66 -9 5 46 64 59 64 6 0 21 15 35 33 14
17 69 77 121 131 53 55 105 114 116 132 19 33 19 34 0 44 -50 27 -86 8 -194
-101 -95 -96 -152 -149 -159 -149 -4 0 -19 -12 -35 -28 -15 -15 -50 -45 -77
-67 -28 -22 -60 -50 -72 -62 -12 -13 -28 -23 -35 -23 -7 0 -24 -10 -38 -23
-14 -13 -46 -33 -73 -46 -26 -13 -61 -36 -76 -52 -16 -16 -36 -29 -45 -29 -8
0 -19 -6 -23 -13 -4 -7 -25 -21 -45 -31 -21 -9 -38 -21 -38 -26 0 -6 -9 -10
-19 -10 -11 0 -23 -4 -26 -10 -3 -5 -15 -10 -26 -10 -11 0 -22 -7 -25 -15 -4
-8 -14 -15 -24 -15 -11 0 -22 -4 -25 -10 -3 -5 -15 -10 -26 -10 -11 0 -22 -7
-25 -15 -4 -8 -17 -15 -30 -15 -13 0 -24 -4 -24 -10 0 -5 -11 -12 -25 -16 -14
-3 -25 -10 -25 -15 0 -5 -11 -9 -24 -9 -14 0 -28 -4 -31 -10 -3 -5 -14 -10
-24 -10 -9 0 -22 -5 -29 -12 -11 -11 -66 -34 -107 -44 -11 -3 -29 -10 -40 -15
-50 -22 -272 -89 -296 -89 -15 0 -30 -4 -33 -9 -3 -4 -33 -11 -66 -15 -33 -4
-60 -11 -60 -16 0 -6 -20 -10 -44 -10 -23 0 -56 -4 -72 -10 -32 -11 -145 -27
-274 -40 -47 -4 -110 -13 -140 -18 -30 -6 -149 -13 -265 -17 -115 -3 -220 -9
-233 -12 -12 -3 -28 -1 -35 5 -6 5 -65 12 -130 16 -97 4 -123 9 -146 26 -16
11 -36 20 -44 20 -9 0 -22 6 -29 14 -18 18 -62 24 -253 36 -88 5 -171 14 -185
19 -14 5 -40 13 -57 16 -18 4 -33 11 -33 16 0 5 -20 9 -45 9 -25 0 -45 5 -45
10 0 6 -12 10 -27 10 -16 0 -37 7 -47 15 -11 8 -30 15 -43 15 -13 0 -23 4 -23
9 0 5 -16 12 -35 15 -27 5 -35 12 -35 29 -1 12 -9 31 -18 42 -21 23 -77 55
-98 55 -8 0 -14 4 -14 10 0 5 -16 12 -35 16 -32 6 -50 24 -24 24 5 0 7 4 4 10
-4 6 -12 6 -24 -1 -13 -9 -25 -8 -49 5 -17 9 -40 16 -52 16 -11 0 -20 4 -20 8
0 4 -24 16 -52 26 -29 11 -57 23 -63 27 -5 5 -19 9 -32 9 -13 0 -26 7 -29 15
-4 8 -17 15 -29 15 -13 0 -25 3 -27 8 -1 4 -34 22 -71 41 -37 19 -70 38 -73
43 -3 4 -16 8 -28 8 -13 0 -29 7 -36 15 -7 8 -19 15 -26 15 -8 0 -14 5 -14 10
0 6 -6 10 -14 10 -8 0 -23 10 -34 23 -12 12 -41 44 -66 71 -26 27 -46 50 -46
53 0 2 -10 15 -22 28 -13 13 -41 45 -63 71 -22 26 -53 61 -69 78 -16 17 -40
47 -55 66 -14 19 -40 49 -58 67 -33 32 -42 53 -22 53 5 0 7 5 3 11 -4 8 -9 8
-17 0 -15 -15 -27 -14 -27 3 0 8 -4 16 -8 18 -4 2 -23 24 -42 51 -18 26 -37
47 -42 47 -5 0 -6 10 -3 23 4 15 3 18 -3 8 -8 -11 -14 -9 -31 8 -11 11 -18 27
-15 36 4 10 0 15 -10 15 -9 0 -20 8 -23 18 -4 9 -14 24 -22 32 -9 8 -38 48
-65 88 -26 39 -52 72 -57 72 -5 0 -9 7 -9 15 0 8 -3 15 -8 15 -4 0 -16 16 -26
35 -11 19 -22 35 -26 35 -4 0 -10 8 -14 18 -8 25 -28 54 -53 79 -13 12 -23 29
-23 37 0 8 -6 19 -13 23 -7 4 -21 25 -31 46 -9 20 -21 37 -26 37 -6 0 -10 9
-10 19 0 29 -11 51 -24 51 -7 0 -22 21 -34 47 -12 27 -26 55 -30 63 -9 16 -12
20 -74 139 -22 42 -44 80 -49 85 -5 6 -9 22 -9 37 0 15 -7 29 -15 33 -8 3 -15
12 -15 21 0 8 -11 36 -24 63 -35 69 -56 121 -56 135 0 20 -71 169 -94 198 -46
58 -126 46 -126 -19 -1 -26 -1 -26 -15 -8 -8 11 -15 31 -15 45 -1 14 -7 37
-15 51 -8 14 -14 52 -15 87 0 34 -4 64 -8 67 -5 3 -12 58 -15 122 -4 65 -11
122 -17 128 -6 6 -10 71 -10 162 0 91 -4 155 -10 159 -5 3 -10 21 -10 39 0 25
-10 44 -41 77 l-42 44 0 427 c0 285 4 432 11 440 6 7 14 57 18 111 4 54 11
100 15 103 5 3 9 36 9 73 0 37 5 72 11 78 6 6 13 38 16 72 3 34 10 64 14 67 5
3 9 27 9 54 0 27 4 52 10 55 5 3 12 28 16 55 4 28 10 50 15 50 5 0 9 19 9 43
0 23 7 51 15 61 8 11 15 29 15 40 0 11 6 38 14 61 8 22 19 60 26 85 7 25 15
52 20 60 4 9 11 31 15 50 4 19 11 41 15 50 18 36 29 67 35 98 4 17 11 32 16
32 5 0 9 11 9 25 0 14 4 25 9 25 5 0 12 13 16 30 4 16 11 32 16 35 5 4 9 19 9
35 0 15 4 30 8 32 10 4 72 131 72 147 0 6 6 21 13 33 11 20 26 37 120 137 20
22 37 45 37 51 0 5 6 10 13 10 6 0 23 14 37 32 29 37 46 55 63 65 20 13 48 78
42 95 -10 25 -42 28 -67 6 -19 -16 -24 -17 -26 -5 -3 16 39 90 58 102 5 3 10
12 10 19 0 13 76 135 91 146 3 3 21 30 40 60 18 30 37 57 41 58 4 2 8 10 8 17
0 7 3 15 8 17 10 4 122 155 122 164 0 4 10 16 23 28 12 12 42 46 67 76 25 30
49 57 53 59 19 8 46 46 52 72 4 16 13 29 21 29 8 0 14 4 14 9 0 13 206 221
219 221 6 0 11 6 11 14 0 8 9 18 20 21 11 3 20 11 20 18 0 6 62 70 137 143
132 129 137 132 154 113 9 -10 21 -19 28 -19 6 0 11 -6 11 -13 0 -7 14 -21 30
-30 17 -10 30 -22 30 -28 0 -5 8 -9 18 -9 10 0 27 -7 38 -15 10 -8 27 -15 37
-15 9 0 17 -4 17 -9 0 -5 17 -12 38 -16 20 -4 42 -10 47 -15 19 -14 259 -38
398 -39 64 -1 107 -5 107 -11 0 -5 18 -10 40 -10 49 0 61 20 36 62 -10 16 -16
35 -13 42 3 7 -3 30 -14 52 -10 21 -18 44 -19 51 0 21 -44 98 -91 158 l-46 61
23 17 c12 9 32 17 43 17 11 0 23 5 27 11 3 6 14 9 24 6 13 -3 17 0 13 9 -3 8
3 17 13 21 10 4 19 2 22 -5 5 -15 32 -16 32 -2 0 6 -7 10 -15 10 -8 0 -15 5
-15 10 0 6 5 10 10 10 23 0 136 129 146 168 3 12 10 22 14 22 12 0 19 39 8 46
-5 3 -41 7 -79 8 -50 2 -74 7 -86 19 -16 16 -15 17 27 17 25 1 56 7 70 15 14
8 47 14 74 15 47 0 51 -2 112 -65 35 -36 68 -65 73 -65 5 0 11 -3 13 -7 6 -14
88 -54 98 -48 6 4 17 -1 26 -9 10 -11 34 -16 69 -16 30 0 57 -4 60 -10 8 -13
162 -13 217 0 92 21 198 33 311 35 69 2 123 7 130 14 7 7 -2 34 -33 96 -24 47
-47 85 -52 85 -4 0 -8 6 -8 13 0 7 -18 33 -41 57 -33 36 -40 49 -35 71 3 18 1
31 -8 36 -8 4 -15 17 -17 28 -4 17 -13 20 -67 23 -34 2 -62 6 -62 10 0 5 -17
14 -37 21 -21 8 -45 19 -53 26 -8 7 -26 15 -40 18 -46 11 -100 32 -100 39 0 5
4 8 8 8 5 0 16 19 25 43 10 23 30 66 44 95 31 62 22 77 -37 67 -19 -4 -107 -7
-195 -8 -134 -2 -165 -5 -188 -19 -14 -10 -35 -18 -47 -18 -11 0 -20 -4 -20
-10 0 -5 -7 -10 -16 -10 -20 0 -103 -85 -126 -129 -10 -18 -18 -54 -18 -82 l0
-49 -57 0 c-32 -1 -85 -7 -118 -15 -33 -8 -79 -15 -102 -15 -23 0 -45 -4 -48
-10 -3 -5 -26 -10 -49 -10 l-43 0 57 58 c31 31 59 65 63 75 3 9 11 17 17 17 5
0 10 7 10 15 0 9 11 26 25 39 14 13 25 30 25 39 0 8 7 28 14 44 8 15 17 36 20
46 3 9 15 17 26 17 11 0 28 4 38 9 9 5 44 17 77 26 33 9 74 21 91 26 17 5 42
9 56 9 13 0 28 3 32 8 7 7 93 27 166 39 19 3 40 9 45 14 13 10 124 31 187 35
26 1 56 8 68 14 12 6 38 8 63 5 27 -4 58 -1 86 8 l43 15 -5 -38 c-6 -48 19
-98 77 -155 46 -46 119 -95 139 -95 7 0 22 -7 33 -15 10 -8 40 -15 66 -15 26
0 50 -4 53 -10 3 -5 39 -10 80 -10 41 0 77 5 80 10 3 6 35 10 71 10 36 0 80 7
100 15 40 17 159 18 185 2 13 -8 21 -7 33 6 9 8 16 21 16 27 0 13 -50 105 -89
164 -28 43 -111 126 -125 126 -3 0 -19 14 -36 30 -31 30 -75 53 -160 84 -51
18 -215 22 -225 6 -3 -5 -18 -10 -32 -10 -13 0 -39 -7 -56 -16 -53 -28 -61
-31 -95 -39 -18 -3 -32 -11 -32 -16 0 -5 -11 -9 -25 -9 -18 0 -25 5 -25 19 0
10 -8 22 -17 25 -25 10 -522 7 -541 -3 -10 -4 -68 -11 -130 -14 -62 -3 -119
-10 -125 -15 -7 -6 -39 -13 -72 -16 -98 -9 -215 -29 -215 -38 0 -4 -20 -8 -45
-8 -25 0 -62 -7 -82 -15 -19 -8 -50 -15 -68 -15 -19 0 -35 -6 -38 -12 -3 -10
-9 -9 -22 4 -15 14 -16 20 -5 33 9 11 11 42 8 116 -4 86 -3 102 11 107 9 3 18
8 21 11 3 3 30 19 60 35 30 16 62 34 70 41 8 7 31 15 50 18 81 13 150 31 150
39 0 4 27 8 59 8 33 0 63 5 66 10 3 6 15 10 25 10 16 0 19 -9 22 -56 3 -55 3
-56 53 -83 68 -37 135 -61 168 -61 16 0 38 -5 49 -11 54 -29 238 -1 328 50 30
17 64 35 75 40 32 14 162 148 186 191 l22 39 86 -3 c87 -2 209 -21 246 -36 11
-5 39 -12 62 -15 24 -4 45 -11 49 -16 3 -5 19 -9 36 -9 31 0 62 -8 141 -36 20
-8 53 -14 72 -14 19 0 35 -4 35 -8 0 -11 55 -30 110 -38 25 -3 68 -17 97 -30
28 -13 58 -24 66 -24 19 0 111 -36 169 -66 14 -8 34 -14 43 -14 9 0 24 -7 33
-16 14 -15 14 -18 1 -28 -12 -9 -14 -23 -8 -71 11 -90 19 -117 45 -152 13 -17
24 -35 24 -38 0 -8 31 -43 118 -134 34 -36 62 -72 62 -79 0 -9 10 -12 28 -10
19 2 28 9 30 26 2 12 7 22 12 22 17 0 34 76 39 184 l6 110 33 8 c36 10 35 8
23 41 -6 16 -23 29 -45 37 -20 6 -36 16 -36 21 0 5 -5 9 -10 9 -6 0 -21 10
-33 23 -37 39 -104 87 -120 87 -8 0 -17 6 -19 12 -3 9 -27 13 -71 13 -39 0
-71 5 -78 13 -7 6 -23 12 -35 12 -13 0 -25 4 -28 9 -3 4 -19 11 -36 14 -21 5
-28 11 -24 22 3 8 14 15 24 15 10 0 25 6 32 14 8 7 23 16 35 20 35 11 133 116
133 143 0 7 5 13 10 13 6 0 10 8 10 18 0 9 7 26 15 36 8 11 15 30 15 43 0 13
5 23 10 23 14 0 12 37 -2 46 -7 4 -56 9 -110 10 -54 2 -108 9 -120 15 -12 7
-64 14 -115 17 -75 4 -97 2 -117 -12 -14 -9 -35 -16 -46 -16 -11 0 -30 -6 -41
-12 -34 -21 -109 -92 -109 -105 0 -6 -6 -13 -12 -15 -7 -3 -13 -13 -14 -24 0
-10 -1 -41 -2 -69 -2 -38 -5 -46 -14 -37 -7 7 -20 12 -30 12 -10 0 -26 4 -36
9 -23 12 -114 31 -177 38 -27 3 -54 9 -59 14 -6 5 -33 9 -61 9 -29 0 -74 7
-101 15 -27 8 -82 15 -121 15 -66 0 -73 2 -73 19 0 11 4 22 9 25 5 4 12 24 16
46 4 22 10 40 15 40 13 0 18 36 8 54 -11 19 -25 21 -31 4z m-1940 -644 c-3 -3
-12 -4 -19 -1 -8 3 -5 6 6 6 11 1 17 -2 13 -5z m-84 -49 c-21 -19 -44 -35 -51
-35 -7 0 -10 -4 -7 -10 3 -5 -1 -10 -10 -10 -9 0 -21 -4 -28 -10 -53 -43 -76
-60 -81 -60 -12 0 -6 38 7 43 9 3 9 7 -2 20 -12 15 -11 17 13 17 15 0 25 5 24
13 -2 7 9 13 25 15 15 2 27 8 27 13 0 5 8 9 18 9 9 0 28 7 42 14 51 28 63 18
23 -19z m2374 29 c-3 -3 -12 -4 -19 -1 -8 3 -5 6 6 6 11 1 17 -2 13 -5z m73
-30 c0 -2 -9 -4 -21 -4 -11 0 -18 4 -14 10 5 8 35 3 35 -6z m50 -22 c0 -5 -7
-9 -15 -9 -8 0 -15 4 -15 9 0 4 7 8 15 8 8 0 15 -4 15 -8z m-2723 -89 c-3 -10
-5 -2 -5 17 0 19 2 27 5 18 2 -10 2 -26 0 -35z m-26 -74 c-6 -16 -10 -18 -10
-7 -1 22 12 55 16 42 2 -6 -1 -22 -6 -35z m159 -119 c0 -5 -7 -10 -15 -10 -8
0 -15 -4 -15 -10 0 -5 -7 -10 -17 -10 -13 0 -11 4 7 20 25 22 40 26 40 10z
m-711 -152 c1 -21 6 -38 11 -38 6 0 10 -7 10 -15 0 -17 49 -65 67 -65 28 0 12
-38 -24 -56 -21 -10 -42 -25 -46 -31 -4 -7 -15 -13 -22 -13 -8 0 -15 -4 -15
-9 0 -5 -8 -12 -17 -15 -33 -13 -63 -31 -63 -38 0 -5 -4 -8 -9 -8 -11 0 -135
-82 -139 -92 -2 -5 -10 -8 -18 -8 -8 0 -14 -4 -14 -9 0 -5 -17 -20 -37 -32
-21 -13 -39 -27 -41 -31 -2 -4 -8 -8 -14 -8 -6 0 -18 -8 -27 -19 -9 -10 -30
-25 -48 -35 -18 -9 -36 -22 -40 -29 -4 -7 -20 -20 -35 -30 -15 -9 -41 -29 -57
-45 -61 -56 -79 -72 -84 -72 -10 0 -83 -67 -198 -182 -64 -64 -126 -121 -138
-127 -12 -7 -21 -16 -21 -22 0 -10 -100 -109 -110 -109 -3 0 -14 -16 -24 -35
-11 -19 -25 -35 -33 -35 -7 0 -13 -5 -13 -10 0 -6 -5 -16 -10 -23 -25 -29 -54
-64 -78 -96 -15 -18 -35 -42 -44 -54 -10 -11 -18 -23 -18 -26 0 -4 -16 -24
-35 -44 -19 -20 -56 -67 -82 -104 -26 -38 -50 -69 -55 -71 -4 -2 -8 -10 -8
-18 0 -8 -4 -14 -10 -14 -5 0 -10 -5 -10 -10 0 -6 -18 -35 -40 -65 -22 -30
-40 -58 -40 -64 0 -5 -7 -11 -15 -15 -8 -3 -15 -15 -15 -26 0 -11 -4 -20 -10
-20 -5 0 -10 -7 -10 -15 0 -8 -4 -15 -10 -15 -5 0 -10 11 -10 25 0 14 4 25 10
25 5 0 17 17 27 38 9 20 19 39 22 42 4 3 22 29 41 57 19 29 38 53 43 53 4 0 7
7 7 15 0 17 1 18 50 76 16 20 30 41 30 45 0 5 11 21 25 36 14 15 25 30 25 33
0 7 9 19 59 76 23 25 41 51 41 56 0 5 11 20 25 33 14 13 25 29 25 37 0 7 4 13
9 13 4 0 20 17 33 38 14 20 37 51 51 67 57 66 67 78 67 86 0 4 9 10 19 14 10
3 22 17 25 30 4 14 11 25 16 25 6 0 10 6 10 14 0 7 27 42 60 76 33 34 60 65
60 69 0 3 20 28 45 54 25 27 45 51 45 55 0 3 24 30 53 59 28 30 64 68 80 86
63 74 83 94 100 100 9 4 17 13 17 21 0 7 11 21 25 30 14 9 25 23 25 31 0 8 4
15 9 15 5 0 63 52 128 115 163 159 169 165 176 165 7 0 30 18 72 57 14 12 34
24 45 28 11 3 20 13 20 20 0 8 14 22 30 32 17 9 30 22 31 28 2 22 17 -42 18
-77z m2499 -75 c-10 -2 -26 -2 -35 0 -10 3 -2 5 17 5 19 0 27 -2 18 -5z
m-1710 -133 c33 -22 69 -40 80 -40 11 0 22 -5 24 -11 2 -6 25 -13 51 -16 37
-5 45 -8 36 -19 -6 -7 -24 -16 -40 -19 -16 -4 -31 -11 -34 -16 -4 -5 -19 -9
-36 -9 -16 0 -29 -4 -29 -9 0 -5 -18 -11 -40 -15 -22 -3 -40 -10 -40 -14 0 -4
-21 -15 -48 -26 -26 -10 -60 -24 -77 -31 -30 -14 -58 -9 -34 6 19 11 20 71 2
84 -10 7 -13 25 -11 55 3 43 5 46 57 72 29 14 58 31 64 37 14 14 5 17 75 -29z
m-414 -179 c3 -5 23 -11 43 -14 46 -6 101 -26 134 -49 l24 -17 -22 0 c-13 -1
-23 -5 -23 -9 0 -5 -21 -19 -46 -33 -83 -44 -119 -64 -157 -86 -56 -34 -63
-31 -70 32 -3 30 -13 62 -21 71 -20 19 -21 44 -1 44 7 0 18 6 22 14 10 18 73
54 95 55 9 1 19 -3 22 -8z m-210 -140 c-27 -26 -69 -60 -94 -76 -25 -17 -54
-38 -64 -47 -11 -10 -24 -18 -30 -18 -5 0 -18 -7 -28 -17 -36 -32 -17 4 22 43
22 21 40 44 40 49 0 6 13 16 28 22 15 7 36 20 47 28 51 39 110 73 118 68 5 -3
-12 -27 -39 -52z m-513 -529 c-6 -2 -11 -11 -11 -20 -1 -24 -21 -48 -48 -56
-30 -10 -28 -1 10 48 52 65 53 66 57 48 2 -9 -2 -18 -8 -20z m-81 -113 c0 -5
-7 -9 -15 -9 -9 0 -12 6 -9 15 6 15 24 11 24 -6z m-40 -29 c-20 -13 -33 -13
-25 0 3 6 14 10 23 10 15 0 15 -2 2 -10z m491 -118 c-28 -27 -51 -53 -51 -58
0 -5 -9 -16 -21 -24 -11 -8 -27 -27 -34 -41 -8 -15 -32 -46 -54 -70 -22 -24
-41 -47 -41 -51 0 -4 -6 -13 -12 -20 -7 -7 -33 -40 -58 -73 -25 -33 -48 -61
-52 -63 -5 -2 -8 -10 -8 -18 0 -8 -4 -14 -10 -14 -5 0 -10 -9 -10 -20 0 -11
-4 -20 -9 -20 -5 0 -20 -17 -32 -37 -13 -21 -27 -39 -31 -41 -4 -2 -8 -11 -8
-21 0 -10 -16 -35 -35 -57 -19 -21 -38 -48 -42 -59 -3 -11 -17 -37 -29 -57
-13 -21 -24 -42 -24 -48 0 -10 -8 -21 -37 -55 -7 -7 -13 -20 -13 -29 0 -8 -4
-17 -9 -20 -5 -4 -20 -27 -34 -54 -13 -26 -38 -74 -55 -107 -18 -33 -32 -65
-32 -72 0 -7 -4 -13 -10 -13 -5 0 -10 -11 -10 -25 0 -14 -4 -25 -10 -25 -5 0
-12 -11 -16 -25 -3 -14 -10 -25 -15 -25 -5 0 -9 -11 -9 -24 0 -14 -7 -31 -15
-40 -8 -8 -15 -20 -15 -27 0 -19 -33 -89 -42 -89 -4 0 -8 -9 -8 -19 0 -11 -8
-34 -17 -53 -31 -61 -33 -68 -33 -87 0 -10 -7 -24 -15 -31 -8 -7 -15 -23 -15
-36 0 -13 -4 -24 -9 -24 -5 0 -12 -15 -16 -32 -6 -31 -17 -62 -35 -98 -4 -9
-11 -31 -15 -50 -12 -63 -28 -99 -45 -103 -9 -2 -20 -19 -23 -36 -4 -17 -16
-41 -27 -53 -11 -12 -20 -27 -20 -34 0 -7 -13 -39 -30 -72 -16 -34 -30 -66
-30 -71 0 -6 -4 -11 -10 -11 -5 0 -12 -16 -16 -35 -3 -19 -10 -38 -15 -41 -5
-3 -9 -14 -9 -25 0 -10 -4 -19 -8 -19 -11 0 -42 -66 -42 -88 0 -10 -4 -22 -8
-28 -4 -5 -16 -36 -26 -69 -10 -33 -24 -72 -32 -87 -8 -14 -14 -40 -14 -56 0
-17 -4 -34 -10 -37 -5 -3 -10 -18 -10 -33 0 -15 -5 -34 -10 -42 -7 -10 -10 15
-10 81 0 61 4 99 12 107 7 7 14 52 16 112 3 55 8 100 13 100 5 0 9 29 9 63 0
35 7 86 15 113 8 27 15 70 15 97 0 26 4 47 9 47 4 0 11 29 14 65 4 36 11 74
17 84 5 11 10 40 10 65 0 25 4 46 9 46 5 0 13 25 16 55 4 30 11 55 16 55 5 0
9 18 9 39 0 22 4 42 9 46 6 3 13 27 16 53 3 26 10 55 16 64 5 10 9 24 9 31 0
17 26 72 52 109 10 14 18 31 18 37 0 6 18 40 40 76 22 36 40 69 40 74 0 5 7
14 15 21 8 7 27 34 42 61 14 27 29 49 34 49 4 0 10 11 13 25 4 14 11 25 16 25
6 0 10 6 10 14 0 7 11 26 25 42 30 34 29 33 75 102 19 28 38 52 43 52 4 0 7 6
7 13 0 8 11 24 25 37 14 13 25 28 25 34 0 6 11 20 25 30 14 10 25 24 25 30 0
6 23 35 50 64 27 30 52 62 55 73 4 10 15 19 26 19 10 0 19 6 19 13 0 6 25 38
55 69 30 31 55 61 55 67 0 6 7 11 16 11 9 0 18 9 21 20 3 11 9 20 13 20 4 0
55 47 114 105 59 58 110 105 114 105 4 0 23 15 42 33 19 17 52 40 73 49 20 10
37 22 37 27 0 9 31 20 39 15 2 -2 -20 -25 -48 -52z m-1745 -638 c-9 -8 -16
-22 -16 -30 0 -8 -4 -14 -10 -14 -5 0 -10 -7 -10 -15 0 -8 -3 -15 -8 -15 -4 0
-23 -34 -42 -75 -19 -41 -38 -75 -42 -75 -5 0 -8 -9 -8 -20 0 -11 -7 -23 -15
-26 -8 -4 -16 -18 -16 -33 -2 -24 -2 -25 -6 -3 -5 23 71 193 89 200 4 2 8 10
8 17 0 7 3 15 8 17 4 2 16 21 27 43 11 22 26 51 35 65 15 24 15 24 18 2 2 -12
-4 -29 -12 -38z m-366 -301 c0 -19 -3 -24 -10 -17 -6 6 -8 18 -4 27 9 24 14
21 14 -10z m171 -56 c-8 -8 -11 -5 -11 9 0 27 14 41 18 19 2 -9 -1 -22 -7 -28z
m-25 -55 c-12 -11 -18 7 -10 30 l8 23 4 -23 c2 -13 1 -26 -2 -30z m1601 -24
c-3 -8 -6 -5 -6 6 -1 11 2 17 5 13 3 -3 4 -12 1 -19z m-1624 -18 c-3 -11 -7
-20 -9 -20 -2 0 -4 9 -4 20 0 11 4 20 9 20 5 0 7 -9 4 -20z m-27 -67 c-10 -10
-19 5 -10 18 6 11 8 11 12 0 2 -7 1 -15 -2 -18z m-29 -65 c-3 -7 -5 -2 -5 12
0 14 2 19 5 13 2 -7 2 -19 0 -25z m-17 -43 c0 -14 -4 -25 -10 -25 -11 0 -14
33 -3 43 11 11 13 8 13 -18z m-33 -62 c-3 -10 -5 -4 -5 12 0 17 2 24 5 18 2
-7 2 -21 0 -30z m-67 -182 c0 -6 -4 -13 -10 -16 -5 -3 -10 1 -10 9 0 9 5 16
10 16 6 0 10 -4 10 -9z m-33 -98 c-3 -10 -5 -2 -5 17 0 19 2 27 5 18 2 -10 2
-26 0 -35z m-260 -15 c-3 -7 -5 -2 -5 12 0 14 2 19 5 13 2 -7 2 -19 0 -25z
m30 -810 c-3 -8 -6 -5 -6 6 -1 11 2 17 5 13 3 -3 4 -12 1 -19z m-50 -330 c-3
-7 -5 -2 -5 12 0 14 2 19 5 13 2 -7 2 -19 0 -25z m803 -193 c-8 -34 -10 -173
-7 -445 4 -405 18 -675 37 -694 5 -5 10 -43 10 -84 0 -40 4 -82 10 -92 5 -10
13 -50 16 -89 4 -39 11 -71 15 -71 5 0 9 -27 9 -59 0 -33 4 -61 10 -63 5 -1
12 -30 16 -62 5 -44 4 -57 -4 -52 -7 4 -12 25 -12 47 0 21 -4 39 -10 39 -5 0
-10 17 -10 38 0 20 -7 50 -15 66 -8 15 -15 50 -15 77 0 27 -4 49 -10 49 -5 0
-10 15 -10 33 0 17 -5 48 -11 67 -6 19 -15 67 -19 105 -5 39 -13 95 -19 125
-16 86 -20 125 -31 280 -11 147 -4 601 9 610 7 5 27 163 40 320 l6 75 3 -85
c2 -47 -2 -107 -8 -135z m-829 -63 c1 -57 -1 -106 -5 -109 -3 -4 -6 45 -6 107
0 62 2 111 4 109 3 -3 6 -51 7 -107z m1199 -74 c0 -28 -3 -39 -10 -32 -9 9 -3
74 6 74 2 0 4 -19 4 -42z m-1217 -267 c2 -171 -1 -221 -10 -221 -10 0 -13 30
-13 118 0 129 11 335 17 328 2 -2 5 -103 6 -225z m1189 -244 c2 -301 6 -399
16 -409 7 -7 12 -42 12 -94 0 -46 5 -95 11 -111 6 -15 16 -62 21 -103 5 -41
13 -101 16 -132 4 -32 13 -63 20 -70 7 -7 12 -31 12 -55 0 -24 4 -51 9 -61 6
-9 13 -38 16 -64 3 -26 10 -50 16 -53 5 -4 9 -21 9 -40 0 -19 5 -37 10 -40 6
-3 10 -21 10 -39 0 -18 7 -41 15 -52 8 -10 15 -34 15 -51 0 -18 4 -33 10 -33
5 0 13 -18 16 -40 4 -22 10 -40 15 -40 5 0 9 -16 9 -35 0 -19 4 -35 9 -35 5 0
11 -18 15 -40 3 -22 11 -40 16 -40 6 0 10 -9 10 -21 0 -11 7 -27 15 -35 8 -9
15 -24 15 -34 0 -11 11 -40 25 -66 14 -26 25 -55 25 -65 0 -10 4 -20 9 -24 5
-3 12 -19 16 -35 4 -17 10 -30 13 -30 8 0 42 -74 42 -90 0 -6 5 -10 10 -10 6
0 10 -12 9 -27 l-1 -28 -10 28 c-5 15 -14 27 -19 27 -5 0 -9 11 -9 25 0 14
-11 38 -25 53 -14 15 -25 34 -25 42 0 8 -10 31 -23 50 -12 19 -31 53 -42 75
-11 22 -23 42 -27 43 -5 2 -8 14 -8 27 0 13 -7 30 -15 39 -8 8 -15 20 -15 26
0 21 -34 110 -42 110 -5 0 -8 14 -8 30 0 17 -4 30 -10 30 -5 0 -10 6 -10 13 0
6 -7 26 -16 42 -9 17 -13 42 -10 58 4 20 2 27 -9 27 -10 0 -15 10 -15 29 0 16
-6 36 -13 43 -8 7 -17 31 -21 53 -4 22 -11 45 -16 50 -4 6 -10 28 -13 50 -9
66 -25 138 -36 168 -6 16 -11 51 -11 78 0 28 -5 60 -11 72 -7 11 -15 50 -20
86 -8 62 -22 163 -33 241 -15 99 -11 746 5 755 5 4 9 36 9 72 0 37 2 64 5 61
3 -2 6 -183 7 -401z m-203 -1114 c-1 -34 -2 -35 -9 -13 -11 36 -11 50 0 50 6
0 10 -17 9 -37z m30 -106 c1 -10 -3 -15 -9 -12 -5 3 -10 21 -9 38 0 27 2 29 9
12 5 -11 9 -28 9 -38z m126 -429 c4 -18 11 -39 15 -48 13 -27 32 -85 37 -112
3 -16 9 -28 14 -28 5 0 9 -11 9 -25 0 -14 7 -28 15 -31 8 -4 15 -17 15 -30 0
-13 5 -24 10 -24 6 0 10 -14 10 -30 0 -18 6 -33 15 -36 8 -4 15 -17 15 -29 0
-13 5 -27 10 -30 6 -3 10 -14 10 -24 0 -10 7 -24 15 -31 8 -7 15 -21 15 -31 0
-11 5 -19 10 -19 6 0 10 -10 10 -22 0 -13 14 -43 30 -68 16 -25 30 -51 30 -57
0 -7 5 -13 10 -13 6 0 10 -9 10 -20 0 -11 4 -20 9 -20 5 0 12 -13 16 -30 4
-16 11 -30 16 -30 5 0 9 -6 9 -14 0 -7 7 -19 15 -26 8 -7 15 -19 15 -27 0 -8
11 -29 25 -47 42 -55 28 -63 -20 -10 -24 27 -44 52 -45 55 0 3 -9 17 -21 30
-11 13 -29 34 -39 46 -35 40 -50 70 -45 85 3 8 -1 21 -10 28 -8 7 -15 24 -16
39 0 14 -9 40 -19 56 -26 41 -60 112 -60 124 0 6 -4 11 -10 11 -5 0 -10 8 -10
18 0 10 -7 27 -15 38 -8 10 -15 29 -15 42 0 12 -4 22 -9 22 -5 0 -12 11 -15
25 -4 14 -11 25 -16 25 -6 0 -10 14 -10 30 0 17 -4 30 -9 30 -5 0 -12 16 -15
35 -4 19 -11 35 -16 35 -6 0 -10 8 -10 19 0 10 -7 32 -15 47 -16 31 -19 62 -9
88 10 27 32 18 39 -16z m-1098 -20 c-3 -7 -5 -2 -5 12 0 14 2 19 5 13 2 -7 2
-19 0 -25z m11087 -78 c-3 -14 -9 -34 -14 -45 -24 -60 -40 -114 -40 -137 0
-14 -7 -28 -15 -32 -8 -3 -15 -15 -15 -26 0 -20 -3 -27 -34 -87 -9 -17 -16
-38 -16 -45 0 -8 -11 -35 -24 -59 -20 -38 -27 -44 -52 -41 -16 1 -38 7 -49 12
-11 5 -38 12 -60 15 -32 6 -36 9 -22 16 9 6 17 19 17 29 0 11 3 20 8 20 4 0
16 17 27 38 11 20 30 48 43 62 12 14 22 31 22 39 0 8 10 28 23 45 34 46 77
126 77 145 0 9 11 28 25 43 14 15 25 33 25 41 0 24 11 26 45 9 28 -14 33 -21
29 -42z m-11054 4 c0 -8 -4 -14 -10 -14 -5 0 -10 9 -10 21 0 11 5 17 10 14 6
-3 10 -13 10 -21z m17 -91 c-3 -10 -5 -2 -5 17 0 19 2 27 5 18 2 -10 2 -26 0
-35z m33 -58 c0 -14 -4 -25 -10 -25 -5 0 -10 11 -10 25 0 14 5 25 10 25 6 0
10 -11 10 -25z m147 -7 c-3 -8 -6 -5 -6 6 -1 11 2 17 5 13 3 -3 4 -12 1 -19z
m-97 -136 c0 -13 -4 -20 -10 -17 -5 3 -10 19 -10 36 0 16 -4 29 -10 29 -5 0
-10 12 -10 27 0 26 1 25 20 -12 11 -22 20 -50 20 -63z m183 36 c7 0 19 -1 27
-2 8 -1 16 -11 18 -23 2 -13 8 -23 13 -23 5 0 9 -11 9 -24 0 -14 7 -31 15 -40
8 -8 15 -26 15 -40 0 -14 5 -26 10 -26 6 0 10 -11 10 -24 0 -13 7 -26 15 -30
8 -3 15 -15 15 -26 0 -11 5 -20 10 -20 6 0 10 -9 10 -19 0 -11 14 -46 30 -78
17 -31 30 -63 30 -70 0 -7 5 -13 10 -13 6 0 10 -6 10 -14 0 -14 29 -75 40 -86
3 -3 14 -25 25 -50 11 -25 22 -47 26 -50 3 -3 9 -15 13 -27 4 -13 12 -23 17
-23 5 0 9 -11 9 -25 0 -14 4 -25 8 -25 4 0 14 -16 21 -36 7 -19 19 -38 27 -41
8 -3 14 -11 14 -18 0 -8 6 -20 13 -27 7 -7 19 -29 27 -48 7 -19 19 -42 27 -51
7 -8 13 -20 13 -26 0 -6 7 -13 15 -17 18 -7 20 -43 3 -49 -7 -2 -9 -8 -5 -13
4 -5 12 -2 18 6 8 13 10 13 19 0 5 -8 10 -21 10 -27 0 -7 5 -13 10 -13 6 0 10
-7 10 -15 0 -8 5 -15 10 -15 6 0 10 -7 10 -15 0 -8 5 -15 10 -15 6 0 10 -6 10
-13 0 -14 59 -100 72 -105 5 -2 8 -10 8 -17 0 -8 6 -20 13 -27 18 -20 37 -50
43 -70 4 -10 9 -18 13 -18 4 0 15 -13 24 -30 10 -16 15 -30 11 -30 -7 0 -28
22 -83 90 -20 25 -39 47 -43 48 -5 2 -8 10 -8 17 0 8 -6 18 -13 22 -7 4 -21
22 -31 38 -11 17 -30 40 -43 52 -12 12 -23 27 -23 33 0 5 -4 10 -10 10 -5 0
-10 9 -10 20 0 11 -7 20 -15 20 -8 0 -15 5 -15 10 0 6 -6 18 -12 26 -7 8 -18
20 -23 27 -6 7 -19 29 -30 50 -11 20 -23 37 -27 37 -5 0 -8 5 -8 10 0 6 -9 21
-21 33 -11 12 -30 41 -41 64 -12 24 -25 43 -30 43 -13 0 -9 28 4 32 7 3 8 9 3
18 -6 10 -10 10 -20 -4 -11 -15 -13 -14 -19 8 -6 25 -85 148 -98 154 -5 2 -8
15 -8 28 0 13 -4 24 -9 24 -5 0 -12 11 -15 25 -4 14 -11 25 -16 25 -6 0 -10
11 -10 25 0 14 -3 25 -8 25 -4 0 -16 17 -26 38 -10 20 -25 49 -32 64 -8 14
-14 33 -14 42 0 9 -4 16 -10 16 -5 0 -10 11 -10 24 0 13 -7 29 -15 36 -8 7
-15 25 -15 41 0 16 -4 29 -10 29 -5 0 -10 13 -10 29 0 16 -7 34 -15 41 -8 7
-15 23 -15 36 0 12 -4 26 -10 29 -5 3 -10 17 -10 31 0 14 -7 27 -15 30 -8 4
-15 17 -15 31 l0 25 31 -31 c17 -17 36 -32 42 -33z m-153 -98 c0 -10 5 -22 10
-25 6 -3 10 -17 10 -31 0 -13 4 -24 9 -24 5 0 12 -16 15 -35 4 -19 11 -35 16
-35 6 0 10 -4 10 -10 0 -10 42 -106 66 -152 16 -30 19 -68 4 -68 -5 0 -10 5
-10 11 0 11 -41 104 -66 151 -8 14 -14 36 -14 47 0 12 -4 21 -10 21 -5 0 -10
9 -10 21 0 11 -7 35 -16 52 -31 60 -34 67 -34 87 0 12 5 18 10 15 6 -3 10 -15
10 -25z m10632 -399 c-5 -3 -17 -24 -27 -46 -31 -71 -49 -105 -57 -105 -5 0
-8 -4 -8 -10 0 -11 -84 -129 -117 -165 -7 -8 -13 -16 -13 -19 0 -2 -13 -18
-30 -34 -26 -27 -36 -30 -90 -29 -34 0 -66 -5 -72 -11 -7 -7 -21 -12 -33 -12
-12 0 -30 -7 -41 -15 -10 -8 -27 -15 -36 -15 -9 0 -33 -15 -53 -34 -39 -37
-65 -51 -65 -36 0 6 7 10 15 10 8 0 15 7 15 15 0 8 4 15 8 15 4 0 16 15 27 33
10 17 21 34 24 37 10 9 31 44 37 63 4 9 10 17 15 17 5 0 9 9 9 20 0 11 8 23
18 26 9 3 25 10 34 15 10 5 29 9 44 9 14 0 38 6 52 14 71 35 97 50 102 55 3 3
19 14 35 23 43 23 155 135 185 183 20 32 25 36 28 21 2 -10 0 -21 -6 -25z
m-842 -56 c4 -11 14 -40 21 -64 7 -24 19 -45 26 -48 14 -6 18 -33 5 -33 -4 0
-19 -18 -32 -40 -14 -22 -33 -42 -42 -45 -10 -4 -18 -10 -18 -14 0 -3 -13 -14
-28 -23 -26 -15 -33 -16 -77 -3 -26 8 -53 15 -59 15 -16 0 -40 -41 -28 -49 5
-3 12 -23 15 -44 6 -37 3 -42 -53 -98 -33 -32 -63 -59 -68 -59 -5 0 -22 -13
-38 -30 -29 -29 -67 -39 -79 -20 -3 5 5 21 19 35 15 14 26 29 26 33 0 4 15 24
33 43 33 37 52 63 64 89 4 8 17 24 30 36 13 12 23 27 23 34 0 7 11 23 24 35
13 12 36 42 52 66 15 24 33 50 41 57 7 7 13 19 13 27 0 7 8 15 19 18 12 3 21
17 25 41 4 20 11 36 16 36 5 0 12 11 16 25 3 14 10 25 15 25 5 0 9 8 10 18 0
9 5 4 11 -13 5 -16 13 -39 18 -50z m-9606 28 c10 -21 22 -46 27 -55 5 -10 9
-25 9 -33 0 -9 7 -18 15 -21 8 -4 15 -17 15 -30 0 -13 4 -24 10 -24 5 0 12
-11 16 -25 3 -14 10 -25 15 -25 5 0 9 -11 9 -25 0 -14 5 -25 10 -25 6 0 10
-11 10 -25 0 -14 6 -25 13 -25 6 0 21 -18 31 -40 11 -22 23 -40 28 -40 4 0 8
-9 8 -20 0 -25 -12 -26 -27 -1 -33 53 -93 173 -93 186 0 8 -4 15 -9 15 -5 0
-11 8 -15 18 -3 9 -14 31 -25 47 -11 17 -20 37 -20 46 -1 9 -8 19 -16 23 -8 3
-15 16 -15 29 0 13 -4 27 -9 33 -13 14 -24 54 -14 54 5 0 17 -17 27 -37z
m9021 -119 c-10 -15 -28 -37 -41 -49 -13 -12 -24 -25 -24 -29 0 -7 -12 -22
-50 -65 -14 -15 -43 -52 -66 -82 -23 -30 -69 -83 -103 -118 -33 -36 -61 -67
-61 -70 -1 -8 -37 -51 -44 -51 -2 0 -48 -42 -100 -92 -111 -108 -167 -158
-178 -158 -4 0 -8 -4 -8 -10 0 -12 -37 -50 -48 -50 -4 0 -26 -17 -49 -37 -22
-21 -47 -42 -55 -48 -54 -36 -76 -54 -106 -82 -19 -18 -39 -33 -45 -33 -7 0
-24 -11 -39 -25 -15 -14 -32 -25 -38 -25 -5 0 -10 -4 -10 -9 0 -5 -8 -12 -19
-16 -10 -3 -31 -17 -46 -31 -17 -15 -35 -24 -46 -21 -11 3 -16 1 -13 -5 9 -13
-31 -48 -55 -48 -11 0 -22 -4 -26 -10 -8 -13 -182 -120 -196 -120 -7 0 -27
-11 -45 -25 -18 -14 -37 -25 -43 -25 -6 0 -11 -4 -11 -9 0 -5 -13 -12 -30 -16
-16 -4 -30 -11 -30 -16 0 -5 -6 -9 -13 -9 -8 0 -58 -22 -112 -50 -54 -27 -106
-50 -115 -50 -9 0 -38 -11 -64 -25 -26 -14 -53 -25 -60 -25 -8 0 -19 -7 -26
-15 -7 -8 -23 -15 -36 -15 -24 0 -30 -2 -92 -33 -19 -9 -42 -17 -52 -17 -10 0
-22 -4 -25 -10 -3 -5 -14 -10 -23 -10 -9 0 -30 -7 -46 -15 -15 -8 -41 -15 -57
-15 -16 0 -29 -4 -29 -10 0 -5 -11 -10 -25 -10 -13 0 -42 -6 -62 -14 -72 -25
-109 -36 -129 -36 -10 0 -32 -7 -48 -15 -15 -8 -41 -15 -56 -15 -15 0 -44 -7
-63 -15 -20 -8 -55 -15 -77 -15 -22 0 -40 -4 -40 -10 0 -5 -24 -10 -52 -10
-29 0 -75 -7 -102 -15 -27 -8 -75 -15 -107 -15 -32 0 -60 -4 -63 -9 -3 -4 -54
-11 -113 -15 -59 -3 -135 -10 -168 -15 -93 -14 -279 -12 -400 4 -60 8 -140 15
-177 15 -37 0 -70 5 -73 10 -3 6 -34 10 -68 10 -34 0 -80 7 -102 15 -22 8 -62
14 -89 15 -27 0 -47 2 -44 5 2 3 173 5 379 6 206 0 397 5 424 10 28 6 97 14
155 19 163 14 256 27 278 39 12 6 45 11 76 11 30 0 56 4 58 9 3 8 41 16 188
38 19 3 40 9 46 15 7 5 35 11 63 15 28 3 51 10 51 14 0 5 14 9 30 9 17 0 30 4
30 8 0 5 24 14 53 19 90 19 142 34 151 44 6 5 21 9 35 9 15 0 35 7 45 15 11 8
29 15 40 15 27 0 86 22 86 32 0 4 13 8 29 8 16 0 34 7 41 15 7 8 28 15 46 15
19 0 34 4 34 10 0 5 11 12 25 16 14 3 25 10 25 15 0 5 10 9 23 9 12 0 31 7 41
15 11 8 28 15 38 15 10 0 18 3 18 8 0 7 53 28 100 39 14 3 27 9 30 12 9 11 71
41 85 41 7 0 15 3 17 8 5 10 67 42 84 42 8 0 17 7 20 15 4 8 14 15 24 15 11 0
22 5 25 10 3 6 14 10 24 10 10 0 24 7 31 15 7 8 21 15 31 15 11 0 19 4 19 10
0 5 11 12 25 16 14 3 25 10 25 14 0 4 8 10 18 13 18 6 92 48 160 91 23 14 48
26 57 26 8 0 15 4 15 9 0 6 18 20 40 32 22 13 40 26 40 31 0 4 5 8 11 8 13 0
81 50 92 67 4 7 13 13 20 13 7 0 24 11 39 25 15 14 33 25 40 25 13 0 56 32
105 78 13 12 26 22 30 22 3 0 15 9 27 19 46 42 94 81 99 81 3 0 31 25 62 55
32 30 62 55 69 55 6 0 21 16 34 34 16 24 30 33 43 31 12 -2 19 1 17 8 -1 7 49
64 113 127 64 63 129 133 145 155 16 22 39 49 52 61 12 12 22 24 22 28 0 3 8
14 18 25 25 26 38 7 17 -25z m-7818 14 c-3 -8 -6 -5 -6 6 -1 11 2 17 5 13 3
-3 4 -12 1 -19z m33 -30 c0 -19 -2 -20 -10 -8 -13 19 -13 30 0 30 6 0 10 -10
10 -22z m-710 -229 c0 -5 -4 -9 -10 -9 -5 0 -10 7 -10 16 0 8 5 12 10 9 6 -3
10 -10 10 -16z m17 -51 c-3 -8 -6 -5 -6 6 -1 11 2 17 5 13 3 -3 4 -12 1 -19z
m9590 -14 c-3 -3 -12 -4 -19 -1 -8 3 -5 6 6 6 11 1 17 -2 13 -5z m-9877 -64
c13 -10 19 -40 9 -45 -5 -4 -12 2 -15 12 -3 10 -10 26 -15 35 -5 10 -9 26 -8
35 0 13 3 12 12 -7 6 -14 14 -27 17 -30z m320 40 c0 -5 -2 -10 -4 -10 -3 0 -8
5 -11 10 -3 6 -1 10 4 10 6 0 11 -4 11 -10z m9493 3 c-7 -2 -21 -2 -30 0 -10
3 -4 5 12 5 17 0 24 -2 18 -5z m-9476 -45 c-3 -7 -5 -2 -5 12 0 14 2 19 5 13
2 -7 2 -19 0 -25z m30 -40 c-3 -8 -6 -5 -6 6 -1 11 2 17 5 13 3 -3 4 -12 1
-19z m-307 -64 c0 -14 -4 -13 -20 6 -11 13 -20 30 -20 38 0 12 5 11 20 -6 11
-12 20 -29 20 -38z m340 30 c0 -8 -4 -12 -10 -9 -5 3 -10 13 -10 21 0 8 5 12
10 9 6 -3 10 -13 10 -21z m-310 -69 c0 -8 5 -15 10 -15 6 0 10 -9 10 -20 l0
-20 -20 20 c-21 21 -27 50 -10 50 6 0 10 -7 10 -15z m410 -72 c0 -7 4 -13 8
-13 4 0 16 -13 25 -30 10 -16 33 -46 52 -66 19 -20 35 -41 35 -45 0 -5 7 -9
15 -9 8 0 15 -5 15 -10 0 -6 11 -23 25 -38 14 -15 25 -30 25 -34 0 -4 30 -37
66 -74 49 -49 63 -68 53 -75 -7 -4 -10 -11 -6 -16 5 -4 12 -1 17 7 8 13 12 11
25 -7 23 -33 105 -113 116 -113 13 0 11 -14 -3 -29 -11 -11 -9 -12 8 -7 17 5
31 -4 68 -48 25 -30 46 -61 46 -70 0 -9 7 -16 15 -16 15 0 55 -34 55 -46 0 -6
29 -34 104 -102 20 -18 36 -37 36 -42 0 -5 6 -7 14 -4 7 3 27 -11 44 -30 17
-20 34 -36 36 -36 3 0 30 -25 61 -55 30 -30 58 -55 63 -55 4 0 24 -16 44 -35
20 -19 40 -35 44 -35 4 0 17 -11 30 -25 13 -14 27 -25 31 -25 16 -1 53 -39 50
-52 -2 -7 -2 -10 0 -5 14 24 77 -20 67 -47 -7 -19 12 -22 20 -3 3 9 9 7 19 -5
8 -10 20 -18 26 -18 7 0 22 -11 35 -25 13 -14 30 -25 37 -25 8 0 26 -11 41
-25 15 -14 34 -25 43 -25 9 0 18 -6 21 -14 3 -8 21 -22 40 -31 19 -9 34 -20
34 -25 0 -6 8 -10 18 -10 9 0 29 -11 44 -25 15 -14 34 -25 43 -25 9 0 28 -11
43 -25 15 -14 35 -25 44 -25 10 0 18 -4 18 -10 0 -5 11 -12 25 -16 14 -3 25
-10 25 -15 0 -5 6 -9 14 -9 17 0 80 -32 84 -42 2 -5 15 -8 28 -8 13 0 24 -4
24 -10 0 -5 11 -12 25 -16 14 -3 25 -10 25 -15 0 -5 7 -9 15 -9 8 0 15 -4 15
-9 0 -5 15 -13 33 -16 17 -4 34 -10 37 -14 9 -11 71 -41 86 -41 8 0 14 -4 14
-9 0 -5 18 -12 40 -16 22 -4 40 -11 40 -15 0 -5 12 -11 28 -13 25 -4 25 -4 -5
-6 -18 0 -33 4 -33 9 0 6 -13 10 -29 10 -16 0 -34 7 -41 15 -7 8 -20 15 -29
15 -10 0 -41 11 -69 25 -29 14 -59 25 -67 25 -8 0 -15 5 -15 10 0 6 -9 10 -19
10 -11 0 -26 7 -35 15 -8 8 -24 15 -34 15 -11 0 -22 3 -24 8 -5 11 -64 42 -82
42 -9 0 -19 7 -22 15 -4 8 -12 15 -19 15 -16 0 -73 29 -80 41 -4 5 -15 9 -26
9 -10 0 -19 5 -19 10 0 6 -9 10 -20 10 -11 0 -20 4 -20 10 0 5 -11 12 -25 16
-14 3 -25 10 -25 15 0 5 -9 9 -20 9 -11 0 -23 7 -26 15 -4 8 -13 15 -21 15 -7
0 -26 11 -41 25 -15 14 -35 25 -44 25 -10 0 -18 4 -18 8 0 5 -18 17 -40 28
-22 10 -40 22 -40 26 0 4 -16 15 -36 24 -25 12 -34 22 -31 34 3 13 -1 16 -19
12 -14 -2 -24 0 -24 7 0 6 -7 11 -15 11 -9 0 -26 10 -38 23 -12 13 -30 27 -41
30 -11 5 -16 13 -12 23 4 12 1 14 -14 9 -11 -4 -20 -2 -20 4 0 6 -5 11 -11 11
-6 0 -23 12 -39 28 -16 15 -41 37 -57 49 -15 12 -39 31 -52 42 -13 12 -27 21
-32 21 -4 0 -28 20 -53 45 -26 25 -52 45 -58 45 -5 0 -8 9 -5 19 3 14 1 18
-10 14 -9 -4 -20 1 -25 10 -5 10 -16 17 -23 17 -8 0 -15 4 -15 9 0 9 -46 61
-55 61 -3 0 -34 29 -69 65 -34 36 -68 65 -74 65 -7 0 -12 7 -12 15 0 8 -18 33
-40 55 -22 22 -40 44 -40 48 0 5 -11 15 -25 22 -14 7 -25 17 -25 22 0 5 -27
36 -60 70 -33 33 -60 63 -60 66 0 4 -14 22 -30 41 -16 18 -27 37 -24 42 3 5
-2 6 -10 3 -11 -4 -16 0 -16 10 0 9 -4 16 -10 16 -5 0 -10 7 -10 15 0 9 -7 18
-15 21 -8 4 -15 11 -15 16 0 6 -11 21 -25 34 -14 13 -25 27 -25 31 0 5 -11 20
-25 35 -14 15 -25 31 -25 37 0 5 -4 11 -8 13 -4 2 -18 20 -31 41 -12 20 -27
37 -32 37 -5 0 -9 7 -9 16 0 9 -11 27 -25 40 -14 13 -25 31 -25 40 0 13 10 6
35 -22 19 -21 35 -45 35 -51z m-354 -10 c21 -28 17 -45 -6 -26 -19 17 -27 43
-14 43 4 0 13 -8 20 -17z m44 -75 c0 -19 -2 -20 -10 -8 -13 19 -13 30 0 30 6
0 10 -10 10 -22z m17 -40 c-3 -8 -6 -5 -6 6 -1 11 2 17 5 13 3 -3 4 -12 1 -19z
m9179 -5 c3 -10 11 -29 18 -43 17 -31 11 -47 -28 -79 -16 -14 -43 -39 -58 -55
-15 -16 -28 -24 -28 -17 0 6 -7 11 -15 11 -18 0 -19 -12 -3 -28 9 -9 9 -12 0
-12 -6 0 -25 -13 -42 -30 -17 -16 -32 -30 -34 -30 -3 0 -32 -27 -65 -60 -37
-36 -66 -57 -75 -54 -9 3 -17 -3 -21 -15 -3 -12 -11 -21 -16 -21 -6 0 -25 -15
-42 -33 -19 -19 -39 -31 -49 -29 -10 2 -18 -2 -18 -9 0 -16 -100 -109 -117
-109 -7 0 -13 -4 -13 -10 0 -5 -13 -16 -30 -25 -16 -8 -43 -28 -58 -43 -49
-46 -82 -72 -92 -72 -6 0 -10 -5 -10 -10 0 -6 -8 -14 -17 -17 -10 -4 -27 -17
-39 -30 -12 -13 -24 -23 -28 -23 -7 0 -20 -10 -51 -37 -7 -7 -17 -13 -21 -13
-4 0 -17 -11 -30 -25 -13 -14 -26 -25 -30 -25 -7 0 -126 -80 -134 -90 -6 -8
-40 -21 -40 -15 0 9 40 45 50 45 6 0 13 7 16 15 4 8 12 15 20 15 8 0 14 4 14
8 0 4 14 16 32 26 29 18 63 44 92 72 6 6 16 13 21 15 28 11 85 55 85 65 0 6
14 18 31 26 17 9 30 19 29 24 -1 5 6 10 14 12 8 2 49 37 91 78 43 41 79 74 82
74 10 0 207 192 290 283 29 31 56 57 61 57 4 0 16 15 27 33 10 17 29 42 42 54
13 12 23 26 23 31 0 6 7 12 15 16 8 3 15 12 15 21 0 8 7 15 15 15 8 0 15 3 15
8 0 4 12 22 27 40 30 35 70 43 79 15z m-2111 -93 c3 -5 1 -10 -4 -10 -6 0 -11
5 -11 10 0 6 2 10 4 10 3 0 8 -4 11 -10z m-6675 -92 c0 -19 -2 -20 -10 -8 -13
19 -13 30 0 30 6 0 10 -10 10 -22z m248 -413 c33 -22 48 -26 60 -19 17 11 35
-6 213 -192 37 -38 81 -82 98 -98 19 -17 30 -35 26 -44 -4 -11 0 -13 15 -9 11
3 20 1 20 -4 0 -5 7 -9 15 -9 8 0 15 -6 15 -13 0 -15 41 -55 86 -83 30 -19 57
-41 104 -86 16 -16 32 -28 37 -28 5 0 19 -11 31 -25 12 -14 29 -25 37 -25 8 0
15 -7 15 -15 0 -8 9 -15 21 -15 11 0 17 -4 14 -10 -8 -12 -43 -3 -62 15 -7 7
-26 19 -43 27 -16 7 -30 19 -30 25 0 7 -9 13 -19 13 -11 0 -34 16 -52 35 -19
19 -42 35 -52 35 -9 0 -20 7 -23 15 -4 8 -12 15 -20 15 -8 0 -14 4 -14 9 0 5
-8 12 -18 15 -9 3 -32 18 -49 33 -17 16 -53 44 -80 63 -47 34 -121 107 -193
189 -19 22 -41 40 -47 41 -7 0 -13 4 -13 10 0 5 -40 50 -90 100 -49 50 -90 96
-90 103 0 7 10 0 23 -14 12 -14 42 -39 65 -54z m3417 -465 c3 -5 -3 -10 -14
-10 -11 0 -23 5 -26 10 -3 6 3 10 14 10 11 0 23 -4 26 -10z m3925 0 c0 -5 -7
-10 -15 -10 -8 0 -15 -4 -15 -10 0 -5 -9 -10 -20 -10 -19 0 -19 1 -2 19 18 21
52 28 52 11z m-5277 -27 c-7 -2 -19 -2 -25 0 -7 3 -2 5 12 5 14 0 19 -2 13 -5z
m71 -28 c8 -8 21 -15 29 -15 8 0 28 -7 43 -15 16 -8 39 -15 51 -15 12 0 25 -4
28 -10 3 -5 19 -10 36 -10 16 0 29 -4 29 -10 0 -5 6 -10 13 -10 7 0 47 -18 89
-39 42 -22 85 -41 95 -44 12 -3 9 -5 -9 -6 -16 0 -28 4 -28 9 0 6 -13 10 -30
10 -16 0 -30 5 -30 10 0 6 -8 10 -17 10 -10 0 -31 7 -47 15 -15 8 -36 15 -46
15 -10 0 -23 7 -30 15 -7 8 -23 15 -36 15 -13 0 -24 5 -24 10 0 6 -6 10 -14
10 -7 0 -27 7 -42 15 -16 8 -37 15 -46 15 -10 0 -18 4 -18 8 0 5 -12 13 -27
19 -25 10 -26 11 -6 12 12 1 28 -6 37 -14z m5126 5 c0 -5 -5 -10 -11 -10 -6 0
-25 -11 -43 -25 -18 -14 -41 -25 -51 -25 -14 0 -13 4 8 20 14 11 32 20 41 20
9 0 16 7 16 15 0 8 9 15 20 15 11 0 20 -4 20 -10z m-132 -77 c-10 -2 -18 -11
-18 -19 0 -9 -10 -14 -27 -14 -14 0 -23 3 -20 6 13 14 52 32 67 32 10 0 9 -2
-2 -5z m-78 -47 c0 -2 -7 -6 -15 -10 -8 -3 -15 -1 -15 4 0 6 7 10 15 10 8 0
15 -2 15 -4z m-45 -26 c3 -6 -4 -10 -17 -10 -18 0 -20 2 -8 10 19 12 18 12 25
0z m-6165 -30 c0 -6 10 -15 23 -20 22 -9 22 -9 -3 -9 -15 -1 -30 7 -38 19 -10
17 -10 20 3 20 8 0 15 -5 15 -10z m6110 0 c-19 -13 -30 -13 -30 0 0 6 10 10
23 10 18 0 19 -2 7 -10z m-4320 -26 c0 -2 -12 -4 -26 -4 -14 0 -23 4 -20 9 6
8 46 4 46 -5z m4275 6 c3 -6 -4 -10 -17 -10 -18 0 -20 2 -8 10 19 12 18 12 25
0z m-5990 -31 c11 -17 -1 -21 -15 -4 -8 9 -8 15 -2 15 6 0 14 -5 17 -11z
m1775 1 c8 -5 11 -10 5 -10 -5 0 -17 5 -25 10 -8 5 -10 10 -5 10 6 0 17 -5 25
-10z m63 -27 c-7 -2 -19 -2 -25 0 -7 3 -2 5 12 5 14 0 19 -2 13 -5z m4044 1
c-3 -3 -12 -4 -19 -1 -8 3 -5 6 6 6 11 1 17 -2 13 -5z m-5812 -24 c3 -5 2 -10
-4 -10 -5 0 -13 5 -16 10 -3 6 -2 10 4 10 5 0 13 -4 16 -10z m52 -26 c-3 -3
-12 -4 -19 -1 -8 3 -5 6 6 6 11 1 17 -2 13 -5z m5656 -1 c-7 -2 -19 -2 -25 0
-7 3 -2 5 12 5 14 0 19 -2 13 -5z m-5753 -29 c0 -2 -7 -4 -15 -4 -8 0 -15 4
-15 10 0 5 7 7 15 4 8 -4 15 -8 15 -10z m5703 -1 c-7 -2 -19 -2 -25 0 -7 3 -2
5 12 5 14 0 19 -2 13 -5z m-5523 -23 c0 -5 -2 -10 -4 -10 -3 0 -8 5 -11 10 -3
6 -1 10 4 10 6 0 11 -4 11 -10z m5473 3 c-7 -2 -19 -2 -25 0 -7 3 -2 5 12 5
14 0 19 -2 13 -5z m-5583 -23 c13 -8 13 -10 -2 -10 -9 0 -20 5 -23 10 -8 13 5
13 25 0z m64 -35 c3 -8 15 -15 26 -15 11 0 20 -4 20 -10 0 -5 11 -10 25 -10
14 0 28 -7 31 -15 4 -8 17 -15 30 -15 13 0 24 -4 24 -10 0 -5 6 -10 14 -10 8
0 21 -6 28 -12 21 -20 121 -68 141 -68 9 0 17 -4 17 -10 0 -5 9 -10 19 -10 11
0 26 -7 35 -15 8 -8 22 -15 30 -15 9 0 16 -4 16 -10 0 -5 5 -10 11 -10 13 0
65 -23 130 -56 26 -13 54 -24 64 -24 9 0 31 -7 48 -16 59 -31 67 -34 85 -34
10 0 27 -7 38 -15 10 -8 29 -15 41 -15 12 0 24 -4 28 -9 3 -5 19 -12 35 -16
17 -4 30 -10 30 -15 0 -4 15 -10 33 -13 32 -5 87 -22 119 -38 10 -5 28 -9 42
-9 13 0 29 -7 36 -15 7 -8 28 -15 46 -15 19 0 34 -4 34 -10 0 -5 16 -10 36
-10 19 0 42 -7 50 -15 9 -8 31 -15 49 -15 19 0 37 -4 40 -10 3 -5 21 -10 38
-10 18 0 41 -7 51 -15 11 -8 31 -15 44 -15 13 0 32 -5 43 -11 23 -12 103 -28
289 -59 35 -6 69 -15 74 -20 6 -6 41 -10 78 -10 37 0 68 -4 68 -9 0 -5 35 -12
78 -16 42 -4 82 -11 88 -16 5 -4 50 -10 100 -12 l89 -3 -112 -2 c-66 -1 -114
2 -118 8 -3 6 -47 10 -96 10 -50 0 -100 5 -111 11 -11 6 -56 14 -100 16 -43 3
-81 10 -84 14 -3 5 -31 9 -63 9 -32 0 -62 5 -69 12 -7 7 -41 16 -75 20 -94 10
-181 28 -192 39 -5 5 -28 9 -51 9 -24 0 -45 4 -48 9 -3 4 -28 11 -55 15 -28 4
-53 11 -56 16 -3 6 -24 10 -45 10 -21 0 -41 4 -45 9 -3 6 -26 13 -50 17 -25 3
-45 10 -45 15 0 5 -18 9 -39 9 -25 0 -41 5 -45 15 -3 10 -19 15 -46 15 -22 0
-40 5 -40 10 0 6 -8 10 -19 10 -10 0 -39 11 -65 25 -26 14 -55 25 -65 25 -10
0 -24 7 -31 15 -7 8 -21 15 -31 15 -11 0 -19 5 -19 10 0 6 -8 10 -19 10 -10 0
-24 7 -31 15 -7 8 -23 15 -35 15 -13 0 -25 7 -29 15 -3 8 -15 15 -26 15 -11 0
-20 5 -20 10 0 6 -11 10 -24 10 -15 0 -26 7 -29 19 -3 13 -17 21 -45 26 -23 3
-46 13 -53 21 -6 8 -15 14 -20 14 -4 0 -43 22 -86 50 -43 27 -82 50 -86 50 -5
0 -15 6 -22 13 -34 30 -45 37 -56 37 -7 0 -27 11 -45 25 -18 14 -36 25 -39 25
-4 0 -18 9 -32 20 -24 18 -24 20 -5 20 11 0 22 -7 26 -15z m-104 -45 c0 -5 -9
-10 -20 -10 -11 0 -20 5 -20 10 0 6 9 10 20 10 11 0 20 -4 20 -10z m940 1 c0
-5 -9 -7 -20 -4 -11 3 -20 7 -20 9 0 2 9 4 20 4 11 0 20 -4 20 -9z m-890 -31
c0 -5 7 -10 15 -10 8 0 15 -4 15 -10 0 -15 -28 -12 -37 4 -4 7 -15 16 -23 19
-10 4 -7 6 8 6 12 1 22 -3 22 -9z m953 3 c-7 -2 -21 -2 -30 0 -10 3 -4 5 12 5
17 0 24 -2 18 -5z m57 -23 c0 -5 -6 -10 -14 -10 -8 0 -18 5 -21 10 -3 6 3 10
14 10 12 0 21 -4 21 -10z m4670 -21 c0 -5 -7 -9 -15 -9 -8 0 -23 -4 -33 -9
-43 -24 -87 -41 -102 -41 -10 0 -20 -7 -24 -15 -3 -8 -15 -15 -26 -15 -11 0
-20 -4 -20 -10 0 -5 -11 -10 -25 -10 -14 0 -28 -7 -31 -15 -4 -8 -15 -15 -25
-15 -10 0 -42 -11 -71 -24 -29 -13 -74 -32 -100 -41 -27 -10 -48 -21 -48 -26
0 -4 -13 -10 -30 -14 -16 -4 -32 -11 -35 -16 -4 -5 -15 -9 -26 -9 -10 0 -19
-4 -19 -10 0 -5 -11 -10 -24 -10 -13 0 -29 -7 -36 -15 -7 -8 -19 -15 -28 -15
-21 0 -92 -32 -92 -42 0 -4 -10 -8 -21 -8 -41 0 -67 -59 -26 -61 16 -1 12 -4
-13 -11 -19 -5 -39 -14 -45 -19 -5 -5 -26 -9 -46 -9 -20 0 -50 -7 -65 -15 -16
-8 -43 -15 -61 -15 -17 0 -35 -4 -38 -10 -3 -5 -24 -10 -46 -10 -21 0 -47 -4
-57 -10 -18 -10 -117 -29 -197 -36 -27 -3 -64 -12 -82 -20 -17 -8 -56 -14 -86
-14 -31 0 -58 -4 -61 -8 -3 -5 -43 -12 -88 -15 -46 -4 -84 -11 -86 -17 -2 -6
-50 -10 -118 -10 -69 0 -114 -4 -114 -10 0 -6 -47 -10 -120 -10 -67 0 -178 -7
-248 -15 -133 -16 -428 -17 -384 -1 25 9 28 24 10 49 -10 12 -33 17 -88 20
l-75 3 91 2 c52 1 94 -2 101 -9 13 -13 323 -24 341 -11 10 7 11 14 1 35 -12
27 -13 27 -122 27 -61 0 -108 2 -106 5 3 2 94 5 203 5 109 1 246 8 305 15 58
8 136 15 173 15 37 0 70 5 73 10 3 6 36 10 73 10 37 0 83 5 102 11 19 6 63 13
97 15 35 2 71 8 82 14 11 5 36 10 56 10 19 0 52 7 72 15 19 8 55 15 79 15 23
0 45 4 48 9 3 4 28 11 55 15 28 4 53 11 56 16 3 6 26 10 50 10 24 0 47 5 50
10 3 6 24 10 46 10 26 0 42 5 45 15 4 8 18 15 34 15 15 0 41 7 56 15 16 8 39
15 52 15 12 0 22 5 22 10 0 6 14 10 30 10 17 0 38 4 48 10 20 11 155 59 192
67 14 3 34 12 45 19 11 8 30 14 42 14 13 0 23 5 23 10 0 6 10 10 23 10 12 0
45 12 72 25 28 14 58 25 68 25 9 0 17 5 17 10 0 6 9 10 19 10 11 0 26 6 33 13
7 6 38 21 68 31 30 11 57 22 60 25 3 3 19 13 35 22 29 15 55 10 55 -12z
m-5603 -5 c-3 -3 -12 -4 -19 -1 -8 3 -5 6 6 6 11 1 17 -2 13 -5z m996 -1 c-7
-2 -21 -2 -30 0 -10 3 -4 5 12 5 17 0 24 -2 18 -5z m102 -34 c5 -5 19 -9 30
-9 12 0 25 -3 28 -6 10 -10 109 -43 130 -44 9 0 17 -4 17 -10 0 -5 16 -12 35
-16 19 -3 38 -10 41 -15 3 -5 16 -9 29 -9 13 0 45 -11 71 -25 26 -14 57 -25
69 -25 11 0 30 -7 41 -15 10 -8 31 -15 47 -15 15 0 27 -5 27 -11 0 -7 -9 -9
-22 -5 -13 3 -31 6 -41 6 -10 0 -16 4 -13 9 3 5 -16 12 -44 16 -27 4 -52 11
-56 16 -3 5 -16 9 -30 9 -13 0 -24 4 -24 10 0 5 -16 12 -35 16 -19 3 -38 10
-41 15 -3 5 -25 9 -49 9 -29 0 -45 5 -49 15 -3 8 -17 15 -31 15 -14 0 -25 5
-25 10 0 6 -9 10 -21 10 -11 0 -27 7 -35 15 -9 8 -26 15 -40 15 -13 0 -24 5
-24 10 0 6 -15 10 -34 10 -19 0 -38 5 -42 12 -9 14 76 2 91 -13z m-95 -95 c0
-2 -12 -4 -26 -4 -14 0 -23 4 -20 9 6 8 46 4 46 -5z m53 -21 c-7 -2 -19 -2
-25 0 -7 3 -2 5 12 5 14 0 19 -2 13 -5z m57 -23 c12 -8 11 -10 -7 -10 -13 0
-23 5 -23 10 0 13 11 13 30 0z m80 -29 c0 -5 -9 -7 -20 -4 -11 3 -20 7 -20 9
0 2 9 4 20 4 11 0 20 -4 20 -9z m73 -28 c-7 -2 -19 -2 -25 0 -7 3 -2 5 12 5
14 0 19 -2 13 -5z m467 -23 c21 -7 19 -8 -17 -9 -24 -1 -43 4 -43 9 0 12 24
12 60 0z m707 -6 c-3 -3 -12 -4 -19 -1 -8 3 -5 6 6 6 11 1 17 -2 13 -5z
m-1010 -20 c-3 -3 -12 -4 -19 -1 -8 3 -5 6 6 6 11 1 17 -2 13 -5z m391 -1
c-10 -2 -28 -2 -40 0 -13 2 -5 4 17 4 22 1 32 -1 23 -4z m800 0 c-15 -2 -42
-2 -60 0 -18 2 -6 4 27 4 33 0 48 -2 33 -4z m1219 1 c-3 -3 -12 -4 -19 -1 -8
3 -5 6 6 6 11 1 17 -2 13 -5z m-1917 -30 c0 -2 -11 -4 -25 -4 -14 0 -25 4 -25
9 0 4 11 6 25 3 14 -2 25 -6 25 -8z m1070 -1 c19 -3 105 -9 190 -13 152 -7
151 -7 -50 -4 -222 3 -404 15 -416 27 -8 8 218 0 276 -10z m568 0 c-21 -2 -57
-2 -80 0 -24 2 -7 4 37 4 44 0 63 -2 43 -4z m-1535 -20 c-7 -2 -21 -2 -30 0
-10 3 -4 5 12 5 17 0 24 -2 18 -5z m2925 -50 c-10 -2 -26 -2 -35 0 -10 3 -2 5
17 5 19 0 27 -2 18 -5z m-3311 -49 c-3 -3 -12 -4 -19 -1 -8 3 -5 6 6 6 11 1
17 -2 13 -5z m116 -31 c-7 -2 -21 -2 -30 0 -10 3 -4 5 12 5 17 0 24 -2 18 -5z
m115 -20 c-10 -2 -26 -2 -35 0 -10 3 -2 5 17 5 19 0 27 -2 18 -5z m165 -30
c-13 -2 -35 -2 -50 0 -16 2 -5 4 22 4 28 0 40 -2 28 -4z m122 -31 c-3 -3 -11
0 -18 7 -9 10 -8 11 6 5 10 -3 15 -9 12 -12z m188 -19 c-18 -2 -48 -2 -65 0
-18 2 -4 4 32 4 36 0 50 -2 33 -4z m217 -23 c20 -6 15 -8 -25 -9 -27 0 -57 4
-65 9 -19 12 52 12 90 0z m188 -107 c-10 -2 -28 -2 -40 0 -13 2 -5 4 17 4 22
1 32 -1 23 -4z"/>
<path d="M7080 14769 c0 -5 5 -7 10 -4 6 3 10 8 10 11 0 2 -4 4 -10 4 -5 0
-10 -5 -10 -11z"/>
<path d="M7838 14643 c7 -3 16 -2 19 1 4 3 -2 6 -13 5 -11 0 -14 -3 -6 -6z"/>
<path d="M7460 14520 c0 -5 5 -10 11 -10 5 0 7 5 4 10 -3 6 -8 10 -11 10 -2 0
-4 -4 -4 -10z"/>
<path d="M6970 13470 c0 -5 5 -10 10 -10 6 0 10 5 10 10 0 6 -4 10 -10 10 -5
0 -10 -4 -10 -10z"/>
<path d="M6770 13269 c0 -5 5 -7 10 -4 6 3 10 8 10 11 0 2 -4 4 -10 4 -5 0
-10 -5 -10 -11z"/>
<path d="M6571 12914 c0 -11 3 -14 6 -6 3 7 2 16 -1 19 -3 4 -6 -2 -5 -13z"/>
<path d="M5545 7010 c-3 -5 -1 -10 4 -10 6 0 11 5 11 10 0 6 -2 10 -4 10 -3 0
-8 -4 -11 -10z"/>
<path d="M15170 7260 c0 -5 5 -10 10 -10 6 0 10 5 10 10 0 6 -4 10 -10 10 -5
0 -10 -4 -10 -10z"/>
<path d="M15070 7235 c0 -8 5 -15 10 -15 6 0 10 7 10 15 0 8 -4 15 -10 15 -5
0 -10 -7 -10 -15z"/>
<path d="M15078 7183 c7 -3 16 -2 19 1 4 3 -2 6 -13 5 -11 0 -14 -3 -6 -6z"/>
<path d="M14615 7290 c-3 -5 -1 -10 4 -10 6 0 11 5 11 10 0 6 -2 10 -4 10 -3
0 -8 -4 -11 -10z"/>
<path d="M14305 7030 c3 -5 8 -10 11 -10 2 0 4 5 4 10 0 6 -5 10 -11 10 -5 0
-7 -4 -4 -10z"/>
<path d="M13490 6830 c0 -5 5 -10 10 -10 6 0 10 5 10 10 0 6 -4 10 -10 10 -5
0 -10 -4 -10 -10z"/>
<path d="M11635 5810 c3 -5 8 -10 11 -10 2 0 4 5 4 10 0 6 -5 10 -11 10 -5 0
-7 -4 -4 -10z"/>
<path d="M11675 5760 c-19 -8 -19 -9 3 -9 12 -1 22 4 22 9 0 6 -1 10 -2 9 -2
0 -12 -4 -23 -9z"/>
<path d="M14640 6570 c0 -5 5 -10 10 -10 6 0 10 5 10 10 0 6 -4 10 -10 10 -5
0 -10 -4 -10 -10z"/>
<path d="M6315 5960 c3 -5 8 -10 11 -10 2 0 4 5 4 10 0 6 -5 10 -11 10 -5 0
-7 -4 -4 -10z"/>
<path d="M7940 4790 c0 -5 5 -10 10 -10 6 0 10 5 10 10 0 6 -4 10 -10 10 -5 0
-10 -4 -10 -10z"/>
<path d="M9693 15563 c9 -2 25 -2 35 0 9 3 1 5 -18 5 -19 0 -27 -2 -17 -5z"/>
<path d="M11070 15540 c0 -5 5 -10 10 -10 6 0 10 5 10 10 0 6 -4 10 -10 10 -5
0 -10 -4 -10 -10z"/>
<path d="M9750 15210 c0 -5 5 -10 11 -10 5 0 7 5 4 10 -3 6 -8 10 -11 10 -2 0
-4 -4 -4 -10z"/>
<path d="M9875 15130 c3 -5 8 -10 11 -10 2 0 4 5 4 10 0 6 -5 10 -11 10 -5 0
-7 -4 -4 -10z"/>
<path d="M11580 15030 c0 -5 5 -10 10 -10 6 0 10 5 10 10 0 6 -4 10 -10 10 -5
0 -10 -4 -10 -10z"/>
<path d="M9895 14980 c-3 -5 1 -10 9 -10 9 0 16 5 16 10 0 6 -4 10 -9 10 -6 0
-13 -4 -16 -10z"/>
<path d="M9878 14923 c7 -3 16 -2 19 1 4 3 -2 6 -13 5 -11 0 -14 -3 -6 -6z"/>
<path d="M10161 14654 c0 -11 3 -14 6 -6 3 7 2 16 -1 19 -3 4 -6 -2 -5 -13z"/>
<path d="M8828 14213 c7 -3 16 -2 19 1 4 3 -2 6 -13 5 -11 0 -14 -3 -6 -6z"/>
<path d="M12515 14093 c-302 -42 -605 -165 -837 -341 -63 -48 -323 -285 -581
-530 l-79 -74 34 -37 c18 -20 76 -81 128 -136 53 -55 232 -248 400 -429 168
-180 347 -374 399 -430 52 -55 144 -155 205 -221 151 -162 247 -265 337 -360
42 -44 141 -150 220 -236 361 -390 622 -669 628 -669 3 0 99 87 212 193 113
105 250 234 306 284 152 140 303 344 381 513 166 362 212 703 146 1080 -97
550 -516 1067 -1029 1270 -171 68 -263 93 -417 115 -95 13 -377 18 -453 8z"/>
<path d="M5750 13940 c0 -19 3 -21 12 -12 9 9 9 15 0 24 -9 9 -12 7 -12 -12z"/>
<path d="M8942 13920 c0 -14 2 -19 5 -12 2 6 2 18 0 25 -3 6 -5 1 -5 -13z"/>
<path d="M7910 13910 c0 -5 7 -10 16 -10 8 0 12 5 9 10 -3 6 -10 10 -16 10 -5
0 -9 -4 -9 -10z"/>
<path d="M7690 13630 c0 -5 5 -10 10 -10 6 0 10 5 10 10 0 6 -4 10 -10 10 -5
0 -10 -4 -10 -10z"/>
<path d="M5140 13301 c0 -6 4 -13 10 -16 6 -3 7 1 4 9 -7 18 -14 21 -14 7z"/>
<path d="M10649 12516 c-2 -2 -26 -6 -54 -10 -78 -9 -186 -42 -278 -84 -163
-76 -155 -69 -882 -746 -93 -87 -171 -161 -172 -165 -3 -6 79 -97 382 -421
105 -113 288 -308 405 -435 203 -219 336 -361 815 -875 116 -124 289 -310 386
-415 97 -104 217 -233 266 -285 l90 -94 258 239 c142 132 272 252 289 267 l31
26 -26 29 c-125 137 -430 467 -544 588 -230 244 -296 317 -292 321 3 3 214
-82 352 -142 17 -7 166 -68 330 -134 165 -67 369 -151 452 -186 84 -35 156
-64 159 -64 7 0 176 155 324 296 47 44 126 118 175 164 50 46 91 86 93 90 1 4
-10 12 -25 19 -41 19 -602 251 -643 266 -19 7 -91 36 -160 65 -69 28 -213 88
-320 132 -314 129 -291 118 -280 139 17 31 48 200 54 294 11 177 -40 407 -121
553 -202 361 -557 572 -963 572 -53 0 -99 -2 -101 -4z"/>
<path d="M6571 12034 c0 -11 3 -14 6 -6 3 7 2 16 -1 19 -3 4 -6 -2 -5 -13z"/>
<path d="M6590 11969 c0 -5 5 -7 10 -4 6 3 10 8 10 11 0 2 -4 4 -10 4 -5 0
-10 -5 -10 -11z"/>
<path d="M4531 11954 c0 -11 3 -14 6 -6 3 7 2 16 -1 19 -3 4 -6 -2 -5 -13z"/>
<path d="M4331 11434 c0 -11 3 -14 6 -6 3 7 2 16 -1 19 -3 4 -6 -2 -5 -13z"/>
<path d="M8711 11002 c-151 -142 -276 -263 -279 -270 -3 -11 64 -85 643 -707
132 -141 240 -261 240 -266 0 -4 -81 -83 -180 -175 -99 -92 -244 -227 -322
-301 -78 -74 -146 -133 -150 -131 -4 1 -42 39 -83 83 -41 45 -136 146 -211
225 -75 80 -241 259 -369 398 -128 138 -236 252 -240 252 -13 0 -565 -522
-565 -535 0 -12 191 -224 391 -435 44 -47 110 -116 146 -155 98 -107 572 -615
874 -939 148 -159 307 -330 353 -380 46 -50 109 -118 140 -151 31 -33 141
-151 245 -262 l189 -202 151 141 c83 78 211 198 284 267 72 68 132 129 132
135 0 6 -26 38 -58 71 -32 33 -143 152 -247 265 -104 113 -254 275 -335 360
-80 85 -167 179 -195 208 -27 29 -51 57 -53 61 -1 4 21 30 50 56 29 27 174
162 321 299 148 138 274 251 280 251 7 0 80 -72 162 -160 234 -248 666 -713
706 -759 l36 -41 44 39 c24 22 139 128 254 236 116 109 225 210 243 225 18 15
32 33 30 40 -4 16 -134 158 -564 615 -39 41 -165 176 -279 300 -115 124 -355
382 -534 574 -179 193 -391 420 -470 505 -79 86 -206 221 -281 301 -75 80
-151 162 -169 183 -18 20 -38 37 -45 37 -6 -1 -134 -117 -285 -258z"/>
<path d="M16072 10960 c0 -14 2 -19 5 -12 2 6 2 18 0 25 -3 6 -5 1 -5 -13z"/>
<path d="M16215 10340 c3 -5 8 -10 11 -10 2 0 4 5 4 10 0 6 -5 10 -11 10 -5 0
-7 -4 -4 -10z"/>
<path d="M15660 10040 c0 -5 5 -10 11 -10 5 0 7 5 4 10 -3 6 -8 10 -11 10 -2
0 -4 -4 -4 -10z"/>
<path d="M15250 8536 c0 -9 5 -16 10 -16 6 0 10 4 10 9 0 6 -4 13 -10 16 -5 3
-10 -1 -10 -9z"/>
<path d="M14400 8460 c0 -5 7 -10 15 -10 8 0 15 5 15 10 0 6 -7 10 -15 10 -8
0 -15 -4 -15 -10z"/>
<path d="M16090 8430 c0 -5 5 -10 10 -10 6 0 10 5 10 10 0 6 -4 10 -10 10 -5
0 -10 -4 -10 -10z"/>
<path d="M14310 8415 c0 -8 4 -15 10 -15 5 0 7 7 4 15 -4 8 -8 15 -10 15 -2 0
-4 -7 -4 -15z"/>
<path d="M15680 7160 c0 -5 5 -10 10 -10 6 0 10 5 10 10 0 6 -4 10 -10 10 -5
0 -10 -4 -10 -10z"/>
<path d="M7630 7011 c0 -5 5 -13 10 -16 6 -3 10 -2 10 4 0 5 -4 13 -10 16 -5
3 -10 2 -10 -4z"/>
<path d="M8111 6766 c-29 -10 -31 -13 -17 -25 9 -7 16 -21 16 -30 0 -17 80
-81 101 -81 6 0 8 -4 5 -9 -3 -5 5 -12 19 -15 14 -4 25 -11 25 -16 0 -6 5 -10
10 -10 10 0 22 -8 55 -37 7 -7 21 -13 30 -13 13 0 16 -6 12 -21 -5 -18 -2 -20
19 -15 14 4 24 2 24 -4 0 -5 5 -10 11 -10 6 0 25 -11 43 -25 18 -14 38 -25 44
-25 7 0 12 -4 12 -10 0 -5 16 -12 36 -16 24 -4 34 -11 30 -20 -3 -9 1 -14 12
-14 22 0 72 -22 72 -32 0 -5 11 -8 24 -8 13 0 29 -7 36 -15 7 -8 23 -15 35
-15 13 0 25 -7 29 -15 3 -8 11 -15 19 -15 7 0 32 -9 55 -20 22 -11 45 -20 50
-20 6 0 12 -7 16 -15 3 -9 18 -15 39 -15 18 0 42 -7 53 -15 10 -8 27 -15 37
-15 9 0 17 -4 17 -10 0 -5 11 -10 24 -10 13 0 40 -7 59 -15 20 -8 48 -15 62
-15 14 0 25 -4 25 -9 0 -4 19 -11 42 -14 24 -3 44 -11 46 -16 2 -6 24 -11 49
-11 26 0 51 -6 59 -15 9 -9 34 -15 59 -15 24 0 47 -4 50 -10 3 -5 29 -10 56
-10 28 0 60 -5 71 -11 47 -25 678 -52 723 -30 11 5 54 12 97 14 42 3 85 10 96
16 12 6 41 11 66 11 25 0 48 5 51 10 3 6 25 10 49 10 23 0 51 7 62 15 10 8 28
15 39 15 22 1 122 34 132 44 3 3 18 6 32 6 14 0 35 7 45 15 11 8 28 15 38 15
28 0 68 30 68 51 0 37 -59 50 -113 25 -18 -8 -59 -22 -92 -32 -33 -9 -64 -20
-70 -24 -13 -10 -98 -31 -152 -37 -24 -3 -43 -9 -43 -14 0 -5 -24 -9 -53 -9
-29 0 -58 -5 -64 -11 -12 -12 -263 -32 -398 -32 -126 1 -373 20 -415 32 -19 6
-53 11 -75 11 -23 0 -46 5 -51 10 -6 6 -37 12 -69 14 -33 2 -61 9 -63 15 -2 6
-21 11 -43 11 -21 0 -39 4 -39 9 0 5 -19 11 -42 15 -52 8 -104 24 -140 42 -14
8 -38 14 -52 14 -14 0 -26 5 -26 10 0 6 -16 10 -35 10 -24 0 -35 5 -35 15 0 9
-9 15 -24 15 -14 0 -46 11 -72 25 -26 14 -53 25 -61 25 -7 0 -21 4 -31 9 -9 5
-34 17 -54 27 -21 10 -38 22 -38 26 0 5 -11 8 -24 8 -14 0 -31 7 -40 15 -8 8
-19 15 -24 15 -16 0 -72 31 -72 40 0 5 6 11 13 13 6 3 -3 3 -20 0 -19 -3 -33
-1 -33 5 0 5 -8 12 -17 16 -10 3 -27 11 -38 18 -75 46 -96 58 -110 58 -8 0
-15 5 -15 10 0 6 -8 14 -17 17 -10 4 -51 29 -91 57 -168 116 -166 116 -231 92z"/>
<path d="M8295 6750 c3 -5 10 -10 16 -10 5 0 9 5 9 10 0 6 -7 10 -16 10 -8 0
-12 -4 -9 -10z"/>
<path d="M5140 6674 c0 -8 5 -12 10 -9 6 4 8 11 5 16 -9 14 -15 11 -15 -7z"/>
<path d="M8450 6620 c0 -13 11 -13 30 0 12 8 11 10 -7 10 -13 0 -23 -4 -23
-10z"/>
<path d="M12245 6620 c3 -5 8 -10 11 -10 2 0 4 5 4 10 0 6 -5 10 -11 10 -5 0
-7 -4 -4 -10z"/>
<path d="M8555 6600 c-3 -5 1 -10 10 -10 9 0 13 5 10 10 -3 6 -8 10 -10 10 -2
0 -7 -4 -10 -10z"/>
<path d="M12270 6600 c0 -5 5 -10 10 -10 6 0 10 5 10 10 0 6 -4 10 -10 10 -5
0 -10 -4 -10 -10z"/>
<path d="M8615 6550 c-3 -5 3 -10 14 -10 12 0 21 5 21 10 0 6 -6 10 -14 10 -8
0 -18 -4 -21 -10z"/>
<path d="M8170 6519 c0 -5 5 -7 10 -4 6 3 10 8 10 11 0 2 -4 4 -10 4 -5 0 -10
-5 -10 -11z"/>
<path d="M8425 6420 c-3 -5 -2 -10 4 -10 5 0 13 5 16 10 3 6 2 10 -4 10 -5 0
-13 -4 -16 -10z"/>
<path d="M11498 6213 c7 -3 16 -2 19 1 4 3 -2 6 -13 5 -11 0 -14 -3 -6 -6z"/>
<path d="M8985 6110 c4 -6 11 -8 16 -5 14 9 11 15 -7 15 -8 0 -12 -5 -9 -10z"/>
<path d="M11050 6090 c0 -6 7 -10 15 -10 8 0 15 2 15 4 0 2 -7 6 -15 10 -8 3
-15 1 -15 -4z"/>
<path d="M6210 5760 c0 -5 4 -10 9 -10 6 0 13 5 16 10 3 6 -1 10 -9 10 -9 0
-16 -4 -16 -10z"/>
<path d="M6740 5100 c0 -5 5 -10 10 -10 6 0 10 5 10 10 0 6 -4 10 -10 10 -5 0
-10 -4 -10 -10z"/>
<path d="M12988 4993 c7 -3 16 -2 19 1 4 3 -2 6 -13 5 -11 0 -14 -3 -6 -6z"/>
<path d="M7145 4870 c-3 -5 1 -10 9 -10 9 0 16 5 16 10 0 6 -4 10 -9 10 -6 0
-13 -4 -16 -10z"/>
<path d="M12308 4533 c7 -3 16 -2 19 1 4 3 -2 6 -13 5 -11 0 -14 -3 -6 -6z"/>
</g>
</svg>
